<svg width="387" height="34" viewBox="0 0 387 34" fill="none" xmlns="http://www.w3.org/2000/svg">
<g clip-path="url(#clip0_212_1120)">
<path fill-rule="evenodd" clip-rule="evenodd" d="M4.75096 10.0803C6.59484 10.0803 8.08962 11.5751 8.08962 13.419V10.0803H11.4283C13.2722 10.0803 14.767 11.5751 14.767 13.419C14.767 15.2629 13.2722 16.7577 11.4283 16.7577C13.2722 16.7577 14.767 18.2524 14.767 20.0963C14.767 21.0119 14.3984 21.8414 13.8016 22.4445L13.7891 22.4571L13.778 22.4681C13.1747 23.0658 12.3446 23.435 11.4283 23.435C10.5182 23.435 9.69315 23.0708 9.09089 22.4803C9.08308 22.4726 9.07526 22.4649 9.06748 22.4571C9.06017 22.4498 9.0529 22.4425 9.04565 22.4351C8.45434 21.8327 8.08962 21.0071 8.08962 20.0963C8.08962 21.9402 6.59484 23.435 4.75096 23.435C2.90706 23.435 1.41229 21.9402 1.41229 20.0963V16.7577H4.75096C2.90706 16.7577 1.41229 15.2629 1.41229 13.419C1.41229 11.5751 2.90706 10.0803 4.75096 10.0803ZM7.42189 13.419C7.42189 14.8941 6.22608 16.0899 4.75096 16.0899V10.7481C6.22608 10.7481 7.42189 11.9439 7.42189 13.419ZM14.0992 20.0963C14.0992 18.6212 12.9034 17.4254 11.4283 17.4254C9.95317 17.4254 8.75736 18.6212 8.75736 20.0963H14.0992ZM2.08003 17.4254V20.0963C2.08003 21.5714 3.27584 22.7673 4.75096 22.7673C6.22608 22.7673 7.42189 21.5714 7.42189 20.0963V17.4254H2.08003ZM8.75736 16.0899V10.7481H11.4283C12.9034 10.7481 14.0992 11.9439 14.0992 13.419C14.0992 14.8941 12.9034 16.0899 11.4283 16.0899H8.75736Z" fill="#263238"/>
</g>
<g clip-path="url(#clip1_212_1120)">
<path fill-rule="evenodd" clip-rule="evenodd" d="M66.1776 13.4062L62.8437 16.7066C63.5105 17.3668 64.2723 17.9231 65.1028 18.3584C65.3324 18.9612 65.6922 19.5265 66.1824 20.0117C68.0263 21.8371 71.0158 21.8371 72.8597 20.0117C73.3498 19.5265 73.7096 18.9612 73.9392 18.3583C74.7697 17.9231 75.5315 17.3668 76.1984 16.7066L72.8671 13.4089C72.8647 13.4064 72.8622 13.404 72.8597 13.4015C71.0158 11.5761 68.0263 11.5761 66.1824 13.4015C66.1808 13.4031 66.1792 13.4046 66.1776 13.4062ZM72.5407 18.9538C71.5691 19.2784 70.5492 19.4446 69.521 19.4446C68.4928 19.4446 67.4729 19.2784 66.5014 18.9538C66.6067 19.0921 66.7229 19.2248 66.8501 19.3507C68.3252 20.811 70.7168 20.811 72.192 19.3507C72.3192 19.2248 72.4354 19.0921 72.5407 18.9538ZM66.9186 13.9964C67.1691 14.1602 67.4354 14.3004 67.7141 14.4147C68.287 14.6496 68.901 14.7705 69.521 14.7705C70.1411 14.7705 70.7551 14.6496 71.3279 14.4147C71.6066 14.3004 71.873 14.1602 72.1235 13.9964C70.6668 12.6243 68.3753 12.6243 66.9186 13.9964Z" fill="#3B4158"/>
</g>
<g clip-path="url(#clip2_212_1120)">
<path d="M140.299 15.2607C140.301 15.2468 140.301 15.2327 140.299 15.2188C140.301 15.2075 140.301 15.1959 140.299 15.1845L140.163 14.2054C140.144 14.0883 140.091 13.9788 140.012 13.8892L139.988 13.8625L139.946 13.8206L137.591 11.8319L137.657 11.8967C137.603 11.8333 137.535 11.7826 137.458 11.7483C137.381 11.714 137.298 11.697 137.214 11.6986H136.499C136.382 11.6963 136.269 11.7326 136.176 11.8015C136.079 11.733 135.962 11.6969 135.842 11.6986H135.127C135.033 11.6971 134.941 11.7199 134.859 11.7647C134.777 11.8096 134.708 11.8748 134.661 11.9538C134.587 12.0667 134.559 12.2028 134.583 12.3348L134.672 12.952C134.613 12.9191 134.546 12.902 134.478 12.9025H131.015C130.891 12.9032 130.77 12.9389 130.666 13.0053C130.565 13.0671 130.484 13.1556 130.432 13.2606L130.164 13.0358C130.059 12.9401 129.919 12.8882 129.776 12.891H124.343C124.218 12.8933 124.096 12.9274 123.989 12.9901C123.843 13.0741 123.736 13.2108 123.69 13.3711L121.965 19.0286C121.932 19.1218 121.929 19.2224 121.956 19.3174C121.982 19.4123 122.037 19.4975 122.112 19.562C122.132 19.5784 122.153 19.5937 122.175 19.6077C122.175 19.6077 122.14 19.5848 122.12 19.5658L124.475 21.5583C124.575 21.6482 124.705 21.6985 124.84 21.6992H130.316C130.441 21.6961 130.563 21.6606 130.67 21.5964C130.73 21.5641 130.784 21.5215 130.829 21.4706L130.848 21.444L130.879 21.4059L130.903 21.364L131.159 21.5811C131.257 21.6675 131.385 21.715 131.517 21.7145H137.004C137.129 21.7104 137.25 21.675 137.357 21.6116C137.416 21.5773 137.47 21.535 137.517 21.4859L137.536 21.4592L137.567 21.4211C137.584 21.397 137.598 21.3715 137.61 21.3449C137.623 21.3218 137.633 21.2976 137.641 21.2726L139.215 16.1065V16.0608C139.217 16.043 139.217 16.0252 139.215 16.0074V15.9732C139.217 15.9618 139.217 15.9502 139.215 15.9389C139.217 15.9148 139.217 15.8906 139.215 15.8665H139.72C139.764 15.8704 139.808 15.8704 139.852 15.8665H139.887C139.916 15.8582 139.943 15.8466 139.969 15.8322H140.008L140.078 15.7789L140.109 15.756L140.163 15.6874V15.6646L140.202 15.5998C140.2 15.5872 140.2 15.5743 140.202 15.5617C140.2 15.5555 140.2 15.5488 140.202 15.5427C140.21 15.5203 140.217 15.4974 140.221 15.4741C140.22 15.4666 140.22 15.4587 140.221 15.4512C140.22 15.4399 140.22 15.4283 140.221 15.4169C140.221 15.4169 140.299 15.2683 140.299 15.2607Z" fill="black"/>
<path d="M129.935 13.3252C129.956 13.3435 129.97 13.3676 129.976 13.3941C129.983 13.4207 129.98 13.4485 129.97 13.4738L128.248 19.1275C128.227 19.1892 128.182 19.2408 128.124 19.2723C128.077 19.3034 128.022 19.3218 127.965 19.3256H122.493C122.446 19.3234 122.402 19.3045 122.369 19.2723C122.349 19.2543 122.335 19.2309 122.329 19.2051C122.323 19.1794 122.324 19.1523 122.334 19.1275L124.059 13.4738C124.079 13.4113 124.122 13.3583 124.18 13.3252C124.228 13.2963 124.283 13.2793 124.339 13.2757H129.811C129.857 13.2761 129.901 13.2939 129.935 13.3252ZM127.079 17.9884L128.109 14.6129H125.225L124.199 17.9884H127.079ZM135.158 13.3824C135.177 13.4036 135.2 13.4205 135.226 13.4317C135.252 13.4429 135.281 13.4482 135.309 13.4471H136.021C136.048 13.4474 136.074 13.4409 136.098 13.4282C136.122 13.4156 136.142 13.3972 136.157 13.3748C136.169 13.3573 136.178 13.3375 136.183 13.3165C136.188 13.2956 136.188 13.2739 136.184 13.2528L136.044 12.2471C136.031 12.2005 136.007 12.1575 135.974 12.1213C135.955 12.1001 135.932 12.0832 135.906 12.072C135.879 12.0608 135.851 12.0555 135.822 12.0566H135.111C135.084 12.0563 135.057 12.0628 135.034 12.0755C135.01 12.0882 134.99 12.1066 134.975 12.129C134.948 12.1823 134.936 12.2166 134.948 12.2471L135.092 13.2528C135.099 13.3018 135.122 13.3472 135.158 13.3824ZM137.416 12.2394C137.402 12.1929 137.378 12.1499 137.346 12.1137C137.328 12.0925 137.305 12.0757 137.28 12.0644C137.254 12.0532 137.226 12.0479 137.198 12.049H136.483C136.456 12.0482 136.43 12.0545 136.407 12.0673C136.384 12.08 136.364 12.0987 136.351 12.1213C136.325 12.1551 136.314 12.1976 136.32 12.2394L136.464 13.2452C136.473 13.2937 136.496 13.3386 136.53 13.3748C136.549 13.3956 136.572 13.4122 136.598 13.4234C136.624 13.4346 136.653 13.4401 136.681 13.4395H137.396C137.423 13.4399 137.449 13.4334 137.472 13.4207C137.495 13.408 137.515 13.3895 137.528 13.3671C137.542 13.3501 137.551 13.3303 137.556 13.3092C137.561 13.2881 137.561 13.2663 137.556 13.2452L137.416 12.2394ZM134.532 13.7634L134.462 13.2681H131.015C130.961 13.271 130.909 13.2881 130.864 13.3176C130.835 13.3329 130.81 13.3541 130.791 13.3798C130.771 13.4054 130.758 13.4349 130.751 13.4662L130.464 14.411C130.452 14.4346 130.448 14.4611 130.452 14.487C130.456 14.5128 130.469 14.5368 130.487 14.5558C130.52 14.586 130.562 14.6036 130.607 14.6053H134.797L133.767 17.9808H129.589C129.535 17.982 129.483 17.9978 129.438 18.0265C129.383 18.0607 129.343 18.1136 129.325 18.1751L129.033 19.1199C129.024 19.1441 129.021 19.1705 129.026 19.196C129.031 19.2216 129.043 19.2453 129.061 19.2647C129.092 19.2969 129.136 19.316 129.181 19.318H134.668C134.725 19.3132 134.78 19.2949 134.828 19.2647C134.885 19.2331 134.928 19.1814 134.948 19.1199L136.526 13.9538H134.75C134.722 13.9544 134.694 13.9493 134.668 13.9388C134.642 13.9283 134.618 13.9127 134.598 13.8929C134.566 13.8583 134.543 13.8164 134.532 13.771V13.7634Z" fill="white"/>
</g>
<g clip-path="url(#clip3_212_1120)">
<path d="M199.394 13.2226C199.394 13.2339 199.394 13.248 199.391 13.2564C199.376 13.3665 199.376 13.4766 199.385 13.5895C199.391 13.6177 199.397 13.6459 199.42 13.6685C199.459 13.7108 199.517 13.7024 199.541 13.6516C199.553 13.6262 199.553 13.6008 199.547 13.5754C199.517 13.4681 199.512 13.3552 199.509 13.2451C199.509 13.2395 199.509 13.231 199.509 13.2226C199.541 13.2197 199.57 13.2169 199.597 13.2169C199.617 13.2141 199.635 13.2113 199.65 13.2028C199.694 13.1802 199.694 13.1323 199.647 13.1097C199.629 13.1012 199.606 13.0984 199.585 13.0984C199.512 13.1012 199.438 13.1012 199.365 13.1012C199.338 13.1012 199.312 13.104 199.285 13.1069C199.27 13.1097 199.253 13.1097 199.241 13.1181C199.22 13.1266 199.209 13.1407 199.209 13.1605C199.212 13.1802 199.22 13.1915 199.241 13.2C199.253 13.2085 199.267 13.2113 199.282 13.2113C199.317 13.2141 199.356 13.2197 199.394 13.2226ZM200.203 13.3524C200.203 13.3552 200.206 13.358 200.206 13.358C200.217 13.4342 200.229 13.5076 200.238 13.581C200.241 13.6064 200.244 13.629 200.261 13.6487C200.3 13.6967 200.358 13.6911 200.385 13.6403C200.397 13.6149 200.4 13.5895 200.394 13.5613C200.376 13.4766 200.367 13.3919 200.35 13.3101C200.338 13.2593 200.323 13.2113 200.308 13.1661C200.3 13.1379 200.279 13.1181 200.244 13.1153C200.208 13.1097 200.182 13.1266 200.167 13.152C200.15 13.1746 200.135 13.1972 200.123 13.2226C200.103 13.2677 200.085 13.3129 200.061 13.3552C200.058 13.3665 200.056 13.375 200.05 13.3834C200.047 13.3778 200.044 13.375 200.044 13.375C200.006 13.3044 199.97 13.2339 199.932 13.1661C199.926 13.1605 199.923 13.1548 199.92 13.1492C199.903 13.1238 199.882 13.1097 199.85 13.1097C199.82 13.1125 199.797 13.1294 199.782 13.1548C199.776 13.1661 199.776 13.1746 199.773 13.1859C199.761 13.2762 199.747 13.3665 199.735 13.4568C199.729 13.5076 199.726 13.5584 199.726 13.6092C199.723 13.6205 199.726 13.6346 199.732 13.6459C199.738 13.6685 199.756 13.6826 199.779 13.6854C199.809 13.6883 199.829 13.6798 199.838 13.6572C199.847 13.6403 199.85 13.6262 199.853 13.6121C199.864 13.5613 199.873 13.5133 199.882 13.4653C199.888 13.4371 199.891 13.4145 199.9 13.3834C199.906 13.3947 199.911 13.4032 199.917 13.4117C199.944 13.4455 199.97 13.4794 200.003 13.5076C200.035 13.5302 200.061 13.5274 200.088 13.502C200.094 13.4963 200.097 13.4935 200.103 13.4879C200.129 13.4484 200.161 13.4088 200.188 13.3693C200.194 13.3637 200.197 13.358 200.203 13.3524Z" fill="#3A3B7B"/>
<path d="M193.427 13.278C193.407 13.3316 193.403 13.3703 193.412 13.4024C193.423 13.4461 193.45 13.4604 193.486 13.4492C193.832 13.3673 194.589 13.6 194.87 13.6648C194.936 13.6784 194.989 13.5965 194.944 13.523C194.878 13.4519 194.121 13.1473 193.833 13.1307C193.719 13.1245 193.517 13.0967 193.427 13.278Z" fill="#3A3B7B"/>
<path d="M196.387 12.2921C196.424 12.3125 196.444 12.332 196.455 12.3537C196.47 12.3822 196.462 12.4019 196.436 12.412C196.208 12.519 195.904 12.9794 195.782 13.1382C195.752 13.1747 195.683 13.1535 195.673 13.0934C195.675 13.0255 195.944 12.5258 196.095 12.3897C196.154 12.3366 196.251 12.2323 196.387 12.2921Z" fill="#3A3B7B"/>
<path d="M194.569 12.0654C194.613 12.0334 194.659 12.0222 194.682 12.043C195.027 12.3258 195.21 12.7735 195.323 13.1834C195.327 13.193 195.327 13.2067 195.324 13.221C195.322 13.2332 195.313 13.2461 195.298 13.2561C195.283 13.2671 195.269 13.2705 195.263 13.261C195.112 13.0639 194.249 12.2971 194.569 12.0654Z" fill="#3A3B7B"/>
<path d="M187.274 16.9675C187.357 16.9085 187.446 16.8594 187.541 16.8213C187.641 16.794 187.747 16.7985 187.843 16.8342C187.94 16.8698 188.021 16.9346 188.076 17.0188C188.125 17.1028 188.144 17.1997 188.131 17.2951C188.117 17.3904 188.072 17.4789 188.001 17.5473C187.947 17.6028 187.885 17.6511 187.817 17.691C187.515 17.8783 187.21 18.0553 186.905 18.2425C186.843 18.2894 186.777 18.3315 186.707 18.3683C186.602 18.4187 186.482 18.4322 186.367 18.4065C186.252 18.3807 186.15 18.3173 186.079 18.2272C186.026 18.1634 185.981 18.0936 185.946 18.0194C185.657 17.437 185.358 16.8572 185.08 16.2646C184.951 16.008 184.847 15.713 184.745 15.4282C184.702 15.3455 184.693 15.2496 184.722 15.1608C184.75 15.0721 184.814 14.9976 184.899 14.9532C184.984 14.9087 185.083 14.8978 185.177 14.9228C185.27 14.9478 185.349 15.0067 185.398 15.087C185.547 15.2777 185.68 15.4803 185.793 15.6925C186.082 16.2056 186.357 16.7186 186.635 17.2164C186.651 17.2439 186.669 17.2704 186.689 17.2959C186.898 17.2114 187.095 17.101 187.274 16.9675Z" fill="#3A3B7B"/>
<path d="M190.259 16.7885C189.599 17.5299 188.492 17.3426 187.936 16.3883C187.54 15.711 187.471 14.5924 188.332 13.8869C188.515 13.7392 188.735 13.6386 188.971 13.5945C189.259 13.5548 189.553 13.6036 189.811 13.734C190.069 13.8644 190.277 14.0697 190.406 14.3205C190.876 15.1415 190.81 16.1882 190.259 16.7885ZM189.992 15.0594C189.921 14.8576 189.781 14.6854 189.593 14.5719C189.487 14.4994 189.358 14.4641 189.228 14.472C189.098 14.48 188.975 14.5307 188.88 14.6155C188.497 14.9414 188.417 15.7136 188.695 16.1728C188.731 16.2477 188.783 16.3142 188.848 16.3678C188.913 16.4213 188.989 16.4606 189.072 16.4828C189.154 16.5051 189.241 16.5098 189.325 16.4965C189.41 16.4833 189.49 16.4525 189.561 16.4062C189.768 16.2521 189.92 16.0398 189.996 15.7988C190.072 15.5579 190.067 15.3003 189.984 15.0619L189.992 15.0594Z" fill="#3A3B7B"/>
<path d="M192.953 15.3828C192.886 15.3968 192.816 15.3976 192.748 15.3853C192.68 15.3729 192.615 15.3477 192.558 15.311C192.507 15.2833 192.464 15.2453 192.431 15.1996C192.397 15.1538 192.375 15.1017 192.365 15.0467C192.356 14.9917 192.359 14.9354 192.374 14.8817C192.39 14.8281 192.418 14.7784 192.456 14.7363C192.522 14.6517 192.617 14.5912 192.723 14.5644C193.002 14.4868 193.289 14.4395 193.579 14.4233C193.642 14.4162 193.707 14.4214 193.768 14.4385C193.83 14.4557 193.887 14.4845 193.937 14.5232C193.987 14.5619 194.028 14.6098 194.058 14.664C194.089 14.7182 194.107 14.7777 194.113 14.8389C194.197 15.1397 194.206 15.4551 194.14 15.76C193.9 16.7451 193.071 17.0837 192.141 16.7682C191.88 16.6838 191.651 16.5266 191.483 16.3167C191.26 16.0638 191.101 15.7642 191.021 15.4418C190.955 15.1548 190.963 14.8569 191.042 14.5731C191.121 14.2892 191.269 14.0277 191.475 13.8102C191.67 13.5738 191.924 13.3878 192.213 13.2689C192.395 13.1723 192.609 13.1448 192.812 13.1919C192.858 13.2041 192.899 13.2279 192.932 13.2608C192.966 13.2937 192.989 13.3345 193 13.379C193.011 13.4235 193.01 13.4701 192.996 13.5138C192.982 13.5576 192.956 13.5971 192.921 13.628C192.854 13.686 192.782 13.7376 192.705 13.782C192.467 13.9272 192.26 14.1144 192.095 14.3335C191.987 14.4754 191.913 14.6382 191.877 14.8106C191.841 14.983 191.846 15.1608 191.889 15.3315C191.95 15.5642 192.085 15.7731 192.274 15.9293C192.862 16.4424 193.627 15.9472 193.493 15.2468C193.298 15.293 193.127 15.3418 192.953 15.3828Z" fill="#3A3B7B"/>
<path d="M196.546 16.8296C195.677 17.3427 194.688 16.8296 194.472 15.7521C194.314 14.9825 194.613 13.905 195.661 13.4945C195.884 13.409 196.126 13.379 196.364 13.4073C196.65 13.4576 196.913 13.5928 197.115 13.794C197.317 13.9951 197.448 14.252 197.489 14.5284C197.666 15.4443 197.265 16.4217 196.546 16.8296ZM196.848 15.1031C196.848 14.8899 196.769 14.6837 196.626 14.5207C196.55 14.4199 196.439 14.3476 196.313 14.3163C196.188 14.2849 196.054 14.2964 195.936 14.3488C195.466 14.5438 195.135 15.2518 195.255 15.7727C195.264 15.8544 195.292 15.9332 195.336 16.0036C195.38 16.074 195.44 16.1343 195.511 16.1802C195.582 16.2261 195.663 16.2566 195.747 16.2696C195.832 16.2824 195.918 16.2775 196.001 16.255C196.249 16.1716 196.465 16.0158 196.616 15.8093C196.768 15.6027 196.849 15.3558 196.848 15.1031Z" fill="#3A3B7B"/>
<path d="M198.368 17.0451C198.355 17.139 198.303 17.224 198.225 17.2815C198.146 17.339 198.047 17.3642 197.95 17.3516C197.852 17.3391 197.763 17.2897 197.703 17.2144C197.643 17.1391 197.617 17.044 197.63 16.9501C197.643 16.8563 197.695 16.7712 197.773 16.7137C197.852 16.6562 197.951 16.631 198.048 16.6436C198.146 16.6562 198.235 16.7055 198.295 16.7808C198.355 16.8561 198.381 16.9512 198.368 17.0451ZM198.135 13.5842C198.186 13.5097 198.261 13.453 198.348 13.4225C198.435 13.3919 198.53 13.3893 198.619 13.4149C198.709 13.4366 198.789 13.4874 198.845 13.5589C198.901 13.6304 198.93 13.7181 198.927 13.8074C198.915 13.9507 198.892 14.093 198.86 14.2333C198.772 14.7079 198.686 15.1825 198.592 15.652C198.55 15.8393 198.494 16.0189 198.432 16.2087C198.411 16.2681 198.375 16.3217 198.328 16.3652C198.298 16.398 198.261 16.4231 198.219 16.4382C198.177 16.4534 198.131 16.4581 198.087 16.452C198.042 16.4459 198 16.4291 197.964 16.4031C197.928 16.3772 197.9 16.343 197.881 16.3036C197.85 16.2331 197.832 16.1573 197.831 16.0804C197.831 15.7623 197.831 15.4416 197.852 15.121C197.888 14.6633 197.96 14.2088 198.066 13.7613C198.078 13.7013 198.102 13.6439 198.135 13.5919V13.5842Z" fill="#3A3B7B"/>
<path fill-rule="evenodd" clip-rule="evenodd" d="M186.145 19.1069C186.113 19.1745 186.105 19.2499 186.12 19.3224C186.13 19.418 186.153 19.5121 186.187 19.6025C186.23 19.7131 186.278 19.8225 186.337 19.9574C186.35 19.9884 186.365 20.0208 186.38 20.0549C186.459 20.2375 186.559 20.471 186.693 20.8089C186.73 20.9049 186.764 21.0017 186.798 21.0991C186.811 21.1385 186.825 21.178 186.839 21.2176C186.889 21.3583 186.975 21.4847 187.09 21.5849C187.139 21.64 187.203 21.6802 187.275 21.7002C187.349 21.7207 187.428 21.7194 187.5 21.6965C187.573 21.6736 187.637 21.6302 187.684 21.5718C187.73 21.5146 187.758 21.4457 187.763 21.3737C187.793 21.2335 187.783 21.088 187.733 20.9528C187.655 20.7283 187.567 20.5035 187.464 20.2835L187.464 20.2826C187.295 19.9385 187.124 19.5968 186.944 19.255L186.943 19.2526C186.891 19.1635 186.822 19.0839 186.741 19.0173C186.689 18.9579 186.616 18.9178 186.536 18.904C186.455 18.8899 186.37 18.9041 186.299 18.9441C186.231 18.9814 186.177 19.0383 186.145 19.1069Z" fill="#3A3B7B"/>
<path fill-rule="evenodd" clip-rule="evenodd" d="M188.719 18.2594C188.455 18.1938 188.179 18.1842 187.91 18.2314C187.702 18.2511 187.498 18.2971 187.356 18.3883C187.283 18.4347 187.225 18.4943 187.193 18.57C187.16 18.6462 187.156 18.7333 187.182 18.8303C187.231 19.0081 187.295 19.1809 187.358 19.3532L187.368 19.3811L187.369 19.3817C187.559 19.8822 187.751 20.3809 187.945 20.878C187.968 20.9563 188 21.0319 188.04 21.1032L188.041 21.1045C188.095 21.1931 188.164 21.2722 188.245 21.3388C188.286 21.3753 188.336 21.4006 188.391 21.412C188.446 21.4234 188.503 21.4201 188.556 21.4024C188.609 21.3847 188.656 21.3533 188.692 21.3117C188.728 21.2708 188.751 21.2214 188.759 21.1689C188.794 21.0263 188.783 20.8768 188.727 20.7404C188.71 20.6945 188.696 20.6476 188.681 20.5983C188.677 20.5818 188.672 20.5651 188.667 20.548C189.111 20.3815 189.583 20.1575 189.749 19.6364C189.814 19.4563 189.82 19.2613 189.765 19.0782C189.71 18.8948 189.597 18.7323 189.442 18.613C189.23 18.4459 188.984 18.3253 188.719 18.2594ZM187.986 18.8986C187.995 18.8961 188.004 18.8939 188.013 18.8918C188.302 18.8482 188.598 18.9063 188.845 19.0554C188.955 19.1284 189 19.2094 189.007 19.2874C189.015 19.3677 188.985 19.4547 188.924 19.5383C188.808 19.6963 188.597 19.8228 188.407 19.8464C188.268 19.5397 188.127 19.2205 187.986 18.8986Z" fill="#3A3B7B"/>
<path d="M190.481 17.698C190.795 17.5585 191.185 17.5344 191.49 17.6325C191.567 17.654 191.633 17.7004 191.679 17.7639C191.723 17.827 191.744 17.903 191.737 17.979C191.737 18.0284 191.724 18.0769 191.7 18.1207C191.676 18.1653 191.641 18.2036 191.598 18.2325C191.555 18.2613 191.506 18.2799 191.454 18.2865C191.402 18.2931 191.349 18.2877 191.3 18.2706L191.296 18.2693L191.293 18.2675C191.268 18.2549 191.241 18.2453 191.213 18.2391L191.211 18.2387C190.997 18.184 190.794 18.2747 190.721 18.386C190.685 18.4391 190.681 18.4928 190.71 18.5415C190.742 18.5937 190.819 18.6523 190.975 18.6941C191.018 18.7054 191.062 18.7163 191.107 18.7274C191.23 18.7581 191.358 18.7899 191.482 18.8341L191.483 18.8343C192.055 19.0432 192.268 19.476 192.195 19.8831C192.123 20.2856 191.773 20.6519 191.246 20.7383C191.054 20.7791 190.855 20.7712 190.667 20.7153C190.479 20.6593 190.31 20.557 190.176 20.4186L190.172 20.415C190.13 20.3629 190.101 20.3017 190.089 20.2367C190.077 20.178 190.083 20.1174 190.106 20.062C190.129 20.0069 190.168 19.9592 190.218 19.9245C190.271 19.8851 190.335 19.8615 190.402 19.8565C190.468 19.8516 190.535 19.8655 190.593 19.8964C190.652 19.9235 190.706 19.958 190.755 19.9991L190.756 19.9998C190.842 20.0755 190.946 20.0952 191.046 20.077C191.148 20.0584 191.243 20.0008 191.305 19.9243C191.366 19.8484 191.39 19.7581 191.361 19.6705C191.332 19.5822 191.244 19.4833 191.051 19.4006C191 19.3801 190.948 19.3635 190.893 19.3473C190.879 19.343 190.864 19.3386 190.849 19.3342C190.808 19.3225 190.767 19.3104 190.726 19.2971C190.698 19.288 190.671 19.2793 190.643 19.2707C190.568 19.2472 190.495 19.2243 190.424 19.1936C190.271 19.1435 190.138 19.0473 190.047 18.9191C189.954 18.7905 189.908 18.6366 189.914 18.4806C189.915 18.1003 190.164 17.8383 190.481 17.698Z" fill="#3A3B7B"/>
<path d="M194.47 17.6575C194.409 17.6289 194.342 17.6153 194.274 17.618C194.206 17.6207 194.14 17.6395 194.082 17.6729C194.024 17.706 193.975 17.7523 193.94 17.8078C193.908 17.8545 193.886 17.9067 193.875 17.9616C193.864 18.0164 193.864 18.0727 193.876 18.1274C193.887 18.1977 193.9 18.266 193.912 18.3334C193.933 18.445 193.953 18.554 193.966 18.6652L193.967 18.668C193.997 18.8424 194.013 19.0187 194.014 19.1954L194.014 19.1979C194.024 19.3887 193.957 19.5758 193.825 19.7195L193.823 19.7221C193.781 19.7746 193.724 19.8147 193.658 19.8379C193.593 19.861 193.523 19.8663 193.455 19.8532C193.387 19.8401 193.324 19.8091 193.273 19.7636C193.222 19.7181 193.186 19.6598 193.167 19.5955C193.128 19.4601 193.106 19.3207 193.1 19.1803L193.167 18.1622C193.168 18.149 193.169 18.1353 193.17 18.1215C193.172 18.0906 193.175 18.0591 193.176 18.0298C193.178 17.9865 193.176 17.9421 193.166 17.9C193.155 17.857 193.135 17.8161 193.098 17.7813C193.063 17.7468 193.014 17.7214 192.953 17.704C192.843 17.6734 192.75 17.6744 192.672 17.706C192.595 17.7376 192.541 17.7964 192.504 17.8642C192.466 17.9314 192.442 18.011 192.424 18.0908C192.411 18.1499 192.4 18.2121 192.39 18.2712C192.386 18.2916 192.383 18.3116 192.379 18.331L192.379 18.3316C192.324 18.6558 192.307 18.9851 192.33 19.3129C192.334 19.4901 192.373 19.6649 192.444 19.8286C192.524 20.0397 192.668 20.2227 192.859 20.3533C193.05 20.4842 193.277 20.5563 193.512 20.5601C193.746 20.5639 193.977 20.4992 194.172 20.3746C194.367 20.2502 194.518 20.072 194.606 19.8634C194.728 19.5977 194.785 19.3087 194.773 19.0185C194.766 18.8066 194.754 18.5931 194.742 18.3807C194.736 18.2765 194.73 18.1726 194.725 18.0692C194.722 17.9656 194.687 17.8653 194.623 17.7816C194.584 17.7287 194.531 17.6861 194.47 17.6575Z" fill="#3A3B7B"/>
<path d="M196.63 19.2539C196.624 19.2614 196.617 19.2693 196.61 19.2774C196.561 19.0026 196.515 18.7279 196.469 18.4527C196.452 18.354 196.435 18.2549 196.419 18.156L196.417 18.145L196.411 18.1355C196.399 18.1176 196.398 18.1 196.398 18.0625V18.0581L196.397 18.0539C196.385 17.9764 196.348 17.9044 196.293 17.8471C196.237 17.79 196.165 17.7503 196.085 17.733C196.006 17.7142 195.923 17.7184 195.846 17.7449C195.769 17.7714 195.702 17.819 195.654 17.8817C195.613 17.9298 195.58 17.9832 195.555 18.0402C195.499 18.1631 195.442 18.2863 195.385 18.4098L195.384 18.4119C195.242 18.7203 195.098 19.0307 194.959 19.3436L194.959 19.3446C194.873 19.5474 194.803 19.7612 194.733 19.9743C194.719 20.0168 194.705 20.0593 194.69 20.1017C194.665 20.169 194.654 20.2404 194.658 20.3118C194.653 20.3757 194.669 20.4395 194.703 20.4945C194.739 20.5506 194.791 20.5948 194.854 20.6207C194.92 20.6486 194.994 20.6546 195.064 20.6376C195.134 20.6206 195.197 20.5818 195.241 20.5272C195.298 20.46 195.347 20.3867 195.387 20.309C195.505 20.0776 195.618 19.8433 195.73 19.61C195.773 19.5198 195.815 19.439 195.863 19.351C195.867 19.3619 195.87 19.3725 195.873 19.3831C195.924 19.5955 196.009 19.799 196.125 19.9861C196.147 20.0257 196.178 20.0604 196.215 20.0876C196.252 20.1152 196.296 20.1346 196.342 20.1444C196.388 20.1543 196.436 20.1543 196.483 20.1446C196.529 20.1348 196.572 20.1154 196.61 20.088L196.685 20.0344L197.264 19.5664L197.229 19.7758C197.182 20.0636 197.136 20.349 197.086 20.6345C197.054 20.761 197.054 20.8932 197.086 21.0196C197.1 21.0908 197.136 21.1564 197.189 21.2079C197.243 21.2599 197.311 21.2951 197.386 21.3092C197.461 21.3233 197.538 21.3155 197.608 21.2868C197.677 21.2586 197.736 21.2114 197.777 21.1512C197.872 21.0375 197.932 20.8999 197.948 20.7548C197.973 20.5498 198 20.342 198.028 20.1343C198.06 19.8948 198.092 19.6555 198.119 19.4207L198.119 19.42C198.145 19.163 198.158 18.9049 198.157 18.6467C198.163 18.5651 198.141 18.4838 198.096 18.4144C198.051 18.3447 197.984 18.2905 197.905 18.2594C197.822 18.2235 197.73 18.2139 197.642 18.2321C197.554 18.2501 197.474 18.2946 197.414 18.359C197.308 18.4538 197.207 18.5552 197.115 18.6626L197.114 18.6634C197.013 18.7847 196.912 18.9084 196.812 19.0313C196.751 19.106 196.69 19.1805 196.63 19.2539Z" fill="#3A3B7B"/>
</g>
<g clip-path="url(#clip4_212_1120)">
<path d="M259.971 12.6479C259.971 12.8035 260.099 12.9296 260.256 12.9296H260.541C260.699 12.9296 260.826 12.8035 260.826 12.6479C260.826 12.4923 260.699 12.3662 260.541 12.3662H260.256C260.099 12.3662 259.971 12.4923 259.971 12.6479Z" fill="#212326"/>
<path d="M251.701 21.3806H253.086L252.683 20.9822C252.576 20.8766 252.431 20.8172 252.28 20.8172H251.701C249.496 20.8172 247.708 19.0515 247.708 16.8734C247.708 14.6953 249.496 12.9296 251.701 12.9296H256.264C258.469 12.9296 260.256 14.6953 260.256 16.8734C260.256 19.0515 258.469 20.8172 256.264 20.8172H254.557C254.33 20.8172 254.112 20.7282 253.952 20.5697L253.479 20.103C253.212 19.8388 252.849 19.6904 252.471 19.6904H251.701C250.126 19.6904 248.849 18.4292 248.849 16.8734C248.849 15.3176 250.126 14.0564 251.701 14.0564H256.264C257.839 14.0564 259.116 15.3176 259.116 16.8734C259.116 18.4292 257.839 19.6904 256.264 19.6904H255.168C254.941 19.6904 254.723 19.6014 254.563 19.4429L254.09 18.9762C253.823 18.712 253.46 18.5636 253.082 18.5636H251.701C250.756 18.5636 249.99 17.8069 249.99 16.8734C249.99 15.9399 250.756 15.1832 251.701 15.1832H256.264C257.209 15.1832 257.975 15.9399 257.975 16.8734C257.975 17.7955 257.227 18.5451 256.298 18.5633L256.298 18.5636H255.881C255.654 18.5636 255.436 18.4746 255.276 18.3161L254.803 17.8494C254.584 17.6326 254.3 17.4938 253.997 17.451L253.982 17.4368H251.701C251.386 17.4368 251.131 17.1846 251.131 16.8734C251.131 16.5623 251.386 16.31 251.701 16.31H256.264C256.579 16.31 256.834 16.5623 256.834 16.8734C256.834 17.1846 256.579 17.4368 256.264 17.4368H255.123L255.526 17.8352C255.633 17.9408 255.778 18.0002 255.93 18.0002H256.264C256.894 18.0002 257.404 17.4957 257.404 16.8734C257.404 16.2511 256.894 15.7466 256.264 15.7466H251.701C251.071 15.7466 250.56 16.2511 250.56 16.8734C250.56 17.4957 251.071 18.0002 251.701 18.0002H253.795C254.022 18.0002 254.24 18.0892 254.4 18.2477L254.872 18.7145C255.14 18.9786 255.503 19.127 255.881 19.127H256.406V19.1227C257.6 19.05 258.545 18.0707 258.545 16.8734C258.545 15.6288 257.524 14.6198 256.264 14.6198H251.701C250.441 14.6198 249.419 15.6288 249.419 16.8734C249.419 18.118 250.441 19.127 251.701 19.127H253.082C253.309 19.127 253.527 19.216 253.687 19.3745L254.16 19.8413C254.427 20.1054 254.79 20.2538 255.168 20.2538H256.264C258.154 20.2538 259.686 18.7404 259.686 16.8734C259.686 15.0065 258.154 13.493 256.264 13.493H251.701C249.811 13.493 248.279 15.0065 248.279 16.8734C248.279 18.7404 249.811 20.2538 251.701 20.2538H252.471C252.698 20.2538 252.916 20.3428 253.076 20.5013L253.549 20.9681C253.816 21.2322 254.179 21.3806 254.557 21.3806H256.264C258.784 21.3806 260.827 19.3627 260.827 16.8734C260.827 14.3842 258.784 12.3662 256.264 12.3662L251.701 12.3662C249.181 12.3662 247.138 14.3842 247.138 16.8734C247.138 19.3627 249.181 21.3806 251.701 21.3806Z" fill="#212326"/>
</g>
<g clip-path="url(#clip5_212_1120)">
<path d="M310.687 13.3679C310.009 13.3679 309.359 13.6373 308.88 14.1167L307.315 15.6813C306.836 16.1607 306.566 16.8109 306.566 17.4889C306.566 18.9007 307.711 20.0453 309.123 20.0453C309.801 20.0453 310.451 19.7759 310.93 19.2965L312.013 18.2143C312.013 18.2142 312.013 18.2143 312.013 18.2143L315.166 15.061C315.395 14.832 315.705 14.7034 316.029 14.7034C316.571 14.7034 317.031 15.0567 317.19 15.5456L318.185 14.5505C317.731 13.8394 316.935 13.3679 316.029 13.3679C315.351 13.3679 314.701 13.6373 314.221 14.1167L309.986 18.3522C309.757 18.5812 309.446 18.7098 309.123 18.7098C308.448 18.7098 307.902 18.1632 307.902 17.4889C307.902 17.1651 308.03 16.8545 308.259 16.6256L309.824 15.061C310.053 14.832 310.363 14.7034 310.687 14.7034C311.229 14.7034 311.689 15.0567 311.848 15.5457L312.843 14.5505C312.389 13.8394 311.593 13.3679 310.687 13.3679Z" fill="#394149"/>
<path d="M315.328 18.3522C315.099 18.5812 314.788 18.7098 314.464 18.7098C313.922 18.7098 313.463 18.3566 313.303 17.8677L312.308 18.8629C312.762 19.5738 313.558 20.0453 314.464 20.0453C315.142 20.0453 315.793 19.7759 316.272 19.2965L320.508 15.061C320.737 14.832 321.047 14.7034 321.371 14.7034C322.045 14.7034 322.592 15.25 322.592 15.9243C322.592 16.2481 322.463 16.5586 322.234 16.7876L320.67 18.3522C320.441 18.5812 320.13 18.7098 319.806 18.7098C319.264 18.7098 318.805 18.3565 318.645 17.8676L317.65 18.8628C318.104 19.5738 318.9 20.0453 319.806 20.0453C320.484 20.0453 321.135 19.7759 321.614 19.2965L323.179 17.7319C323.658 17.2525 323.927 16.6023 323.927 15.9243C323.927 14.5124 322.783 13.3679 321.371 13.3679C320.693 13.3679 320.043 13.6373 319.563 14.1167L315.328 18.3522Z" fill="#394149"/>
</g>
<g clip-path="url(#clip6_212_1120)">
<path d="M386.025 15.2607C386.027 15.2468 386.027 15.2327 386.025 15.2188C386.027 15.2075 386.027 15.1959 386.025 15.1845L385.889 14.2054C385.869 14.0883 385.817 13.9788 385.737 13.8892L385.714 13.8625L385.671 13.8206L383.316 11.8319L383.383 11.8967C383.328 11.8333 383.261 11.7826 383.184 11.7483C383.107 11.714 383.024 11.697 382.94 11.6986H382.224C382.108 11.6963 381.995 11.7326 381.902 11.8015C381.805 11.733 381.687 11.6969 381.568 11.6986H380.853C380.759 11.6971 380.666 11.7199 380.585 11.7647C380.503 11.8096 380.434 11.8748 380.386 11.9538C380.313 12.0667 380.285 12.2028 380.309 12.3348L380.398 12.952C380.339 12.9191 380.272 12.902 380.204 12.9025H376.741C376.617 12.9032 376.496 12.9389 376.391 13.0053C376.291 13.0671 376.21 13.1556 376.158 13.2606L375.89 13.0358C375.785 12.9401 375.645 12.8882 375.502 12.891H370.069C369.944 12.8933 369.822 12.9274 369.715 12.9901C369.569 13.0741 369.461 13.2108 369.416 13.3711L367.691 19.0286C367.658 19.1218 367.655 19.2224 367.681 19.3174C367.708 19.4123 367.762 19.4975 367.838 19.562C367.858 19.5784 367.879 19.5937 367.9 19.6077C367.9 19.6077 367.865 19.5848 367.846 19.5658L370.201 21.5583C370.301 21.6482 370.431 21.6985 370.566 21.6992H376.042C376.167 21.6961 376.289 21.6606 376.395 21.5964C376.456 21.5641 376.51 21.5215 376.555 21.4706L376.574 21.444L376.605 21.4059L376.629 21.364L376.885 21.5811C376.983 21.6675 377.111 21.715 377.243 21.7145H382.73C382.855 21.7104 382.976 21.675 383.083 21.6116C383.142 21.5773 383.196 21.535 383.243 21.4859L383.262 21.4592L383.293 21.4211C383.31 21.397 383.324 21.3715 383.336 21.3449C383.349 21.3218 383.359 21.2976 383.367 21.2726L384.941 16.1065V16.0608C384.943 16.043 384.943 16.0252 384.941 16.0074V15.9732C384.943 15.9618 384.943 15.9502 384.941 15.9389C384.943 15.9148 384.943 15.8906 384.941 15.8665H385.446C385.49 15.8704 385.534 15.8704 385.578 15.8665H385.613C385.642 15.8582 385.669 15.8466 385.695 15.8322H385.734L385.804 15.7789L385.835 15.756L385.889 15.6874V15.6646L385.928 15.5998C385.926 15.5872 385.926 15.5743 385.928 15.5617C385.926 15.5555 385.926 15.5488 385.928 15.5427C385.936 15.5203 385.943 15.4974 385.947 15.4741C385.946 15.4666 385.946 15.4587 385.947 15.4512C385.945 15.4399 385.945 15.4283 385.947 15.4169C385.947 15.4169 386.025 15.2683 386.025 15.2607Z" fill="black"/>
<path d="M375.661 13.3252C375.682 13.3435 375.696 13.3676 375.702 13.3941C375.709 13.4207 375.706 13.4485 375.696 13.4738L373.974 19.1275C373.953 19.1892 373.908 19.2408 373.85 19.2723C373.803 19.3034 373.748 19.3218 373.691 19.3256H368.219C368.172 19.3234 368.128 19.3045 368.095 19.2723C368.075 19.2543 368.061 19.2309 368.055 19.2051C368.049 19.1794 368.05 19.1523 368.06 19.1275L369.785 13.4738C369.805 13.4113 369.848 13.3583 369.906 13.3252C369.954 13.2963 370.009 13.2793 370.065 13.2757H375.537C375.583 13.2761 375.627 13.2939 375.661 13.3252ZM372.805 17.9884L373.835 14.6129H370.951L369.925 17.9884H372.805ZM380.884 13.3824C380.903 13.4036 380.926 13.4205 380.952 13.4317C380.978 13.4429 381.007 13.4482 381.035 13.4471H381.747C381.774 13.4474 381.8 13.4409 381.824 13.4282C381.848 13.4156 381.868 13.3972 381.883 13.3748C381.895 13.3573 381.904 13.3375 381.909 13.3165C381.913 13.2956 381.914 13.2739 381.91 13.2528L381.77 12.2471C381.757 12.2005 381.733 12.1575 381.7 12.1213C381.681 12.1001 381.658 12.0832 381.632 12.072C381.605 12.0608 381.577 12.0555 381.548 12.0566H380.837C380.81 12.0563 380.783 12.0628 380.76 12.0755C380.736 12.0882 380.716 12.1066 380.701 12.129C380.674 12.1823 380.662 12.2166 380.674 12.2471L380.818 13.2528C380.825 13.3018 380.848 13.3472 380.884 13.3824ZM383.142 12.2394C383.128 12.1929 383.104 12.1499 383.072 12.1137C383.054 12.0925 383.031 12.0757 383.006 12.0644C382.98 12.0532 382.952 12.0479 382.924 12.049H382.209C382.182 12.0482 382.156 12.0545 382.133 12.0673C382.11 12.08 382.09 12.0987 382.077 12.1213C382.051 12.1551 382.04 12.1976 382.046 12.2394L382.19 13.2452C382.199 13.2937 382.221 13.3386 382.256 13.3748C382.275 13.3956 382.298 13.4122 382.324 13.4234C382.35 13.4346 382.379 13.4401 382.407 13.4395H383.122C383.149 13.4399 383.175 13.4334 383.198 13.4207C383.221 13.408 383.241 13.3895 383.254 13.3671C383.268 13.3501 383.277 13.3303 383.282 13.3092C383.287 13.2881 383.287 13.2663 383.282 13.2452L383.142 12.2394ZM380.258 13.7634L380.188 13.2681H376.741C376.687 13.271 376.635 13.2881 376.59 13.3176C376.561 13.3329 376.536 13.3541 376.517 13.3798C376.497 13.4054 376.484 13.4349 376.477 13.4662L376.189 14.411C376.178 14.4346 376.174 14.4611 376.178 14.487C376.182 14.5128 376.194 14.5368 376.213 14.5558C376.246 14.586 376.288 14.6036 376.333 14.6053H380.522L379.493 17.9808H375.315C375.261 17.982 375.209 17.9978 375.164 18.0265C375.109 18.0607 375.068 18.1136 375.051 18.1751L374.759 19.1199C374.75 19.1441 374.747 19.1705 374.752 19.196C374.757 19.2216 374.769 19.2453 374.787 19.2647C374.818 19.2969 374.861 19.316 374.907 19.318H380.394C380.451 19.3132 380.506 19.2949 380.554 19.2647C380.611 19.2331 380.654 19.1814 380.674 19.1199L382.252 13.9538H380.476C380.448 13.9544 380.42 13.9493 380.394 13.9388C380.368 13.9283 380.344 13.9127 380.324 13.8929C380.292 13.8583 380.269 13.8164 380.258 13.771V13.7634Z" fill="white"/>
</g>
<defs>
<clipPath id="clip0_212_1120">
<rect width="13.3547" height="13.3547" fill="white" transform="translate(1.41229 10.0803)"/>
</clipPath>
<clipPath id="clip1_212_1120">
<rect width="13.3547" height="9.34826" fill="white" transform="translate(62.8437 12.0325)"/>
</clipPath>
<clipPath id="clip2_212_1120">
<rect width="18.3627" height="10.016" fill="white" transform="translate(121.938 11.6985)"/>
</clipPath>
<clipPath id="clip3_212_1120">
<rect width="15.6917" height="9.68213" fill="white" transform="translate(184.705 12.0325)"/>
</clipPath>
<clipPath id="clip4_212_1120">
<rect width="13.6885" height="9.0144" fill="white" transform="translate(247.138 12.3662)"/>
</clipPath>
<clipPath id="clip5_212_1120">
<rect width="17.3611" height="6.67733" fill="white" transform="translate(306.566 13.3679)"/>
</clipPath>
<clipPath id="clip6_212_1120">
<rect width="18.3627" height="10.016" fill="white" transform="translate(367.664 11.6985)"/>
</clipPath>
</defs>
</svg>
