<svg width="148" height="145" viewBox="0 0 148 145" fill="none" xmlns="http://www.w3.org/2000/svg">
<path d="M74.1171 127.287C105.688 127.287 131.281 125.793 131.281 123.95C131.281 122.107 105.688 120.612 74.1171 120.612C42.5464 120.612 16.9533 122.107 16.9533 123.95C16.9533 125.793 42.5464 127.287 74.1171 127.287Z" fill="#F5F5F5"/>
<path d="M103.379 49.4147L100.454 48.2354C100.454 48.2354 96.5947 55.2729 95.4891 55.6296C93.9855 56.1131 90.8721 57.4575 89.0265 57.6934C88.7759 57.9882 88.3661 58.9051 88.4044 59.2383C90.8839 60.0667 96.3323 58.967 97.4998 58.1002C100.156 56.1337 103.379 49.4147 103.379 49.4147Z" fill="#E58A7B"/>
<path d="M104.278 47.8136C104.823 49.8273 101.869 53.8782 101.869 53.8782L97.998 51.7083C97.998 51.7083 98.7233 50.0425 99.6078 48.3473C101.026 45.6083 103.656 45.5169 104.278 47.8136Z" fill="#4CAF4F"/>
<path opacity="0.2" d="M104.278 47.8136C104.823 49.8273 101.869 53.8782 101.869 53.8782L97.998 51.7083C97.998 51.7083 98.7233 50.0425 99.6078 48.3473C101.026 45.6083 103.656 45.5169 104.278 47.8136Z" fill="black"/>
<path opacity="0.2" d="M99.5341 52.5751L101.058 53.4301L101.327 48.7512C100.439 49.4323 99.8142 51.4843 99.5341 52.5751Z" fill="black"/>
<path d="M101.731 46.2983C101.731 46.2983 98.7174 53.0027 100.475 65.4856H112.347C112.536 63.6636 111.911 54.7716 114.172 46.1863C112.87 45.9318 111.552 45.7634 110.227 45.6821C108.547 45.5848 106.863 45.5848 105.183 45.6821C104.018 45.8004 102.864 46.0064 101.731 46.2983Z" fill="#4CAF4F"/>
<path opacity="0.2" d="M101.731 46.2983C101.731 46.2983 98.7174 53.0027 100.475 65.4856H112.347C112.536 63.6636 111.911 54.7716 114.172 46.1863C112.87 45.9318 111.552 45.7634 110.227 45.6821C108.547 45.5848 106.863 45.5848 105.183 45.6821C104.018 45.8004 102.864 46.0064 101.731 46.2983Z" fill="black"/>
<g style="mix-blend-mode:multiply">
<path d="M98.9769 124.215C98.9592 124.533 103.461 124.79 109.03 124.79C114.6 124.79 119.134 124.533 119.152 124.215C119.169 123.897 114.67 123.643 109.098 123.643C103.526 123.643 98.9975 123.9 98.9769 124.215Z" fill="#E8ECF1"/>
</g>
<path d="M106.902 115.849L104.796 116.664L106.61 121.35L108.716 120.535L106.902 115.849Z" fill="#E58A7B"/>
<path d="M116.292 121.948H114.072L113.258 116.809H115.478L116.292 121.948Z" fill="#E58A7B"/>
<path d="M113.919 121.691H116.413C116.456 121.691 116.498 121.707 116.531 121.735C116.564 121.763 116.586 121.802 116.593 121.844L116.914 123.817C116.921 123.866 116.917 123.917 116.902 123.965C116.888 124.012 116.863 124.056 116.83 124.094C116.797 124.131 116.757 124.161 116.711 124.182C116.666 124.202 116.616 124.212 116.566 124.212C115.696 124.197 115.278 124.144 114.181 124.144C113.506 124.144 112.117 124.215 111.18 124.215C110.242 124.215 110.18 123.295 110.566 123.21C112.3 122.835 112.972 122.325 113.55 121.83C113.652 121.74 113.783 121.691 113.919 121.691Z" fill="#263238"/>
<path d="M106.548 120.93L108.907 120.241C108.949 120.229 108.994 120.232 109.034 120.249C109.074 120.266 109.107 120.296 109.128 120.335L110.012 122.104C110.033 122.149 110.043 122.198 110.043 122.247C110.043 122.296 110.032 122.345 110.011 122.39C109.989 122.434 109.959 122.474 109.921 122.505C109.883 122.537 109.839 122.56 109.791 122.573C108.933 122.809 108.358 122.953 107.285 123.266C106.545 123.481 105.79 123.832 105.059 124.064C104.552 124.227 103.361 124.233 102.745 124.233C101.834 124.233 101.63 123.271 102.022 123.227C103.01 123.118 103.143 123.168 103.688 122.894C104.581 122.504 105.389 121.945 106.07 121.249C106.199 121.103 106.364 120.993 106.548 120.93Z" fill="#263238"/>
<path d="M89.3979 57.6815L86.9568 56.6584L85.9514 59.3649C86.952 59.5174 87.9699 59.5174 88.9704 59.3649L89.3979 57.6815Z" fill="#E58A7B"/>
<path d="M85.1407 56.5876L85.0758 58.3861L85.9514 59.359L86.9568 56.6525L85.1407 56.5876Z" fill="#E58A7B"/>
<path d="M107.191 116.247L105.079 117.062L106.014 119.485L108.126 118.67L107.191 116.247Z" fill="#CF6F64"/>
<path d="M115.478 116.809H113.258L113.68 119.459H115.9L115.478 116.809Z" fill="#CF6F64"/>
<path opacity="0.2" d="M100.097 62.1098C100.141 62.6435 100.192 63.1889 100.256 63.7491L109.084 60.8834C110.462 60.4748 111.66 59.6085 112.48 58.4275C112.515 57.6403 112.56 56.8118 112.627 55.948C112.657 55.5293 112.692 55.0989 112.731 54.6625C112.769 54.2262 112.822 53.7427 112.878 53.2769L100.097 62.1098Z" fill="black"/>
<path d="M102.981 52.4396L102.686 52.4042C102.86 50.93 103.959 49.7684 105.118 49.7979V50.0927C104.104 50.0721 103.137 51.1187 102.981 52.4396Z" fill="white"/>
<path d="M104.552 55.1609H104.502V54.866C105.516 54.9044 106.468 53.8459 106.625 52.5281L106.919 52.5635C106.763 54.0052 105.699 55.1609 104.552 55.1609Z" fill="white"/>
<path d="M110.062 40.0007C109.647 41.6252 109.157 44.6 110.227 45.682C110.227 45.682 109.479 47.3301 106.462 47.3301C103.706 47.3301 105.183 45.682 105.183 45.682C107.017 45.2516 107.049 43.9131 106.807 42.6453L110.062 40.0007Z" fill="#E58A7B"/>
<path d="M108.736 41.0798L106.81 42.6454C106.87 42.9367 106.905 43.2326 106.914 43.5298C107.477 44.09 108.606 42.6719 108.721 41.9466C108.779 41.6611 108.784 41.3672 108.736 41.0798Z" fill="#CF6F64"/>
<path d="M103.5 39.9802C103.633 40.2123 103.814 40.4144 104.029 40.5737C104.245 40.733 104.491 40.8461 104.753 40.9059C105.46 41.0622 105.814 40.4106 105.619 39.7561C105.445 39.1664 104.865 38.3734 104.145 38.509C103.991 38.5407 103.847 38.6089 103.725 38.7079C103.602 38.8068 103.505 38.9336 103.442 39.0777C103.379 39.2218 103.351 39.3789 103.361 39.5359C103.371 39.6929 103.419 39.8453 103.5 39.9802Z" fill="#CF6F64"/>
<path d="M104.67 34.7825C103.567 35.2866 103.178 39.6678 104.564 40.3164C105.949 40.965 106.757 33.8243 104.67 34.7825Z" fill="#263238"/>
<path d="M110.398 37.5568C110.133 39.7562 110.104 41.0504 108.924 42.1767C108.559 42.5504 108.097 42.8159 107.59 42.9438C107.084 43.0717 106.551 43.0571 106.052 42.9015C105.553 42.746 105.107 42.4555 104.763 42.0623C104.418 41.669 104.189 41.1883 104.101 40.6731C103.744 38.6977 104.237 35.434 106.442 34.5584C106.905 34.354 107.415 34.2773 107.918 34.3362C108.421 34.395 108.899 34.5874 109.302 34.8933C109.706 35.1991 110.021 35.6074 110.213 36.0757C110.406 36.544 110.47 37.0554 110.398 37.5568Z" fill="#E58A7B"/>
<path d="M106.775 35.9205C108.408 35.5048 109.608 35.2217 109.178 36.5809C108.609 38.397 107.925 40.1542 108.842 40.2338C109.402 40.2839 111.878 39.2343 111.563 38.17C111.289 37.2443 112.447 36.9907 112.654 36.5219C113.417 34.8237 111.233 35.0478 111.622 34.0159C112.011 32.984 109.853 31.3212 108.674 32.1497C106.754 33.4882 103.461 33.4675 105.192 31.2652C106.433 29.6938 104.219 30.0151 104.219 30.0151C104.219 30.0151 105.557 30.8082 103.305 32.0347C100.923 33.3437 103.107 36.861 106.775 35.9205Z" fill="#263238"/>
<path d="M111.265 39.9802C110.943 40.4467 110.458 40.7767 109.906 40.9059C109.178 41.0622 108.898 40.4106 109.172 39.7561C109.417 39.1664 110.089 38.3734 110.785 38.509C111.48 38.6446 111.64 39.4023 111.265 39.9802Z" fill="#E58A7B"/>
<path d="M100.475 65.4856C100.475 65.4856 98.4815 83.3226 98.3253 90.0918C98.1661 97.1322 105.08 119.1 105.08 119.1L108.618 117.626C108.618 117.626 104.49 97.5538 105.08 90.6402C105.705 83.1015 108.287 65.4974 108.287 65.4974L100.475 65.4856Z" fill="#4CAF4F"/>
<path opacity="0.2" d="M105.428 70.3827C103.839 73.6788 104.909 80.1974 105.77 84.0597C106.097 81.3325 106.486 78.3725 106.855 75.6335C106.819 71.4234 106.492 68.1715 105.428 70.3827Z" fill="black"/>
<path d="M108.461 116.458C108.479 116.458 108.88 117.584 108.88 117.584L104.8 119.3L104.157 118.103L108.461 116.458Z" fill="#4CAF4F"/>
<path d="M104.688 65.4856C104.688 65.4856 106.212 82.4499 107.22 88.8034C108.329 95.7642 112.674 118.946 112.674 118.946H116.74C116.74 118.946 114.305 96.3274 113.845 89.4343C113.344 81.9575 112.347 65.4856 112.347 65.4856H104.688Z" fill="#4CAF4F"/>
<path d="M116.802 117.888C116.82 117.888 116.938 119.023 116.938 119.023H112.468L112.15 117.72L116.802 117.888Z" fill="#4CAF4F"/>
<path opacity="0.2" d="M115.245 116.544C115.236 116.544 115.227 116.541 115.22 116.535C115.213 116.529 115.208 116.52 115.207 116.511C115.183 116.305 112.987 95.8734 112.574 89.682C112.126 82.9659 111.224 68.0683 111.215 67.918C111.215 67.9131 111.215 67.9082 111.217 67.9035C111.218 67.8989 111.221 67.8946 111.224 67.891C111.228 67.8874 111.232 67.8845 111.236 67.8826C111.241 67.8806 111.246 67.8796 111.25 67.8796C111.26 67.8796 111.269 67.8832 111.277 67.8898C111.284 67.8964 111.288 67.9054 111.289 67.915C111.289 68.0654 112.2 82.9512 112.648 89.6791C113.061 95.8704 115.257 116.287 115.278 116.508C115.279 116.513 115.278 116.518 115.277 116.523C115.276 116.528 115.274 116.532 115.271 116.536C115.268 116.54 115.264 116.543 115.259 116.546C115.255 116.548 115.25 116.549 115.245 116.55V116.544Z" fill="black"/>
<path d="M107.026 38.17C107.026 38.3499 106.914 38.4943 106.796 38.4943C106.678 38.4943 106.592 38.3499 106.604 38.17C106.616 37.9902 106.716 37.8457 106.834 37.8457C106.952 37.8457 107.037 37.9931 107.026 38.17Z" fill="#263238"/>
<path d="M105.003 38.17C105.003 38.3499 104.888 38.4943 104.773 38.4943C104.658 38.4943 104.57 38.3499 104.579 38.17C104.587 37.9902 104.694 37.8457 104.811 37.8457C104.929 37.8457 105.015 37.9931 105.003 38.17Z" fill="#263238"/>
<path d="M105.64 38.2612C105.394 38.8104 105.077 39.3249 104.696 39.7914C104.991 40.0862 105.543 39.9506 105.543 39.9506L105.64 38.2612Z" fill="#DF5753"/>
<path d="M105.693 40.7026C105.686 40.7026 105.679 40.7012 105.673 40.6985C105.667 40.6958 105.661 40.6918 105.656 40.6869C105.652 40.6819 105.648 40.676 105.646 40.6696C105.643 40.6632 105.642 40.6563 105.643 40.6495C105.644 40.6352 105.65 40.6216 105.66 40.6118C105.671 40.6019 105.685 40.5964 105.699 40.5964C105.924 40.598 106.147 40.549 106.351 40.4531C106.555 40.3572 106.735 40.2168 106.878 40.0421C106.888 40.0332 106.901 40.0283 106.915 40.0283C106.929 40.0283 106.942 40.0332 106.952 40.0421C106.961 40.052 106.967 40.0653 106.967 40.079C106.967 40.0928 106.961 40.106 106.952 40.1159C106.799 40.3014 106.607 40.4504 106.389 40.552C106.171 40.6535 105.933 40.7049 105.693 40.7026Z" fill="#263238"/>
<path d="M107.385 37.6276C107.371 37.6348 107.355 37.6386 107.34 37.6386C107.324 37.6386 107.308 37.6348 107.294 37.6276C107.184 37.5563 107.058 37.5119 106.927 37.4981C106.797 37.4843 106.665 37.5014 106.542 37.548C106.53 37.554 106.517 37.5575 106.504 37.5584C106.49 37.5592 106.477 37.5574 106.464 37.553C106.452 37.5486 106.44 37.5417 106.43 37.5328C106.42 37.5238 106.412 37.5129 106.406 37.5008C106.396 37.4746 106.395 37.4451 106.406 37.4187C106.416 37.3922 106.437 37.3709 106.462 37.3593C106.617 37.2963 106.784 37.2715 106.949 37.2869C107.115 37.3023 107.275 37.3575 107.415 37.4477C107.426 37.4554 107.436 37.4653 107.443 37.4767C107.451 37.4882 107.456 37.501 107.458 37.5144C107.461 37.5279 107.46 37.5417 107.458 37.555C107.455 37.5684 107.449 37.581 107.441 37.5922C107.426 37.6091 107.407 37.6214 107.385 37.6276Z" fill="#263238"/>
<path d="M104.222 37.0379C104.206 37.0341 104.192 37.0259 104.181 37.0143C104.171 37.0047 104.163 36.9933 104.158 36.9806C104.152 36.9679 104.15 36.9544 104.15 36.9406C104.15 36.9269 104.152 36.9133 104.158 36.9006C104.163 36.888 104.171 36.8765 104.181 36.8669C104.294 36.7402 104.434 36.6412 104.592 36.5778C104.749 36.5144 104.919 36.4882 105.089 36.5013C105.102 36.5034 105.115 36.5083 105.127 36.5156C105.138 36.5229 105.148 36.5325 105.156 36.5439C105.164 36.5552 105.169 36.568 105.172 36.5815C105.174 36.595 105.174 36.6088 105.171 36.6222C105.165 36.6495 105.149 36.6736 105.126 36.6898C105.103 36.7061 105.075 36.7135 105.047 36.7107C104.913 36.7022 104.779 36.7244 104.655 36.7755C104.531 36.8265 104.42 36.9052 104.331 37.0055C104.317 37.0204 104.3 37.0313 104.281 37.0371C104.262 37.0428 104.241 37.0431 104.222 37.0379Z" fill="#263238"/>
<path d="M115.313 49.0874L112.247 48.2708C112.247 48.2708 109.24 55.6738 108.175 56.1544C106.731 56.8148 103.072 59.1027 101.515 60.1847C101.43 60.5532 101.498 61.5291 101.692 61.7974C104.346 61.3139 109.425 59.3592 110.487 58.3656C112.907 56.0984 115.313 49.0874 115.313 49.0874Z" fill="#E58A7B"/>
<path d="M113.173 122.08C113.023 122.092 112.874 122.052 112.751 121.965C112.713 121.931 112.685 121.888 112.669 121.839C112.653 121.79 112.65 121.739 112.66 121.688C112.662 121.657 112.672 121.627 112.69 121.601C112.707 121.575 112.732 121.554 112.76 121.541C113.008 121.414 113.7 121.853 113.78 121.904C113.789 121.909 113.796 121.917 113.799 121.927C113.803 121.936 113.804 121.947 113.801 121.957C113.798 121.967 113.793 121.976 113.786 121.984C113.779 121.992 113.77 121.998 113.759 122.001C113.567 122.048 113.371 122.075 113.173 122.08ZM112.878 121.621C112.856 121.616 112.832 121.616 112.81 121.621C112.799 121.626 112.789 121.635 112.783 121.646C112.777 121.657 112.774 121.67 112.775 121.682C112.767 121.717 112.768 121.753 112.779 121.786C112.789 121.82 112.808 121.85 112.834 121.874C112.949 121.977 113.238 121.989 113.618 121.915C113.391 121.766 113.136 121.666 112.869 121.621H112.878Z" fill="#4CAF4F"/>
<path d="M113.745 122.001C113.737 122.003 113.729 122.003 113.721 122.001C113.5 121.877 113.084 121.391 113.146 121.143C113.155 121.104 113.178 121.069 113.209 121.044C113.241 121.018 113.28 121.005 113.32 121.004C113.36 120.999 113.4 121.002 113.438 121.014C113.476 121.026 113.511 121.046 113.541 121.072C113.786 121.282 113.801 121.924 113.801 121.957C113.802 121.966 113.8 121.976 113.795 121.985C113.791 121.993 113.783 122 113.774 122.004C113.764 122.006 113.754 122.005 113.745 122.001ZM113.35 121.102H113.329C113.261 121.102 113.252 121.14 113.249 121.155C113.214 121.299 113.476 121.668 113.695 121.842C113.694 121.593 113.616 121.35 113.473 121.146C113.439 121.116 113.395 121.1 113.35 121.102Z" fill="#4CAF4F"/>
<path d="M105.345 121.712C105.165 121.775 104.968 121.775 104.788 121.712C104.747 121.69 104.712 121.658 104.687 121.618C104.662 121.579 104.647 121.534 104.643 121.488C104.64 121.459 104.643 121.429 104.654 121.402C104.665 121.374 104.683 121.35 104.705 121.332C104.941 121.119 105.905 121.332 106.014 121.373C106.025 121.376 106.034 121.382 106.04 121.39C106.047 121.399 106.05 121.409 106.05 121.42C106.05 121.431 106.047 121.442 106.042 121.452C106.036 121.461 106.027 121.469 106.017 121.473C105.8 121.571 105.575 121.651 105.345 121.712ZM104.865 121.361C104.831 121.368 104.799 121.383 104.773 121.405C104.764 121.412 104.757 121.422 104.752 121.433C104.748 121.444 104.747 121.456 104.75 121.467C104.751 121.498 104.761 121.528 104.778 121.554C104.794 121.581 104.817 121.602 104.844 121.618C105 121.7 105.363 121.635 105.832 121.438C105.516 121.358 105.189 121.332 104.865 121.361Z" fill="#4CAF4F"/>
<path d="M106.008 121.473H105.985C105.69 121.42 105.1 121.081 105.083 120.828C105.083 120.769 105.109 120.686 105.251 120.639C105.299 120.622 105.349 120.615 105.4 120.618C105.451 120.621 105.5 120.634 105.546 120.657C105.864 120.813 106.032 121.379 106.041 121.405C106.043 121.414 106.043 121.424 106.04 121.432C106.038 121.441 106.033 121.449 106.026 121.455C106.022 121.463 106.016 121.469 106.008 121.473ZM105.31 120.727H105.28C105.189 120.76 105.189 120.798 105.189 120.81C105.189 120.963 105.616 121.243 105.914 121.338C105.846 121.101 105.7 120.893 105.501 120.748C105.442 120.718 105.374 120.71 105.31 120.727Z" fill="#4CAF4F"/>
<path d="M101.766 60.0107L98.6908 61.4259L98.3341 62.3104L99.4692 63.074C99.4692 63.074 101.592 62.844 102.196 61.479L101.766 60.0107Z" fill="#E58A7B"/>
<path d="M101.896 61.8475C101.827 61.2567 101.632 60.6876 101.324 60.1788L101.81 59.8132C102.176 60.3994 102.41 61.0585 102.494 61.7443L101.896 61.8475Z" fill="#263238"/>
<path d="M102.42 60.4293C102.485 60.5316 102.517 60.6514 102.512 60.7724C102.506 60.8934 102.464 61.0099 102.39 61.1058C102.316 61.2017 102.214 61.2726 102.098 61.3086C101.983 61.3447 101.859 61.3443 101.743 61.3074C101.628 61.2705 101.527 61.1989 101.453 61.1024C101.38 61.006 101.338 60.8893 101.334 60.7682C101.329 60.6471 101.362 60.5275 101.428 60.4258C101.493 60.324 101.589 60.2449 101.701 60.1994C101.827 60.1351 101.973 60.1233 102.108 60.1663C102.243 60.2094 102.355 60.3039 102.42 60.4293Z" fill="#263238"/>
<path d="M96.6124 62.5697L97.0222 62.9825L99.7817 61.8032L98.6909 61.4258L96.6124 62.5697Z" fill="#E58A7B"/>
<path opacity="0.2" d="M108.461 116.458C108.479 116.458 108.88 117.584 108.88 117.584L104.8 119.3L104.157 118.103L108.461 116.458Z" fill="black"/>
<path opacity="0.2" d="M116.802 117.888C116.82 117.888 116.938 119.023 116.938 119.023H112.468L112.15 117.72L116.802 117.888Z" fill="black"/>
<path d="M116.112 48.2383C116.923 50.8534 113.754 54.4296 113.754 54.4296L109.375 52.643C109.894 51.1314 110.493 49.6484 111.168 48.1999C112.512 45.3018 115.293 45.5996 116.112 48.2383Z" fill="#4CAF4F"/>
<path opacity="0.2" d="M116.112 48.2383C116.923 50.8534 113.754 54.4296 113.754 54.4296L109.375 52.643C109.894 51.1314 110.493 49.6484 111.168 48.1999C112.512 45.3018 115.293 45.5996 116.112 48.2383Z" fill="black"/>
<path d="M72.6076 22.0371H70.7237V22.3408H72.6076V22.0371Z" fill="#4CAF4F"/>
<path d="M96.9951 34.056L96.7671 39.116L97.0705 39.1296L97.2985 34.0697L96.9951 34.056Z" fill="#4CAF4F"/>
<path d="M96.4089 23.3992H61.6195L58.3823 95.8438H93.1717L96.4089 23.3992Z" fill="#4CAF4F"/>
<path opacity="0.56" d="M95.3712 24.3958H60.5817L57.3445 96.8404H92.134L95.3712 24.3958Z" fill="#FAFAFA"/>
<path opacity="0.07" d="M94.3333 25.3892H59.5439L56.3037 97.8338H91.0932L94.3333 25.3892Z" fill="#4CAF4F"/>
<path d="M90.3739 56.9858H60.679L60.4313 62.5286H90.1262L90.3739 56.9858Z" fill="white"/>
<path d="M77.0094 52.9407H60.8588L60.7498 55.4202H76.9003L77.0094 52.9407Z" fill="#4CAF4F"/>
<path d="M89.7046 71.9453H60.0097L59.762 77.488H89.4569L89.7046 71.9453Z" fill="white"/>
<path opacity="0.47" d="M84.2591 84.9736H64.2906L63.9928 91.6161H83.9614L84.2591 84.9736Z" fill="#4CAF4F"/>
<path d="M82.9236 92.648H62.955C62.9463 92.6503 62.9372 92.6503 62.9285 92.648C62.9255 92.6394 62.9255 92.6301 62.9285 92.6215L63.2233 85.9761C63.2233 85.9716 63.2242 85.9671 63.226 85.963C63.2278 85.9588 63.2305 85.9551 63.2338 85.9521C63.2371 85.949 63.2411 85.9467 63.2453 85.9453C63.2496 85.9438 63.2542 85.9433 63.2587 85.9437H83.2272C83.2309 85.9419 83.2349 85.9409 83.239 85.9409C83.2431 85.9409 83.2472 85.9419 83.2508 85.9437C83.2529 85.9473 83.254 85.9513 83.254 85.9555C83.254 85.9596 83.2529 85.9637 83.2508 85.9673L82.9619 92.6274C82.9584 92.6343 82.9528 92.64 82.9459 92.6437C82.9391 92.6474 82.9313 92.6489 82.9236 92.648ZM62.9904 92.5773H82.8882L83.183 86.0026H63.2852L62.9904 92.5773Z" fill="white"/>
<path d="M73.5216 67.9001H60.1896L60.0805 70.3826H73.4096L73.5216 67.9001Z" fill="#4CAF4F"/>
<path d="M83.8788 39.0809C83.8026 40.694 83.229 42.2439 82.2367 43.518C81.5021 44.4803 80.5568 45.2616 79.4733 45.8018C78.3898 46.342 77.197 46.6268 75.9863 46.6343C75.008 46.6418 74.0385 46.4488 73.1376 46.0674C72.2366 45.686 71.4233 45.1242 70.7477 44.4166C70.0721 43.7089 69.5485 42.8705 69.2092 41.9528C68.87 41.0352 68.7221 40.0578 68.7749 39.0809C68.8786 37.0536 69.7528 35.1426 71.2188 33.7386C72.6847 32.3345 74.6317 31.5436 76.6615 31.5274C77.6406 31.5183 78.6111 31.71 79.5131 32.0908C80.4152 32.4715 81.2296 33.0332 81.906 33.7411C82.5824 34.449 83.1064 35.2881 83.4458 36.2065C83.7851 37.125 83.9325 38.1032 83.8788 39.0809Z" fill="white"/>
<path d="M84.5894 33.1077C84.5701 33.5366 84.4176 33.9488 84.153 34.287C83.9573 34.5426 83.7057 34.7501 83.4175 34.8937C83.1293 35.0372 82.8122 35.1131 82.4902 35.1154C82.1783 35.1173 81.8706 35.0428 81.5941 34.8984C81.3176 34.754 81.0807 34.5441 80.904 34.287C80.6701 33.9396 80.5543 33.5261 80.5738 33.1077C80.6023 32.5694 80.8351 32.0624 81.2246 31.6898C81.6141 31.3173 82.1311 31.1074 82.6701 31.1029C82.9301 31.1005 83.1878 31.1514 83.4274 31.2524C83.667 31.3534 83.8834 31.5025 84.0632 31.6903C84.243 31.8781 84.3825 32.1008 84.4729 32.3445C84.5634 32.5883 84.6031 32.848 84.5894 33.1077Z" fill="#4CAF4F"/>
<path d="M63.8778 59.7571C63.8637 59.9946 63.76 60.218 63.5876 60.3822C63.4153 60.5463 63.1871 60.639 62.9491 60.6415C62.8342 60.6429 62.7203 60.6207 62.6143 60.5763C62.5083 60.5318 62.4126 60.4662 62.333 60.3833C62.2534 60.3004 62.1917 60.202 62.1516 60.0943C62.1115 59.9866 62.094 59.8718 62.1 59.7571C62.1128 59.519 62.2161 59.2948 62.3887 59.1304C62.5614 58.966 62.7903 58.8737 63.0287 58.8726C63.1435 58.8716 63.2573 58.8942 63.3631 58.9387C63.4689 58.9833 63.5644 59.049 63.6439 59.1318C63.7234 59.2146 63.7852 59.3128 63.8254 59.4203C63.8656 59.5278 63.8835 59.6424 63.8778 59.7571Z" fill="#263238"/>
<path d="M67.8521 59.7571C67.8386 59.9949 67.7351 60.2187 67.5626 60.383C67.3901 60.5472 67.1616 60.6397 66.9234 60.6416C66.8087 60.6425 66.6951 60.62 66.5894 60.5754C66.4838 60.5308 66.3884 60.4651 66.3091 60.3822C66.2299 60.2993 66.1684 60.2011 66.1285 60.0936C66.0886 59.9861 66.0712 59.8716 66.0772 59.7571C66.09 59.5195 66.1928 59.2958 66.3648 59.1314C66.5369 58.9671 66.7651 58.8745 67.003 58.8726C67.1179 58.8712 67.2318 58.8935 67.3378 58.9379C67.4438 58.9823 67.5395 59.048 67.6191 59.1309C67.6987 59.2138 67.7604 59.3122 67.8005 59.4199C67.8406 59.5276 67.8581 59.6423 67.8521 59.7571Z" fill="#263238"/>
<path d="M71.8293 59.7571C71.8158 59.9949 71.7123 60.2187 71.5398 60.383C71.3673 60.5472 71.1388 60.6397 70.9006 60.6416C70.7858 60.6425 70.672 60.62 70.5662 60.5754C70.4605 60.5309 70.3649 60.4652 70.2854 60.3823C70.2059 60.2995 70.1442 60.2014 70.1039 60.0939C70.0637 59.9863 70.0459 59.8717 70.0515 59.7571C70.065 59.5193 70.1685 59.2955 70.3409 59.1312C70.5134 58.9669 70.742 58.8745 70.9802 58.8726C71.0951 58.8712 71.2091 58.8935 71.315 58.9379C71.421 58.9823 71.5168 59.048 71.5964 59.1309C71.6759 59.2138 71.7377 59.3122 71.7777 59.4199C71.8178 59.5276 71.8353 59.6423 71.8293 59.7571Z" fill="#263238"/>
<path d="M63.2086 74.7165C63.1944 74.9541 63.0907 75.1775 62.9184 75.3416C62.746 75.5058 62.5178 75.5985 62.2799 75.601C62.1651 75.602 62.0513 75.5795 61.9455 75.5349C61.8397 75.4903 61.7442 75.4246 61.6647 75.3418C61.5852 75.259 61.5234 75.1608 61.4832 75.0533C61.443 74.9458 61.4251 74.8312 61.4308 74.7165C61.4442 74.4787 61.5477 74.2549 61.7202 74.0907C61.8927 73.9264 62.1213 73.8339 62.3595 73.8321C62.4742 73.8311 62.588 73.8536 62.6938 73.8982C62.7996 73.9428 62.8952 74.0085 62.9746 74.0913C63.0541 74.1741 63.1159 74.2723 63.1561 74.3798C63.1963 74.4873 63.2142 74.6019 63.2086 74.7165Z" fill="#263238"/>
<path d="M67.1828 74.7165C67.1694 74.9539 67.0663 75.1772 66.8944 75.3414C66.7226 75.5056 66.4947 75.5984 66.2571 75.601C66.1422 75.6024 66.0282 75.5802 65.9222 75.5357C65.8162 75.4913 65.7205 75.4256 65.6409 75.3427C65.5613 75.2598 65.4996 75.1615 65.4595 75.0538C65.4195 74.9461 65.4019 74.8313 65.408 74.7165C65.4214 74.4787 65.5249 74.2549 65.6974 74.0907C65.8699 73.9264 66.0985 73.8339 66.3367 73.8321C66.4513 73.8311 66.565 73.8536 66.6706 73.8982C66.7762 73.9428 66.8716 74.0086 66.9509 74.0914C67.0302 74.1743 67.0916 74.2725 67.1315 74.38C67.1714 74.4875 67.1889 74.602 67.1828 74.7165Z" fill="#263238"/>
<path d="M71.1689 74.7166C71.1554 74.9544 71.0519 75.1782 70.8794 75.3424C70.7069 75.5067 70.4784 75.5992 70.2402 75.601C70.1255 75.6016 70.0119 75.5788 69.9063 75.534C69.8008 75.4893 69.7054 75.4236 69.6259 75.3409C69.5465 75.2582 69.4848 75.1602 69.4444 75.0529C69.404 74.9455 69.3859 74.8311 69.3911 74.7166C69.4052 74.479 69.5089 74.2556 69.6813 74.0915C69.8536 73.9273 70.0818 73.8347 70.3198 73.8321C70.4347 73.8307 70.5486 73.8529 70.6546 73.8974C70.7606 73.9418 70.8563 74.0075 70.9359 74.0904C71.0155 74.1733 71.0772 74.2716 71.1173 74.3793C71.1574 74.487 71.1749 74.6018 71.1689 74.7166Z" fill="#263238"/>
<path d="M75.1373 74.7165C75.1231 74.9541 75.0194 75.1775 74.847 75.3416C74.6747 75.5058 74.4465 75.5985 74.2086 75.601C74.0939 75.6015 73.9803 75.5787 73.8747 75.534C73.7691 75.4893 73.6737 75.4236 73.5943 75.3409C73.5149 75.2581 73.4532 75.1601 73.4128 75.0528C73.3724 74.9455 73.3543 74.8311 73.3595 74.7165C73.3736 74.479 73.4773 74.2556 73.6497 74.0915C73.822 73.9273 74.0502 73.8346 74.2882 73.8321C74.4029 73.8311 74.5167 73.8536 74.6225 73.8982C74.7283 73.9428 74.8238 74.0085 74.9033 74.0913C74.9828 74.1741 75.0446 74.2723 75.0848 74.3798C75.125 74.4873 75.1429 74.6019 75.1373 74.7165Z" fill="#263238"/>
<path d="M79.1292 74.7165C79.115 74.9541 79.0113 75.1775 78.839 75.3416C78.6666 75.5058 78.4385 75.5985 78.2005 75.601C78.0856 75.6024 77.9716 75.5802 77.8656 75.5357C77.7597 75.4913 77.6639 75.4256 77.5843 75.3427C77.5047 75.2598 77.443 75.1615 77.4029 75.0538C77.3629 74.9461 77.3453 74.8313 77.3514 74.7165C77.3649 74.4787 77.4684 74.2549 77.6409 74.0907C77.8133 73.9264 78.0419 73.8339 78.2801 73.8321C78.3949 73.8311 78.5086 73.8536 78.6144 73.8982C78.7202 73.9428 78.8158 74.0085 78.8953 74.0913C78.9748 74.1741 79.0365 74.2723 79.0767 74.3798C79.117 74.4873 79.1348 74.6019 79.1292 74.7165Z" fill="#263238"/>
<path d="M78.5258 38.6876C79.7598 37.4809 79.8253 35.5466 78.672 34.3673C77.5188 33.1881 75.5835 33.2103 74.3495 34.4171C73.1155 35.6238 73.0501 37.5581 74.2033 38.7373C75.3565 39.9166 77.2918 39.8944 78.5258 38.6876Z" fill="#4CAF4F"/>
<path d="M82.2366 43.518C81.5021 44.4804 80.5568 45.2616 79.4733 45.8019C78.3898 46.3421 77.197 46.6268 75.9863 46.6343C74.8123 46.6443 73.654 46.3652 72.6133 45.8218C71.5727 45.2783 70.6817 44.4871 70.019 43.518C71.4519 42.0911 73.7191 41.1594 76.231 41.1594C78.7429 41.1594 80.9306 42.0911 82.2366 43.518Z" fill="#4CAF4F"/>
<path opacity="0.1" d="M78.5258 38.6876C79.7598 37.4809 79.8253 35.5466 78.672 34.3673C77.5188 33.1881 75.5835 33.2103 74.3495 34.4171C73.1155 35.6238 73.0501 37.5581 74.2033 38.7373C75.3565 39.9166 77.2918 39.8944 78.5258 38.6876Z" fill="white"/>
<path opacity="0.1" d="M82.2366 43.518C81.5021 44.4804 80.5568 45.2616 79.4733 45.8019C78.3898 46.3421 77.197 46.6268 75.9863 46.6343C74.8123 46.6443 73.654 46.3652 72.6133 45.8218C71.5727 45.2783 70.6817 44.4871 70.019 43.518C71.4519 42.0911 73.7191 41.1594 76.231 41.1594C78.7429 41.1594 80.9306 42.0911 82.2366 43.518Z" fill="white"/>
<path d="M38.8589 63.8641C38.5788 64.4773 38.2839 65.1525 38.0274 65.807C37.7709 66.4615 37.5085 67.1367 37.2815 67.8089C36.818 69.1336 36.465 70.4945 36.2261 71.8775L36.1612 72.3109C36.155 72.3852 36.162 72.4601 36.1818 72.532C36.2514 72.7763 36.361 73.0075 36.5061 73.216C36.8848 73.7557 37.324 74.2503 37.8152 74.6901C38.3331 75.1718 38.8763 75.6255 39.4426 76.0493C40.0087 76.4856 40.6042 76.9101 41.1909 77.3111L40.6396 78.3459C39.2386 77.7355 37.9089 76.9733 36.6742 76.0728C36.0155 75.5924 35.421 75.0297 34.9052 74.3982C34.5995 74.0224 34.3611 73.5964 34.2006 73.1393C34.1073 72.8538 34.0595 72.5553 34.0591 72.2548C34.0591 72.1841 34.0591 72.0809 34.0591 72.0308V71.8863L34.0886 71.5915C34.2576 70.0554 34.5806 68.5403 35.0526 67.0688C35.2826 66.3436 35.5273 65.6212 35.8074 64.9166C36.0875 64.212 36.3764 63.5221 36.7332 62.8057L38.8589 63.8641Z" fill="#E58A7B"/>
<path d="M40.7752 77.1282L42.8597 76.0728L42.3201 78.3606C42.3201 78.3606 40.8902 78.7616 40.2269 78.0658L40.7752 77.1282Z" fill="#E58A7B"/>
<path d="M44.7672 76.4472L44.2129 78.34L42.3201 78.3606L42.8597 76.0728L44.7672 76.4472Z" fill="#E58A7B"/>
<path d="M47.7096 52.8257C47.8211 53.2343 47.9762 53.6297 48.1724 54.005C48.1151 54.07 48.0413 54.1183 47.9588 54.1448C47.8763 54.1712 47.7881 54.1749 47.7037 54.1553L47.7096 52.8257Z" fill="#DF5753"/>
<path d="M47.6476 52.8434C47.7698 52.8434 47.8688 52.6916 47.8688 52.5043C47.8688 52.3171 47.7698 52.1653 47.6476 52.1653C47.5255 52.1653 47.4265 52.3171 47.4265 52.5043C47.4265 52.6916 47.5255 52.8434 47.6476 52.8434Z" fill="#263238"/>
<path d="M47.5828 52.1771L48.0309 52.0503C48.0309 52.0503 47.8127 52.3982 47.5828 52.1771Z" fill="#263238"/>
<path d="M41.9516 54.9897C42.2199 56.3607 42.4882 58.8756 41.527 59.7925C41.527 59.7925 41.9044 61.184 44.4547 61.184C47.2585 61.184 45.7932 59.7925 45.7932 59.7925C44.263 59.4269 44.3014 58.2918 44.5696 57.2245L41.9516 54.9897Z" fill="#E58A7B"/>
<path d="M41.2057 51.8645C41.3472 54.1553 41.359 55.1282 42.5147 56.3046C44.2571 58.0736 47.0403 57.4013 47.5857 55.1253C48.0781 53.0615 47.7655 49.6651 45.5219 48.7541C45.0294 48.5512 44.4933 48.4773 43.9643 48.5394C43.4353 48.6015 42.9309 48.7975 42.4988 49.1089C42.0666 49.4203 41.7211 49.8368 41.4948 50.319C41.2685 50.8012 41.169 51.3331 41.2057 51.8645Z" fill="#E58A7B"/>
<path d="M41.4327 49.2879C40.2829 49.7066 38.7498 49.3941 39.3512 52.9408C39.988 56.6969 39.0092 57.9322 39.0092 57.9322C39.0092 57.9322 43.3697 58.8609 47.8216 57.8762C47.8216 57.8762 46.4624 55.4999 46.8427 53.7487C47.3292 51.5375 46.9459 50.7208 46.9459 50.7208C46.9459 50.7208 43.0483 48.6983 41.4327 49.2879Z" fill="#263238"/>
<path d="M46.2974 53.0587C46.2986 53.4943 46.4233 53.9206 46.6571 54.2882C46.9696 54.7658 47.3381 54.583 47.4295 54.0759C47.512 53.6307 47.4501 52.8435 47.0521 52.5369C46.6541 52.2303 46.3033 52.531 46.2974 53.0587Z" fill="#E58A7B"/>
<path d="M40.4332 49.6741C40.103 48.7454 41.6774 47.3155 45.0089 47.9051C48.3405 48.4948 48.4849 51.2691 48.4849 51.2691L47.8127 50.4672L47.8422 51.3104L44.4193 51.9678L40.4332 49.6741Z" fill="#263238"/>
<path d="M40.7163 59.9487C40.6966 59.8141 40.7303 59.6771 40.8102 59.567C40.89 59.4568 41.0097 59.3822 41.1438 59.359C42.1816 59.188 44.5402 58.8401 45.7254 59.0052C46.6099 59.1291 46.8398 59.6421 46.8782 60.0637C46.8842 60.1375 46.8743 60.2117 46.8492 60.2814C46.8241 60.3511 46.7844 60.4146 46.7327 60.4677C46.6811 60.5208 46.6186 60.5622 46.5496 60.5891C46.4807 60.616 46.4067 60.6279 46.3327 60.6238L41.2087 60.3939C41.0879 60.3878 40.9729 60.3401 40.8832 60.259C40.7934 60.1779 40.7345 60.0683 40.7163 59.9487Z" fill="#4CAF4F"/>
<path opacity="0.6" d="M40.7163 59.9487C40.6966 59.8141 40.7303 59.6771 40.8102 59.567C40.89 59.4568 41.0097 59.3822 41.1438 59.359C42.1816 59.188 44.5402 58.8401 45.7254 59.0052C46.6099 59.1291 46.8398 59.6421 46.8782 60.0637C46.8842 60.1375 46.8743 60.2117 46.8492 60.2814C46.8241 60.3511 46.7844 60.4146 46.7327 60.4677C46.6811 60.5208 46.6186 60.5622 46.5496 60.5891C46.4807 60.616 46.4067 60.6279 46.3327 60.6238L41.2087 60.3939C41.0879 60.3878 40.9729 60.3401 40.8832 60.259C40.7934 60.1779 40.7345 60.0683 40.7163 59.9487Z" fill="black"/>
<path d="M43.6793 111.455L45.5809 112.776L48.7621 108.462L46.8604 107.145L43.6793 111.455Z" fill="#E58A7B"/>
<path d="M39.2451 111.369L41.2529 112.513L44.0685 107.952L42.0607 106.808L39.2451 111.369Z" fill="#E58A7B"/>
<path d="M48.7591 108.462L47.1199 110.685L45.2183 109.368L46.8575 107.145L48.7591 108.462Z" fill="#CF6F64"/>
<path d="M42.0577 106.808L44.0684 107.955L42.6179 110.305L40.6072 109.158L42.0577 106.808Z" fill="#CF6F64"/>
<path d="M45.2831 74.3481C45.2831 74.3481 52.7069 83.703 51.3123 92.6509C50.189 99.8771 43.6734 109.662 43.6734 109.662L40.6101 108.141C42.7693 103.815 44.6119 99.3372 46.1234 94.7442C46.5895 93.3182 46.7256 91.805 46.5213 90.3188C46.317 88.8325 45.7777 87.4121 44.9441 86.1648C41.1821 80.6722 35.1559 83.9418 39.2097 74.3481H45.2831Z" fill="#4CAF4F"/>
<path opacity="0.6" d="M45.2831 74.3481C45.2831 74.3481 52.7069 83.703 51.3123 92.6509C50.189 99.8771 43.6734 109.662 43.6734 109.662L40.6101 108.141C42.7693 103.815 44.6119 99.3372 46.1234 94.7442C46.5895 93.3182 46.7256 91.805 46.5213 90.3188C46.317 88.8325 45.7777 87.4121 44.9441 86.1648C41.1821 80.6722 35.1559 83.9418 39.2097 74.3481H45.2831Z" fill="black"/>
<path opacity="0.4" d="M48.9243 80.3566L47.8452 79.2834C47.8452 79.3689 49.9355 92.2735 50.5222 95.8999C50.8685 94.8405 51.1336 93.7563 51.3153 92.6568C52.0052 88.2668 50.5635 83.7825 48.9243 80.3566Z" fill="black"/>
<path d="M48.597 74.3481C48.597 74.3481 57.5361 86.1058 57.7897 93.1551C57.999 99.0516 48.0604 110.476 48.0604 110.476L45.1711 108.607C45.1711 108.607 50.988 100.493 52.4533 93.8656C51.8872 87.2969 39.9173 74.3481 39.9173 74.3481H48.597Z" fill="#4CAF4F"/>
<path opacity="0.6" d="M48.597 74.3481C48.597 74.3481 57.5361 86.1058 57.7897 93.1551C57.999 99.0516 48.0604 110.476 48.0604 110.476L45.1711 108.607C45.1711 108.607 50.988 100.493 52.4533 93.8656C51.8872 87.2969 39.9173 74.3481 39.9173 74.3481H48.597Z" fill="black"/>
<path d="M37.5381 60.3172C36.5829 60.5442 35.666 64.0172 35.666 64.0172L39.4014 66.5115C39.4014 66.5115 40.6456 63.7637 40.2092 62.5608C39.7581 61.3078 38.738 60.0312 37.5381 60.3172Z" fill="#4CAF4F"/>
<path opacity="0.2" d="M38.2692 62.5549L38.0098 65.5828L39.3984 66.5144C39.7818 65.6512 40.0657 64.7472 40.2445 63.8197L38.2692 62.5549Z" fill="black"/>
<path d="M49.7026 60.385C49.7026 60.385 50.8052 60.7713 48.597 74.3451H39.2038C39.363 70.5123 39.3659 68.1537 37.538 60.3172C38.8533 60.0462 40.1864 59.8708 41.527 59.7924C42.9472 59.6906 44.3729 59.6906 45.7932 59.7924C47.627 59.9605 49.7026 60.385 49.7026 60.385Z" fill="#4CAF4F"/>
<path d="M50.6578 62.5551C50.8701 63.1447 51.0942 63.7786 51.33 64.3889C51.5659 64.9992 51.7899 65.6272 52.0288 66.2463L52.7511 68.0978L52.9339 68.5607L53.0282 68.7906L53.0724 68.9056C53.0724 68.9263 53.0724 68.9263 53.0724 68.9233C53.0186 68.8474 52.948 68.7848 52.8661 68.7405C52.7494 68.6719 52.6179 68.6324 52.4828 68.6255C52.3705 68.622 52.2588 68.6432 52.1555 68.6875C52.0199 68.7494 52.0199 68.7759 52.0229 68.773C52.0474 68.7533 52.0692 68.7305 52.0877 68.7051C52.2509 68.4909 52.3922 68.2607 52.5093 68.0182C52.6479 67.747 52.7806 67.458 52.9132 67.1662C53.1727 66.5765 53.4115 65.9662 53.6503 65.35C53.8891 64.7338 54.1161 64.1118 54.3372 63.4838L55.0094 61.6028L56.1445 61.8976C55.9205 63.242 55.6315 64.551 55.2836 65.8837C55.1156 66.547 54.9181 67.2045 54.694 67.8678C54.5819 68.201 54.4581 68.5312 54.3166 68.8702C54.1691 69.2382 53.9875 69.5916 53.7741 69.9257C53.6957 70.0382 53.609 70.1446 53.5147 70.2441C53.3641 70.4067 53.1814 70.5363 52.9781 70.6245C52.7977 70.7019 52.6023 70.7382 52.4061 70.7306C52.1864 70.7224 51.9723 70.6585 51.7841 70.5449C51.5619 70.4062 51.3776 70.2148 51.2475 69.9876C51.2032 69.911 51.1649 69.8343 51.1384 69.7783L51.0824 69.6663L50.9703 69.4363L50.7463 68.9793C50.4514 68.3661 50.1566 67.747 49.9001 67.1249C49.6436 66.5028 49.3724 65.8719 49.1188 65.238C48.8653 64.6041 48.6383 63.9702 48.423 63.2862L50.6578 62.5551Z" fill="#E58A7B"/>
<path d="M49.7026 60.385C50.8317 60.6533 52.1024 63.9907 52.1024 63.9907L48.7444 66.8476C48.7444 66.8476 46.5715 63.2094 47.0108 62.0095C47.4678 60.7594 48.2284 60.0341 49.7026 60.385Z" fill="#4CAF4F"/>
<path d="M55.5431 60.5472L56.7224 59.5625L57.542 60.8391L56.9376 61.9034C56.9376 61.9034 55.9765 62.7879 55.1274 62.3368C54.9926 62.0339 54.9603 61.6953 55.0353 61.3723C55.1103 61.0494 55.2886 60.7597 55.5431 60.5472Z" fill="#E58A7B"/>
<path d="M58.851 59.5654L58.7625 59.8868L56.8963 60.1993L56.7135 59.5625L58.851 59.5654Z" fill="#E58A7B"/>
<path d="M48.2904 110.626L44.9235 108.45L45.5279 107.401L49.3105 109.727L48.2904 110.626Z" fill="#4CAF4F"/>
<path d="M42.5708 112.36C42.2754 112.324 41.9915 112.223 41.7394 112.065C41.729 112.062 41.7199 112.055 41.7136 112.046C41.7072 112.037 41.7037 112.026 41.7037 112.015C41.7037 112.004 41.7072 111.993 41.7136 111.984C41.7199 111.975 41.729 111.969 41.7394 111.965C41.8308 111.935 42.6238 111.691 42.8538 111.879C42.8797 111.901 42.8993 111.929 42.9107 111.961C42.9221 111.992 42.9249 112.026 42.9187 112.059C42.9146 112.112 42.897 112.164 42.8676 112.208C42.8382 112.252 42.7979 112.288 42.7506 112.313C42.6954 112.343 42.6337 112.359 42.5708 112.36ZM41.9074 112.036C42.2759 112.224 42.5708 112.292 42.7123 112.221C42.7431 112.204 42.769 112.18 42.7876 112.15C42.8062 112.12 42.8168 112.086 42.8184 112.05C42.8184 112.003 42.8184 111.983 42.7919 111.971C42.6681 111.871 42.2258 111.947 41.9015 112.036H41.9074Z" fill="#263238"/>
<path d="M41.7599 112.086C41.7444 112.086 41.7295 112.079 41.7187 112.068C41.7143 112.06 41.712 112.051 41.712 112.042C41.712 112.032 41.7143 112.023 41.7187 112.015C41.7187 111.989 41.9103 111.349 42.211 111.204C42.2494 111.187 42.2912 111.178 42.3334 111.178C42.3756 111.178 42.4173 111.187 42.4557 111.204C42.4971 111.217 42.533 111.244 42.5575 111.28C42.5821 111.316 42.594 111.359 42.5913 111.402C42.5707 111.667 42.0312 112.033 41.7835 112.095L41.7599 112.086ZM42.3319 111.281C42.3032 111.282 42.2751 111.289 42.2493 111.302C42.0666 111.39 41.9162 111.735 41.8425 111.944C42.1019 111.835 42.4587 111.546 42.4705 111.384C42.4705 111.358 42.4705 111.325 42.4027 111.296C42.3806 111.284 42.3567 111.276 42.3319 111.272V111.281Z" fill="#263238"/>
<path d="M46.7779 113.634C46.4448 113.634 45.9819 113.206 45.7283 112.944C45.7219 112.935 45.7184 112.924 45.7184 112.913C45.7184 112.902 45.7219 112.891 45.7283 112.882C45.7342 112.872 45.7424 112.865 45.7523 112.859C45.7622 112.854 45.7732 112.852 45.7844 112.852C45.9023 112.852 46.9253 113.006 47.0698 113.295C47.0851 113.321 47.0932 113.35 47.0932 113.38C47.0932 113.41 47.0851 113.44 47.0698 113.466C47.0481 113.511 47.0154 113.549 46.9747 113.578C46.9339 113.607 46.8865 113.625 46.8369 113.631L46.7779 113.634ZM45.9229 112.985C46.2944 113.345 46.6217 113.545 46.8074 113.522C46.8399 113.517 46.8709 113.505 46.8977 113.486C46.9244 113.467 46.946 113.442 46.9607 113.413C46.9673 113.402 46.9708 113.391 46.9708 113.379C46.9708 113.367 46.9673 113.355 46.9607 113.345C46.8841 113.186 46.3386 113.05 45.9229 112.985Z" fill="#263238"/>
<path d="M45.9553 112.97C45.8892 112.972 45.823 112.967 45.7578 112.956C45.7487 112.954 45.7401 112.951 45.7329 112.945C45.7256 112.939 45.72 112.932 45.7165 112.923C45.7121 112.914 45.7098 112.905 45.7098 112.895C45.7098 112.885 45.7121 112.876 45.7165 112.867C45.7342 112.847 46.1322 112.366 46.5096 112.334C46.6165 112.325 46.7223 112.359 46.8044 112.428C46.9194 112.528 46.9135 112.617 46.8841 112.673C46.8103 112.873 46.3003 112.97 45.9553 112.97ZM45.8787 112.861C46.2089 112.879 46.7366 112.77 46.8044 112.625C46.8044 112.625 46.828 112.578 46.7514 112.513C46.7209 112.487 46.6852 112.467 46.6467 112.455C46.6081 112.443 46.5675 112.438 46.5273 112.443C46.2731 112.514 46.0467 112.661 45.8787 112.864V112.861Z" fill="#263238"/>
<path d="M41.8396 111.767L39.3394 111.06C39.2963 111.047 39.25 111.05 39.2091 111.069C39.1683 111.088 39.136 111.122 39.1183 111.163L38.2751 113.059C38.2553 113.107 38.246 113.16 38.2478 113.212C38.2497 113.264 38.2625 113.316 38.2857 113.363C38.3088 113.41 38.3416 113.452 38.382 113.485C38.4223 113.518 38.4693 113.543 38.5198 113.557C39.4043 113.787 39.8289 113.852 40.9286 114.167C41.6067 114.356 42.5737 114.707 43.5083 114.972C44.4429 115.238 44.7554 114.327 44.3928 114.132C42.7535 113.265 42.6238 112.658 42.1757 112.009C42.0954 111.892 41.9765 111.806 41.8396 111.767Z" fill="#4CAF4F"/>
<path d="M45.7961 112.599L43.6616 111.125C43.6254 111.098 43.5808 111.086 43.5362 111.09C43.4917 111.095 43.4503 111.115 43.4198 111.148L42.0047 112.67C41.9702 112.709 41.9445 112.755 41.9292 112.805C41.914 112.855 41.9095 112.908 41.9162 112.96C41.9229 113.012 41.9406 113.061 41.968 113.106C41.9955 113.15 42.0321 113.189 42.0754 113.218C42.8272 113.722 43.2164 113.925 44.1569 114.577C44.7466 114.978 45.8875 115.868 46.6836 116.423C47.4796 116.977 48.0722 116.216 47.7892 115.916C46.5214 114.562 46.2443 113.713 46.0349 112.944C45.9986 112.804 45.914 112.682 45.7961 112.599Z" fill="#4CAF4F"/>
<path d="M44.0655 109.857L40.218 107.944L40.616 106.9L44.7259 108.917L44.0655 109.857Z" fill="#4CAF4F"/>
<path d="M39.0623 73.7937L38.738 74.6428C38.7055 74.7076 38.7822 74.7754 38.8913 74.7754H48.6441C48.7296 74.7754 48.8004 74.7342 48.8063 74.6811L48.8888 73.8379C48.8888 73.7819 48.821 73.7317 48.7296 73.7317H39.2156C39.1869 73.7291 39.1581 73.7333 39.1314 73.744C39.1047 73.7548 39.081 73.7718 39.0623 73.7937Z" fill="#4CAF4F"/>
<path opacity="0.4" d="M39.0623 73.7937L38.738 74.6428C38.7055 74.7076 38.7822 74.7754 38.8913 74.7754H48.6441C48.7296 74.7754 48.8004 74.7342 48.8063 74.6811L48.8888 73.8379C48.8888 73.7819 48.821 73.7317 48.7296 73.7317H39.2156C39.1869 73.7291 39.1581 73.7333 39.1314 73.744C39.1047 73.7548 39.081 73.7718 39.0623 73.7937Z" fill="white"/>
<path d="M40.5983 74.8582H40.3418C40.2917 74.8582 40.2534 74.8317 40.2563 74.7992L40.3772 73.7054C40.3772 73.6759 40.4244 73.6494 40.4745 73.6494H40.731C40.7811 73.6494 40.8194 73.6759 40.8165 73.7054L40.6956 74.7992C40.6927 74.8317 40.6484 74.8582 40.5983 74.8582Z" fill="#4CAF4F"/>
<path d="M46.6128 74.8582H46.3593C46.3092 74.8582 46.2708 74.8317 46.2738 74.7992L46.3917 73.7054C46.3917 73.6759 46.4418 73.6494 46.492 73.6494H46.7455C46.7956 73.6494 46.8369 73.6759 46.831 73.7054L46.7131 74.7992C46.6983 74.8317 46.6659 74.8582 46.6128 74.8582Z" fill="#4CAF4F"/>
<g style="mix-blend-mode:multiply">
<path d="M40.3743 124.787C44.7364 124.787 48.2727 124.531 48.2727 124.215C48.2727 123.899 44.7364 123.643 40.3743 123.643C36.0121 123.643 32.4759 123.899 32.4759 124.215C32.4759 124.531 36.0121 124.787 40.3743 124.787Z" fill="#F5F5F5"/>
</g>
<path d="M45.1859 123.407C43.7884 123 42.2376 122.479 41.3001 121.933C41.2735 121.915 41.244 121.907 41.2175 121.892V115.565H44.0449C44.2595 115.552 44.4612 115.458 44.6087 115.301C44.7561 115.145 44.8383 114.938 44.8383 114.723C44.8383 114.508 44.7561 114.301 44.6087 114.145C44.4612 113.988 44.2595 113.894 44.0449 113.881H41.2323V85.0415H39.5341V113.881H36.7244C36.6096 113.875 36.4947 113.891 36.3867 113.931C36.2787 113.97 36.1798 114.031 36.0962 114.11C36.0125 114.188 35.9459 114.283 35.9004 114.389C35.8548 114.494 35.8313 114.608 35.8313 114.723C35.8313 114.838 35.8548 114.952 35.9004 115.057C35.9459 115.163 36.0125 115.258 36.0962 115.337C36.1798 115.416 36.2787 115.476 36.3867 115.516C36.4947 115.555 36.6096 115.572 36.7244 115.565H39.5341V121.883C39.5075 121.883 39.481 121.907 39.4545 121.924C38.5022 122.479 36.9632 123 35.5657 123.398C35.4713 123.427 35.3902 123.488 35.3372 123.571C35.2841 123.655 35.2626 123.754 35.2765 123.852C35.2904 123.949 35.3388 124.039 35.413 124.104C35.4871 124.169 35.5821 124.205 35.6807 124.206H45.0709C45.1651 124.2 45.2543 124.161 45.3236 124.097C45.3928 124.033 45.4379 123.947 45.4514 123.853C45.4648 123.76 45.4458 123.664 45.3975 123.583C45.3492 123.502 45.2745 123.44 45.1859 123.407Z" fill="#E0E0E0"/>
<path d="M45.6192 82.105H35.1352C34.2918 82.105 33.608 82.7887 33.608 83.6322V86.7485C33.608 87.5919 34.2918 88.2757 35.1352 88.2757H45.6192C46.4627 88.2757 47.1464 87.5919 47.1464 86.7485V83.6322C47.1464 82.7887 46.4627 82.105 45.6192 82.105Z" fill="#4CAF4F"/>
<path d="M35.0379 88.2786V88.8152C35.0379 89.2574 35.5185 89.6171 36.1081 89.6171H44.6581C45.2477 89.6171 45.7283 89.2574 45.7283 88.8152V88.2786H35.0379Z" fill="#4CAF4F"/>
<path opacity="0.3" d="M35.0379 88.2786V88.8152C35.0379 89.2574 35.5185 89.6171 36.1081 89.6171H44.6581C45.2477 89.6171 45.7283 89.2574 45.7283 88.8152V88.2786H35.0379Z" fill="white"/>
</svg>
