<svg width="23" height="20" viewBox="0 0 23 20" fill="none" xmlns="http://www.w3.org/2000/svg">
<path d="M22.2344 13.1843C22.2344 16.5033 19.5438 19.1938 16.2248 19.1938L7.21044 19.1938C6.2885 19.1938 5.54111 18.4465 5.54111 17.5245L5.54111 6.17305C5.54111 4.32916 7.03588 2.83439 8.87978 2.83439L20.5651 2.83439C21.4871 2.83439 22.2344 3.58177 22.2344 4.50372L22.2344 13.1843Z" fill="#E8F5E9"/>
<path d="M9.51961 6.84442C9.41544 6.84442 9.33075 6.75987 9.33075 6.65556V6.33461C9.33075 6.23044 9.4153 6.14575 9.51961 6.14575C9.62378 6.14575 9.70847 6.2303 9.70847 6.33461V6.65556C9.70847 6.75987 9.62379 6.84442 9.51961 6.84442Z" fill="#103E13"/>
<path d="M8.72554 6.84442C8.62137 6.84442 8.53668 6.75987 8.53668 6.65556V6.33461C8.53668 6.23044 8.62123 6.14575 8.72554 6.14575C8.82971 6.14575 8.9144 6.2303 8.9144 6.33461V6.65556C8.91427 6.75987 8.82985 6.84442 8.72554 6.84442Z" fill="#103E13"/>
<path d="M7.9316 6.84442C7.82742 6.84442 7.74274 6.75987 7.74274 6.65556V6.33461C7.74274 6.23044 7.82729 6.14575 7.9316 6.14575C8.03577 6.14575 8.12046 6.2303 8.12046 6.33461V6.65556C8.12046 6.75987 8.03591 6.84442 7.9316 6.84442Z" fill="#103E13"/>
<path d="M9.51961 8.15704C9.41544 8.15704 9.33075 8.07249 9.33075 7.96818V7.64736C9.33075 7.54318 9.4153 7.4585 9.51961 7.4585C9.62378 7.4585 9.70847 7.54305 9.70847 7.64736V7.96818C9.70847 8.07249 9.62379 8.15704 9.51961 8.15704Z" fill="#103E13"/>
<path d="M8.72554 8.15704C8.62137 8.15704 8.53668 8.07249 8.53668 7.96818V7.64736C8.53668 7.54318 8.62123 7.4585 8.72554 7.4585C8.82971 7.4585 8.9144 7.54305 8.9144 7.64736V7.96818C8.91427 8.07249 8.82985 8.15704 8.72554 8.15704Z" fill="#103E13"/>
<path d="M7.9316 8.15704C7.82742 8.15704 7.74274 8.07249 7.74274 7.96818V7.64736C7.74274 7.54318 7.82729 7.4585 7.9316 7.4585C8.03577 7.4585 8.12046 7.54305 8.12046 7.64736V7.96818C8.12046 8.07249 8.03591 8.15704 7.9316 8.15704Z" fill="#103E13"/>
<path d="M9.51961 9.46967C9.41544 9.46967 9.33075 9.38512 9.33075 9.28081V8.95986C9.33075 8.85568 9.4153 8.771 9.51961 8.771C9.62378 8.771 9.70847 8.85555 9.70847 8.95986V9.28081C9.70847 9.38512 9.62379 9.46967 9.51961 9.46967Z" fill="#103E13"/>
<path d="M8.72554 9.46967C8.62137 9.46967 8.53668 9.38512 8.53668 9.28081V8.95986C8.53668 8.85568 8.62123 8.771 8.72554 8.771C8.82971 8.771 8.9144 8.85555 8.9144 8.95986V9.28081C8.91427 9.38512 8.82985 9.46967 8.72554 9.46967Z" fill="#103E13"/>
<path d="M7.9316 9.46967C7.82742 9.46967 7.74274 9.38512 7.74274 9.28081V8.95986C7.74274 8.85568 7.82729 8.771 7.9316 8.771C8.03577 8.771 8.12046 8.85555 8.12046 8.95986V9.28081C8.12046 9.38512 8.03591 9.46967 7.9316 9.46967Z" fill="#103E13"/>
<path d="M9.51961 10.7817C9.41544 10.7817 9.33075 10.6971 9.33075 10.5928V10.2719C9.33075 10.1677 9.4153 10.083 9.51961 10.083C9.62378 10.083 9.70847 10.1676 9.70847 10.2719V10.5928C9.70847 10.6971 9.62379 10.7817 9.51961 10.7817Z" fill="#103E13"/>
<path d="M8.72554 10.7817C8.62137 10.7817 8.53668 10.6971 8.53668 10.5928V10.2719C8.53668 10.1677 8.62123 10.083 8.72554 10.083C8.82971 10.083 8.9144 10.1676 8.9144 10.2719V10.5928C8.91427 10.6971 8.82985 10.7817 8.72554 10.7817Z" fill="#103E13"/>
<path d="M7.9316 10.7817C7.82742 10.7817 7.74274 10.6971 7.74274 10.5928V10.2719C7.74274 10.1677 7.82729 10.083 7.9316 10.083C8.03577 10.083 8.12046 10.1676 8.12046 10.2719V10.5928C8.12046 10.6971 8.03591 10.7817 7.9316 10.7817Z" fill="#103E13"/>
<path d="M9.51961 12.0943C9.41544 12.0943 9.33075 12.0097 9.33075 11.9054V11.5846C9.33075 11.4804 9.4153 11.3958 9.51961 11.3958C9.62378 11.3958 9.70847 11.4803 9.70847 11.5846V11.9054C9.70847 12.0096 9.62379 12.0943 9.51961 12.0943Z" fill="#103E13"/>
<path d="M8.72554 12.0943C8.62137 12.0943 8.53668 12.0097 8.53668 11.9054V11.5846C8.53668 11.4804 8.62123 11.3958 8.72554 11.3958C8.82971 11.3958 8.9144 11.4803 8.9144 11.5846V11.9054C8.91427 12.0096 8.82985 12.0943 8.72554 12.0943Z" fill="#103E13"/>
<path d="M7.9316 12.0943C7.82742 12.0943 7.74274 12.0097 7.74274 11.9054L7.74287 11.5846C7.74287 11.4804 7.82742 11.3958 7.93173 11.3958C8.0359 11.3958 8.12059 11.4803 8.12059 11.5846V11.9054C8.12046 12.0096 8.03591 12.0943 7.9316 12.0943Z" fill="#103E13"/>
<path d="M2.53647 13.4004C2.53647 13.5046 2.62103 13.5892 2.72533 13.5892H14.2263C14.3305 13.5892 14.4151 13.5047 14.4151 13.4004C14.4151 13.2962 14.3306 13.2115 14.2263 13.2115H13.8772V7.7891C13.8772 7.68493 13.7926 7.60024 13.6883 7.60024L10.6048 7.60037V3.69109C10.6048 3.62497 10.5703 3.56387 10.5139 3.52962C10.4577 3.49525 10.3874 3.49314 10.3289 3.52356L6.82318 5.34881C6.76062 5.38134 6.72164 5.44587 6.72164 5.51633V8.93101H3.32887C3.2247 8.93101 3.14002 9.01556 3.14002 9.11987V13.2116H2.72491C2.62074 13.2114 2.53632 13.296 2.53632 13.4003L2.53647 13.4004ZM10.6049 10.4607H13.4996V13.2117L10.6049 13.2115V10.4607ZM10.6049 9.14832H13.4996V10.0831L10.6049 10.083V9.14832ZM10.6049 7.97789H13.4996V8.77087H10.6049V7.97789ZM7.09916 5.63101L10.227 4.00239V13.2114H7.09916V5.63101ZM4.45133 11.7031C4.45133 11.3112 4.76188 10.9922 5.14368 10.9922C5.52547 10.9922 5.83615 11.311 5.83615 11.7031V13.2116H4.45133V11.7031ZM3.51772 9.30867H6.72158V13.2115H6.21387V11.7031C6.21387 11.1029 5.73396 10.6146 5.14368 10.6146C4.55366 10.6146 4.07376 11.1028 4.07376 11.7031V13.2115H3.51772V9.30867Z" fill="#103E13"/>
</svg>
