<svg width="17" height="17" viewBox="0 0 17 17" fill="none" xmlns="http://www.w3.org/2000/svg">
<path d="M14.0916 14.4074V13.0719C14.0916 12.3635 13.8102 11.6842 13.3093 11.1833C12.8084 10.6824 12.1291 10.401 11.4207 10.401H10.753C10.5759 10.401 10.406 10.3306 10.2808 10.2054C10.1556 10.0802 10.0852 9.91034 10.0852 9.73325V6.39458C10.0852 6.04039 9.94453 5.70071 9.69408 5.45026C9.44363 5.19982 9.10395 5.05912 8.74976 5.05912C8.39558 5.05912 8.05589 5.19982 7.80545 5.45026C7.555 5.70071 7.4143 6.04039 7.4143 6.39458V12.4042L5.81174 10.2674C5.68734 10.1016 5.52604 9.96695 5.3406 9.87424C5.15517 9.78152 4.95069 9.73325 4.74336 9.73325H4.45357C3.87598 9.73325 3.4079 10.2013 3.4079 10.7789C3.4079 10.9686 3.45931 11.1549 3.5568 11.3171L5.4111 14.4074M8.74976 3.05592V2.38818V3.05592ZM12.7562 7.06231H13.4239H12.7562ZM4.07563 7.06231H4.74336H4.07563ZM5.64013 3.95268L5.16804 3.48059L5.64013 3.95268ZM11.8594 3.95268L12.3315 3.48059L11.8594 3.95268Z" fill="#4CAF4F"/>
<path d="M14.0916 14.4074V13.0719C14.0916 12.3635 13.8102 11.6842 13.3093 11.1833C12.8084 10.6824 12.1291 10.401 11.4207 10.401H10.753C10.5759 10.401 10.406 10.3306 10.2808 10.2054C10.1556 10.0802 10.0852 9.91034 10.0852 9.73325V6.39458C10.0852 6.04039 9.94453 5.70071 9.69408 5.45026C9.44363 5.19982 9.10395 5.05912 8.74976 5.05912V5.05912C8.39557 5.05912 8.05589 5.19982 7.80545 5.45026C7.555 5.70071 7.4143 6.04039 7.4143 6.39458V12.4042L5.81174 10.2674C5.68734 10.1016 5.52604 9.96695 5.3406 9.87424C5.15517 9.78152 4.95069 9.73325 4.74336 9.73325H4.45357C3.87598 9.73325 3.4079 10.2013 3.4079 10.7789C3.4079 10.9686 3.45931 11.1549 3.5568 11.3171L5.4111 14.4074M8.74976 3.05592V2.38818M12.7562 7.06232H13.4239M4.07563 7.06232H4.74336M5.64013 3.95268L5.16804 3.4806M11.8594 3.95268L12.3315 3.4806" stroke="#4CAF4F" stroke-width="0.667733" stroke-linecap="round" stroke-linejoin="round"/>
</svg>
