<svg width="17" height="17" viewBox="0 0 17 17" fill="none" xmlns="http://www.w3.org/2000/svg">
<mask id="path-1-inside-1_212_1413" fill="white">
<path d="M10.3412 7.92453C10.2608 7.92453 10.1862 7.90243 10.1199 7.86688V7.86782C10.1199 7.9943 10.0707 8.11308 9.98153 8.20205C9.89233 8.29125 9.77364 8.34041 9.6473 8.34041C9.56573 8.34041 9.49014 8.31775 9.42312 8.28126C9.41636 8.39696 9.37011 8.50511 9.28759 8.58771C9.1984 8.67691 9.0797 8.72607 8.95329 8.72607C8.70212 8.72607 8.49816 8.52864 8.48346 8.28118C8.40575 8.32318 8.31789 8.34521 8.22727 8.33939C7.98019 8.32318 7.7867 8.10971 7.7867 7.85327V5.72766L7.54466 6.14698C7.45247 6.30736 7.2799 6.40694 7.0941 6.40694C7.00357 6.40694 6.91413 6.38319 6.83493 6.3378C6.73629 6.28062 6.66573 6.18883 6.63639 6.07901C6.6069 5.96912 6.62216 5.8542 6.67918 5.75572C6.67926 5.75572 7.47111 4.38446 7.51942 4.30023C7.52516 4.28757 7.54152 4.25083 7.55545 4.21953C7.56874 4.18964 7.58014 4.15896 7.59108 4.12813C7.82988 3.45396 8.42116 3.03518 9.13428 3.03518C10.0603 3.03518 10.8137 3.85211 10.8137 4.85628L10.8138 7.45188C10.8138 7.5782 10.7647 7.6969 10.6756 7.78618C10.5864 7.87538 10.4677 7.92454 10.3412 7.92454L10.3412 7.92453ZM9.13429 3.28629C8.52153 3.28629 8.03314 3.6324 7.82777 4.21211C7.81463 4.24892 7.80095 4.28573 7.78498 4.3216C7.73865 4.42551 7.73865 4.42551 7.72559 4.44045L7.72386 4.43896C7.65921 4.56096 7.46712 4.8936 6.89661 5.8814C6.87317 5.9219 6.86696 5.96894 6.87892 6.01393C6.89103 6.05893 6.92005 6.09684 6.96025 6.12004C7.085 6.1917 7.25585 6.14545 7.32695 6.02156L7.80355 5.19643C7.83202 5.14727 7.8896 5.12312 7.94482 5.13807C7.99972 5.15278 8.03787 5.20257 8.03787 5.25936V7.85334C8.03787 7.97573 8.13021 8.08137 8.24372 8.08884C8.30917 8.0923 8.37021 8.07035 8.41606 8.02458C8.45775 7.98289 8.48072 7.92735 8.48072 7.86797V6.17147C8.48072 6.10209 8.53696 6.04585 8.60634 6.04585C8.67571 6.04585 8.73196 6.10201 8.73196 6.17147L8.73188 8.25358C8.73188 8.37566 8.83122 8.475 8.9533 8.475C9.01261 8.475 9.0683 8.45203 9.11007 8.41035C9.15175 8.36858 9.17472 8.31289 9.17472 8.25358V6.17146C9.17472 6.10209 9.23088 6.04585 9.30034 6.04585C9.36972 6.04585 9.42596 6.10201 9.42596 6.17146L9.42588 7.84845V7.86796C9.42588 7.98996 9.52522 8.0893 9.64738 8.0893C9.70661 8.0893 9.76214 8.06625 9.80415 8.02441C9.84583 7.9828 9.8688 7.92726 9.8688 7.86788V6.17138C9.8688 6.102 9.92497 6.04576 9.99442 6.04576C10.0638 6.04576 10.12 6.10192 10.12 6.17138L10.1199 7.45194C10.1199 7.57409 10.2192 7.67344 10.3412 7.67344C10.4006 7.67344 10.4561 7.65039 10.4978 7.60878C10.5397 7.56694 10.5626 7.51125 10.5626 7.45194L10.5626 4.85634C10.5626 3.99071 9.9219 3.28632 9.13428 3.28632L9.13429 3.28629Z"/>
</mask>
<path d="M10.3412 7.92453C10.2608 7.92453 10.1862 7.90243 10.1199 7.86688V7.86782C10.1199 7.9943 10.0707 8.11308 9.98153 8.20205C9.89233 8.29125 9.77364 8.34041 9.6473 8.34041C9.56573 8.34041 9.49014 8.31775 9.42312 8.28126C9.41636 8.39696 9.37011 8.50511 9.28759 8.58771C9.1984 8.67691 9.0797 8.72607 8.95329 8.72607C8.70212 8.72607 8.49816 8.52864 8.48346 8.28118C8.40575 8.32318 8.31789 8.34521 8.22727 8.33939C7.98019 8.32318 7.7867 8.10971 7.7867 7.85327V5.72766L7.54466 6.14698C7.45247 6.30736 7.2799 6.40694 7.0941 6.40694C7.00357 6.40694 6.91413 6.38319 6.83493 6.3378C6.73629 6.28062 6.66573 6.18883 6.63639 6.07901C6.6069 5.96912 6.62216 5.8542 6.67918 5.75572C6.67926 5.75572 7.47111 4.38446 7.51942 4.30023C7.52516 4.28757 7.54152 4.25083 7.55545 4.21953C7.56874 4.18964 7.58014 4.15896 7.59108 4.12813C7.82988 3.45396 8.42116 3.03518 9.13428 3.03518C10.0603 3.03518 10.8137 3.85211 10.8137 4.85628L10.8138 7.45188C10.8138 7.5782 10.7647 7.6969 10.6756 7.78618C10.5864 7.87538 10.4677 7.92454 10.3412 7.92454L10.3412 7.92453ZM9.13429 3.28629C8.52153 3.28629 8.03314 3.6324 7.82777 4.21211C7.81463 4.24892 7.80095 4.28573 7.78498 4.3216C7.73865 4.42551 7.73865 4.42551 7.72559 4.44045L7.72386 4.43896C7.65921 4.56096 7.46712 4.8936 6.89661 5.8814C6.87317 5.9219 6.86696 5.96894 6.87892 6.01393C6.89103 6.05893 6.92005 6.09684 6.96025 6.12004C7.085 6.1917 7.25585 6.14545 7.32695 6.02156L7.80355 5.19643C7.83202 5.14727 7.8896 5.12312 7.94482 5.13807C7.99972 5.15278 8.03787 5.20257 8.03787 5.25936V7.85334C8.03787 7.97573 8.13021 8.08137 8.24372 8.08884C8.30917 8.0923 8.37021 8.07035 8.41606 8.02458C8.45775 7.98289 8.48072 7.92735 8.48072 7.86797V6.17147C8.48072 6.10209 8.53696 6.04585 8.60634 6.04585C8.67571 6.04585 8.73196 6.10201 8.73196 6.17147L8.73188 8.25358C8.73188 8.37566 8.83122 8.475 8.9533 8.475C9.01261 8.475 9.0683 8.45203 9.11007 8.41035C9.15175 8.36858 9.17472 8.31289 9.17472 8.25358V6.17146C9.17472 6.10209 9.23088 6.04585 9.30034 6.04585C9.36972 6.04585 9.42596 6.10201 9.42596 6.17146L9.42588 7.84845V7.86796C9.42588 7.98996 9.52522 8.0893 9.64738 8.0893C9.70661 8.0893 9.76214 8.06625 9.80415 8.02441C9.84583 7.9828 9.8688 7.92726 9.8688 7.86788V6.17138C9.8688 6.102 9.92497 6.04576 9.99442 6.04576C10.0638 6.04576 10.12 6.10192 10.12 6.17138L10.1199 7.45194C10.1199 7.57409 10.2192 7.67344 10.3412 7.67344C10.4006 7.67344 10.4561 7.65039 10.4978 7.60878C10.5397 7.56694 10.5626 7.51125 10.5626 7.45194L10.5626 4.85634C10.5626 3.99071 9.9219 3.28632 9.13428 3.28632L9.13429 3.28629Z" fill="#4CAF4F"/>
<path d="M10.3412 7.92453V7.47938H11.914L10.5745 8.30365L10.3412 7.92453ZM10.1199 7.86688H9.67473V7.12307L10.3302 7.47456L10.1199 7.86688ZM9.98153 8.20205L9.66676 7.88728L9.66717 7.88686L9.98153 8.20205ZM9.42312 8.28126L8.97873 8.25528L9.01969 7.55467L9.63602 7.89031L9.42312 8.28126ZM9.28759 8.58771L9.60253 8.90232L9.60237 8.90249L9.28759 8.58771ZM8.48346 8.28118L8.2718 7.88956L8.88641 7.55738L8.92783 8.25478L8.48346 8.28118ZM8.22727 8.33939L8.19873 8.78363L8.19813 8.78359L8.22727 8.33939ZM7.7867 5.72766L7.40116 5.50512L8.23185 4.06599V5.72766H7.7867ZM7.54466 6.14698L7.15871 5.92514L7.15912 5.92444L7.54466 6.14698ZM6.83493 6.3378L6.61361 6.72405L6.61166 6.72292L6.83493 6.3378ZM6.63639 6.07901L7.06633 5.9636L7.06646 5.9641L6.63639 6.07901ZM6.67918 5.75572L6.29395 5.53265L6.42255 5.31056H6.67918V5.75572ZM7.51942 4.30023L7.92484 4.48406L7.9161 4.50333L7.90557 4.52169L7.51942 4.30023ZM7.55545 4.21953L7.1487 4.03864L7.1487 4.03863L7.55545 4.21953ZM7.59108 4.12813L8.01069 4.27676L8.01064 4.27688L7.59108 4.12813ZM10.8137 4.85628L10.3685 4.85629V4.85628H10.8137ZM10.8138 7.45188L11.2589 7.45186V7.45188H10.8138ZM10.6756 7.78618L10.9906 8.10067L10.9904 8.10096L10.6756 7.78618ZM10.3412 7.92454V8.3697H8.76846L10.1079 7.54542L10.3412 7.92454ZM9.13429 3.28629V2.84114H9.72444L9.56231 3.40858L9.13429 3.28629ZM7.82777 4.21211L8.24737 4.36076L8.24703 4.36172L7.82777 4.21211ZM7.78498 4.3216L8.19166 4.50264L8.19155 4.50288L7.78498 4.3216ZM7.72559 4.44045L8.06082 4.73335L7.7696 5.06665L7.43463 4.77735L7.72559 4.44045ZM7.72386 4.43896L7.33053 4.2305L7.59209 3.73697L8.01482 4.10205L7.72386 4.43896ZM6.89661 5.8814L7.2821 6.10403L7.28191 6.10435L6.89661 5.8814ZM6.87892 6.01393L6.44906 6.12966L6.44869 6.12827L6.87892 6.01393ZM6.96025 6.12004L6.73852 6.50605L6.73769 6.50557L6.96025 6.12004ZM7.32695 6.02156L6.94087 5.79998L6.94148 5.79892L7.32695 6.02156ZM7.80355 5.19643L7.41807 4.97378L7.41834 4.97331L7.80355 5.19643ZM7.94482 5.13807L7.82962 5.56806L7.82852 5.56776L7.94482 5.13807ZM8.24372 8.08884L8.22021 8.53341L8.21449 8.53303L8.24372 8.08884ZM8.41606 8.02458L8.73084 8.33935L8.73056 8.33962L8.41606 8.02458ZM8.73196 6.17147H9.17711V6.17148L8.73196 6.17147ZM8.73188 8.25358H8.28672V8.25356L8.73188 8.25358ZM9.11007 8.41035L9.42513 8.72482L9.42453 8.72542L9.11007 8.41035ZM9.42596 6.17146H9.87111V6.17148L9.42596 6.17146ZM9.42588 7.84845H8.98072V7.84843L9.42588 7.84845ZM9.80415 8.02441L10.1186 8.33948L10.1183 8.33977L9.80415 8.02441ZM10.12 6.17138H10.5652V6.17143L10.12 6.17138ZM10.1199 7.45194H9.67473L9.67473 7.45188L10.1199 7.45194ZM10.4978 7.60878L10.8126 7.92356L10.8123 7.92385L10.4978 7.60878ZM10.5626 7.45194H10.1174V7.45192L10.5626 7.45194ZM10.5626 4.85634H11.0078V4.85635L10.5626 4.85634ZM9.13428 3.28632V3.73147H8.54412L8.70625 3.16402L9.13428 3.28632ZM10.3412 8.36969C10.1773 8.36969 10.031 8.32431 9.90953 8.25919L10.3302 7.47456C10.336 7.47765 10.3396 7.47882 10.3411 7.47922C10.3423 7.47955 10.3422 7.47938 10.3412 7.47938V8.36969ZM10.565 7.86688V7.86782H9.67473V7.86688H10.565ZM10.565 7.86782C10.565 8.112 10.4692 8.34435 10.2959 8.51724L9.66717 7.88686C9.67035 7.88369 9.67193 7.88096 9.67285 7.87874C9.67377 7.87651 9.67473 7.87309 9.67473 7.86782H10.565ZM10.2963 8.51682C10.1235 8.68957 9.8916 8.78556 9.6473 8.78556V7.89525C9.65241 7.89525 9.65577 7.89432 9.65805 7.89338C9.66033 7.89244 9.66328 7.89075 9.66676 7.88728L10.2963 8.51682ZM9.6473 8.78556C9.48125 8.78556 9.33308 8.7391 9.21022 8.6722L9.63602 7.89031C9.64182 7.89347 9.64549 7.89467 9.64695 7.89507C9.6482 7.89541 9.6481 7.89525 9.6473 7.89525V8.78556ZM9.86752 8.30724C9.85471 8.52635 9.76582 8.73886 9.60253 8.90232L8.97266 8.27311C8.97431 8.27145 8.97527 8.26999 8.97607 8.26815C8.97695 8.26615 8.97833 8.26207 8.97873 8.25528L9.86752 8.30724ZM9.60237 8.90249C9.42958 9.07527 9.19763 9.17123 8.95329 9.17123V8.28092C8.95847 8.28092 8.96186 8.27998 8.96413 8.27904C8.96641 8.27809 8.96935 8.27642 8.97282 8.27294L9.60237 8.90249ZM8.95329 9.17123C8.46184 9.17123 8.06748 8.78552 8.03909 8.30757L8.92783 8.25478C8.92828 8.26235 8.93138 8.269 8.93686 8.27422C8.93954 8.27677 8.94225 8.27841 8.9446 8.27937C8.94668 8.28022 8.94931 8.28092 8.95329 8.28092V9.17123ZM8.69512 8.6728C8.55133 8.75051 8.38085 8.79532 8.19873 8.78362L8.2558 7.89515C8.25581 7.89515 8.25676 7.89524 8.25911 7.89469C8.26162 7.89411 8.26597 7.89271 8.2718 7.88956L8.69512 8.6728ZM8.19813 8.78359C7.70386 8.75117 7.34154 8.33084 7.34154 7.85327H8.23185C8.23185 7.86832 8.23732 7.87991 8.24417 7.88747C8.25084 7.89483 8.25538 7.89512 8.2564 7.89518L8.19813 8.78359ZM7.34154 7.85327V5.72766H8.23185V7.85327H7.34154ZM8.17224 5.9502L7.9302 6.36952L7.15912 5.92444L7.40116 5.50512L8.17224 5.9502ZM7.9306 6.36882C7.75859 6.66808 7.43841 6.8521 7.0941 6.8521V5.96179C7.1214 5.96179 7.14635 5.94665 7.15872 5.92514L7.9306 6.36882ZM7.0941 6.8521C6.92576 6.8521 6.76005 6.80796 6.61361 6.72404L7.05624 5.95156C7.06822 5.95842 7.08137 5.96179 7.0941 5.96179V6.8521ZM6.61166 6.72292C6.4118 6.60705 6.26633 6.41849 6.20632 6.19392L7.06646 5.9641C7.06606 5.96258 7.06495 5.9599 7.0628 5.9571C7.06067 5.95433 7.05871 5.95298 7.05819 5.95269L6.61166 6.72292ZM6.20646 6.19442C6.14622 5.97001 6.17776 5.73332 6.29395 5.53265L7.06442 5.97878C7.06505 5.97769 7.06616 5.97515 7.06664 5.97155C7.06712 5.96794 7.06672 5.96506 7.06633 5.9636L6.20646 6.19442ZM6.67918 5.31056C6.46082 5.3678 6.29737 5.52684 6.29615 5.52889C6.29574 5.52958 6.29514 5.53061 6.29495 5.53094C6.29483 5.53113 6.29464 5.53146 6.29458 5.53156C6.29454 5.53163 6.29446 5.53177 6.29444 5.53181C6.29438 5.53191 6.2944 5.53188 6.29456 5.53159C6.29487 5.53107 6.29537 5.53019 6.29611 5.52891C6.29758 5.52639 6.29977 5.52259 6.30267 5.51756C6.30847 5.50754 6.31699 5.49279 6.32786 5.47397C6.3496 5.43633 6.38072 5.38245 6.41822 5.31752C6.49321 5.18766 6.5937 5.01363 6.6957 4.83698C6.90004 4.48306 7.10953 4.12014 7.13326 4.07876L7.90557 4.52169C7.881 4.56455 7.67041 4.92937 7.46673 5.28214C7.36471 5.45883 7.26421 5.63288 7.1892 5.76277C7.15169 5.82771 7.12056 5.88162 7.09879 5.91929C7.08791 5.93813 7.07936 5.95293 7.07353 5.96303C7.07061 5.96807 7.06835 5.97198 7.06681 5.97465C7.06605 5.97597 7.06542 5.97706 7.06496 5.97785C7.06474 5.97822 7.06447 5.97869 7.06422 5.97913C7.06412 5.97929 7.06384 5.97978 7.06349 5.98037C7.06328 5.98074 7.06265 5.9818 7.06224 5.98251C7.061 5.98458 6.89755 6.14363 6.67918 6.20087V5.31056ZM7.11399 4.1164C7.11889 4.10559 7.13442 4.07075 7.1487 4.03864L7.96219 4.40041C7.94863 4.43092 7.93143 4.46954 7.92484 4.48406L7.11399 4.1164ZM7.1487 4.03863C7.15489 4.02472 7.16173 4.00695 7.17151 3.97937L8.01064 4.27688C7.99855 4.31097 7.98259 4.35455 7.96219 4.40042L7.1487 4.03863ZM7.17147 3.9795C7.47297 3.12831 8.23185 2.59002 9.13428 2.59002V3.48033C8.61048 3.48033 8.18678 3.7796 8.01069 4.27676L7.17147 3.9795ZM9.13428 2.59002C10.3394 2.59002 11.2589 3.64089 11.2589 4.85628H10.3685C10.3685 4.06333 9.78121 3.48033 9.13428 3.48033V2.59002ZM11.2589 4.85627L11.2589 7.45186L10.3686 7.45189L10.3685 4.85629L11.2589 4.85627ZM11.2589 7.45188C11.2589 7.69599 11.1632 7.92783 10.9906 8.10067L10.3605 7.4717C10.364 7.46818 10.3658 7.46518 10.3667 7.46284C10.3677 7.4605 10.3686 7.45707 10.3686 7.45188H11.2589ZM10.9904 8.10096C10.8175 8.27376 10.5856 8.3697 10.3412 8.3697V7.47939C10.3464 7.47939 10.3499 7.47844 10.3521 7.4775C10.3544 7.47656 10.3573 7.47488 10.3608 7.47141L10.9904 8.10096ZM10.1079 7.54542L10.1079 7.54541L10.5745 8.30365L10.5745 8.30366L10.1079 7.54542ZM9.13429 3.73145C8.71104 3.73145 8.39011 3.95786 8.24737 4.36076L7.40817 4.06346C7.67618 3.30694 8.33202 2.84114 9.13429 2.84114V3.73145ZM8.24703 4.36172C8.23298 4.40109 8.21472 4.45083 8.19166 4.50264L7.3783 4.14055C7.38717 4.12063 7.39629 4.09674 7.40851 4.0625L8.24703 4.36172ZM8.19155 4.50288C8.17117 4.5486 8.15409 4.58721 8.14102 4.61336C8.13291 4.6296 8.11978 4.65461 8.10073 4.68232C8.08144 4.7104 8.06237 4.73157 8.06082 4.73335L7.39037 4.14755C7.39141 4.14636 7.39107 4.14675 7.39054 4.14736C7.38986 4.14815 7.38814 4.15017 7.38587 4.15293C7.38079 4.15911 7.37416 4.16763 7.367 4.17805C7.35307 4.19831 7.34529 4.21403 7.3446 4.21541C7.34409 4.21642 7.34441 4.21583 7.34592 4.21259C7.34739 4.20945 7.34946 4.20493 7.35244 4.19835C7.35852 4.18491 7.36661 4.16679 7.37841 4.14032L8.19155 4.50288ZM7.43463 4.77735L7.4329 4.77586L8.01482 4.10205L8.01655 4.10355L7.43463 4.77735ZM8.11719 4.64741C8.04752 4.77887 7.84862 5.12313 7.2821 6.10403L6.51113 5.65876C7.08562 4.66407 7.27089 4.34304 7.33053 4.2305L8.11719 4.64741ZM7.28191 6.10435C7.31753 6.0428 7.32746 5.96853 7.30914 5.8996L6.44869 6.12827C6.40646 5.96935 6.42882 5.80101 6.51132 5.65844L7.28191 6.10435ZM7.30876 5.89821C7.29045 5.83017 7.24543 5.77066 7.18281 5.73451L6.73769 6.50557C6.59468 6.42302 6.49161 6.28768 6.44907 6.12966L7.30876 5.89821ZM7.18197 5.73404C7.1313 5.70493 7.08202 5.70512 7.04799 5.71428C7.01409 5.72341 6.97062 5.74813 6.94087 5.79998L7.71304 6.24315C7.51903 6.58118 7.07565 6.6997 6.73853 6.50605L7.18197 5.73404ZM6.94148 5.79892L7.41807 4.97378L8.18902 5.41908L7.71243 6.24421L6.94148 5.79892ZM7.41834 4.97331C7.54692 4.75133 7.80937 4.64023 8.06112 4.70837L7.82852 5.56776C7.96983 5.60601 8.11712 5.54321 8.18875 5.41955L7.41834 4.97331ZM8.06001 4.70807C8.30975 4.77498 8.48302 5.0013 8.48302 5.25936H7.59271C7.59271 5.40383 7.68969 5.53057 7.82962 5.56806L8.06001 4.70807ZM8.48302 5.25936V7.85334H7.59271V5.25936H8.48302ZM8.48302 7.85334C8.48302 7.80262 8.46423 7.7565 8.43338 7.72121C8.40258 7.68597 8.34823 7.6496 8.27296 7.64464L8.21449 8.53303C7.83975 8.50837 7.59271 8.18194 7.59271 7.85334H8.48302ZM8.26723 7.6443C8.21464 7.64152 8.15039 7.66079 8.10157 7.70953L8.73056 8.33962C8.59002 8.47992 8.40369 8.54308 8.22021 8.53337L8.26723 7.6443ZM8.10129 7.7098C8.05905 7.75205 8.03557 7.80993 8.03557 7.86797H8.92588C8.92588 8.04478 8.85646 8.21372 8.73084 8.33935L8.10129 7.7098ZM8.03557 7.86797V6.17147H8.92588V7.86797H8.03557ZM8.03557 6.17147C8.03557 5.85624 8.29111 5.60069 8.60634 5.60069V6.491C8.78281 6.491 8.92588 6.34794 8.92588 6.17147H8.03557ZM8.60634 5.60069C8.92139 5.60069 9.17711 5.85598 9.17711 6.17147H8.2868C8.2868 6.34804 8.43004 6.491 8.60634 6.491V5.60069ZM9.17711 6.17148L9.17703 8.2536L8.28672 8.25356L8.2868 6.17145L9.17711 6.17148ZM9.17703 8.25358C9.17703 8.1298 9.07707 8.02985 8.9533 8.02985V8.92016C8.58537 8.92016 8.28672 8.62151 8.28672 8.25358H9.17703ZM8.9533 8.02985C8.89536 8.02985 8.83776 8.05319 8.7956 8.09527L9.42453 8.72542C9.29884 8.85088 9.12985 8.92016 8.9533 8.92016V8.02985ZM8.795 8.09587C8.75291 8.13804 8.72957 8.19565 8.72957 8.25358H9.61988C9.61988 8.43013 9.5506 8.59912 9.42513 8.72482L8.795 8.09587ZM8.72957 8.25358V6.17146H9.61988V8.25358H8.72957ZM8.72957 6.17146C8.72957 5.85642 8.98485 5.60069 9.30034 5.60069V6.491C9.47692 6.491 9.61988 6.34776 9.61988 6.17146H8.72957ZM9.30034 5.60069C9.61539 5.60069 9.87111 5.85598 9.87111 6.17146H8.9808C8.9808 6.34804 9.12404 6.491 9.30034 6.491V5.60069ZM9.87111 6.17148L9.87103 7.84847L8.98072 7.84843L8.9808 6.17144L9.87111 6.17148ZM9.87103 7.84845V7.86796H8.98072V7.84845H9.87103ZM9.87103 7.86796C9.87103 7.74389 9.77086 7.64414 9.64738 7.64414V8.53446C9.27959 8.53446 8.98072 8.23603 8.98072 7.86796H9.87103ZM9.64738 7.64414C9.58823 7.64414 9.53096 7.6682 9.48996 7.70905L10.1183 8.33977C9.99332 8.46431 9.82499 8.53446 9.64738 8.53446V7.64414ZM9.48967 7.70934C9.44709 7.75184 9.42365 7.80992 9.42365 7.86788H10.314C10.314 8.04461 10.2446 8.21375 10.1186 8.33948L9.48967 7.70934ZM9.42365 7.86788V6.17138H10.314V7.86788H9.42365ZM9.42365 6.17138C9.42365 5.85633 9.67893 5.6006 9.99442 5.6006V6.49091C10.171 6.49091 10.314 6.34767 10.314 6.17138H9.42365ZM9.99442 5.6006C10.3095 5.6006 10.5652 5.85589 10.5652 6.17138H9.67488C9.67488 6.34795 9.81813 6.49091 9.99442 6.49091V5.6006ZM10.5652 6.17143L10.565 7.45199L9.67473 7.45188L9.67488 6.17132L10.5652 6.17143ZM10.565 7.45194C10.565 7.32845 10.4653 7.22828 10.3412 7.22828V8.11859C9.97316 8.11859 9.67473 7.81974 9.67473 7.45194H10.565ZM10.3412 7.22828C10.2828 7.22828 10.2252 7.25193 10.1834 7.29371L10.8123 7.92385C10.6871 8.04886 10.5184 8.11859 10.3412 8.11859V7.22828ZM10.1831 7.29401C10.1407 7.3364 10.1174 7.39425 10.1174 7.45194H11.0077C11.0077 7.62824 10.9387 7.79748 10.8126 7.92356L10.1831 7.29401ZM10.1174 7.45192L10.1175 4.85633L11.0078 4.85635L11.0077 7.45195L10.1174 7.45192ZM10.1175 4.85634C10.1175 4.196 9.63735 3.73147 9.13428 3.73147V2.84116C10.2064 2.84116 11.0078 3.78543 11.0078 4.85634H10.1175ZM8.70625 3.16402L8.70626 3.164L9.56231 3.40858L9.56231 3.40861L8.70625 3.16402Z" fill="#4CAF4F" mask="url(#path-1-inside-1_212_1413)"/>
<mask id="path-3-inside-2_212_1413" fill="white">
<path d="M5.40581 9.72863L7.22863 8.63512C7.4484 8.50313 7.73118 8.55922 7.87213 8.76286C7.92357 8.83704 7.94985 8.92348 7.95394 9.01151C8.0219 8.97603 8.09584 8.95676 8.17111 8.95676C8.20965 8.95676 8.24835 8.96156 8.28658 8.97108C8.40905 9.00167 8.51225 9.07821 8.57715 9.18644C8.64212 9.29483 8.66108 9.42185 8.63048 9.54418C8.60224 9.65737 8.53341 9.75263 8.43769 9.818C8.50463 9.85748 8.56236 9.91136 8.60342 9.97996C8.66839 10.0883 8.68735 10.2153 8.65683 10.3378C8.62623 10.4601 8.5497 10.5633 8.44131 10.6284L8.44068 10.6287C8.50644 10.6682 8.56315 10.7215 8.60374 10.789C8.66879 10.8974 8.68775 11.0245 8.65715 11.1469C8.62647 11.2693 8.54994 11.3725 8.44171 11.4375L6.21602 12.7727C5.80062 13.0218 5.32041 13.1078 4.86403 13.0146C4.40357 12.9205 4.02223 12.6559 3.79035 12.2693C3.42341 11.6578 3.4784 10.9352 3.93359 10.3837C3.95444 10.3586 3.97497 10.3329 3.99361 10.3063C4.01335 10.2782 4.0364 10.2452 4.04426 10.2339C4.09138 10.1497 4.8602 8.76453 4.86011 8.7647C4.93775 8.62461 5.08327 8.54531 5.23334 8.54539C5.30335 8.54539 5.37438 8.56262 5.43991 8.59896C5.51904 8.64316 5.5855 8.70758 5.63199 8.78522C5.72756 8.9445 5.73094 9.14383 5.64096 9.30514L5.40581 9.72863ZM5.41675 8.91435C5.39236 8.87369 5.35885 8.84128 5.31787 8.81831C5.23316 8.77143 5.1265 8.80195 5.07986 8.88635C4.52973 9.87745 4.3422 10.2152 4.26983 10.3354L4.27148 10.3358C4.26542 10.3559 4.26542 10.3559 4.19919 10.4505C4.1767 10.4826 4.15223 10.5133 4.1273 10.5436C3.73589 11.0178 3.69044 11.6146 4.00561 12.1401C4.20084 12.4656 4.52351 12.6888 4.91419 12.7685C5.30913 12.8488 5.72539 12.7741 6.08668 12.5573L8.31257 11.222C8.36338 11.1916 8.39925 11.1432 8.41357 11.0859C8.42788 11.0286 8.419 10.9691 8.38848 10.9183C8.32571 10.8136 8.18939 10.7793 8.08478 10.8423L6.98671 11.501C6.92725 11.5368 6.85 11.5176 6.81437 11.458C6.77866 11.3986 6.79793 11.3214 6.8574 11.2857L7.95554 10.6269L8.31218 10.413C8.36299 10.3824 8.39894 10.3341 8.41326 10.2769C8.42757 10.2195 8.41868 10.1599 8.38816 10.1092C8.32532 10.0045 8.189 9.97044 8.08447 10.0332L6.62968 10.9059C6.57006 10.9417 6.49305 10.9224 6.45734 10.8629C6.42163 10.8034 6.44098 10.7263 6.50037 10.6906L8.28583 9.61947C8.33665 9.58895 8.37251 9.54066 8.38683 9.48332C8.40114 9.42605 8.39226 9.36651 8.36182 9.3157C8.33138 9.26496 8.283 9.22909 8.22566 9.21478C8.168 9.20046 8.10869 9.20935 8.05804 9.23971L7.72752 9.43801C7.72744 9.43801 7.72744 9.43809 7.72736 9.43809H7.72728L6.27258 10.3108C6.21296 10.3467 6.13587 10.3273 6.10024 10.2678C6.06453 10.2083 6.08388 10.1312 6.14327 10.0954L7.59805 9.22272C7.64886 9.19221 7.68481 9.14383 7.69912 9.08665C7.71485 9.02388 7.7029 8.95969 7.66561 8.90589C7.60096 8.81236 7.46268 8.78751 7.35783 8.85051L5.13355 10.1849C5.08486 10.214 5.02248 10.2069 4.98166 10.1675C4.94076 10.128 4.93155 10.0659 4.95908 10.0163L5.4216 9.18301C5.46801 9.09971 5.4662 8.99682 5.41672 8.91438L5.41675 8.91435Z"/>
</mask>
<path d="M5.40581 9.72863L7.22863 8.63512C7.4484 8.50313 7.73118 8.55922 7.87213 8.76286C7.92357 8.83704 7.94985 8.92348 7.95394 9.01151C8.0219 8.97603 8.09584 8.95676 8.17111 8.95676C8.20965 8.95676 8.24835 8.96156 8.28658 8.97108C8.40905 9.00167 8.51225 9.07821 8.57715 9.18644C8.64212 9.29483 8.66108 9.42185 8.63048 9.54418C8.60224 9.65737 8.53341 9.75263 8.43769 9.818C8.50463 9.85748 8.56236 9.91136 8.60342 9.97996C8.66839 10.0883 8.68735 10.2153 8.65683 10.3378C8.62623 10.4601 8.5497 10.5633 8.44131 10.6284L8.44068 10.6287C8.50644 10.6682 8.56315 10.7215 8.60374 10.789C8.66879 10.8974 8.68775 11.0245 8.65715 11.1469C8.62647 11.2693 8.54994 11.3725 8.44171 11.4375L6.21602 12.7727C5.80062 13.0218 5.32041 13.1078 4.86403 13.0146C4.40357 12.9205 4.02223 12.6559 3.79035 12.2693C3.42341 11.6578 3.4784 10.9352 3.93359 10.3837C3.95444 10.3586 3.97497 10.3329 3.99361 10.3063C4.01335 10.2782 4.0364 10.2452 4.04426 10.2339C4.09138 10.1497 4.8602 8.76453 4.86011 8.7647C4.93775 8.62461 5.08327 8.54531 5.23334 8.54539C5.30335 8.54539 5.37438 8.56262 5.43991 8.59896C5.51904 8.64316 5.5855 8.70758 5.63199 8.78522C5.72756 8.9445 5.73094 9.14383 5.64096 9.30514L5.40581 9.72863ZM5.41675 8.91435C5.39236 8.87369 5.35885 8.84128 5.31787 8.81831C5.23316 8.77143 5.1265 8.80195 5.07986 8.88635C4.52973 9.87745 4.3422 10.2152 4.26983 10.3354L4.27148 10.3358C4.26542 10.3559 4.26542 10.3559 4.19919 10.4505C4.1767 10.4826 4.15223 10.5133 4.1273 10.5436C3.73589 11.0178 3.69044 11.6146 4.00561 12.1401C4.20084 12.4656 4.52351 12.6888 4.91419 12.7685C5.30913 12.8488 5.72539 12.7741 6.08668 12.5573L8.31257 11.222C8.36338 11.1916 8.39925 11.1432 8.41357 11.0859C8.42788 11.0286 8.419 10.9691 8.38848 10.9183C8.32571 10.8136 8.18939 10.7793 8.08478 10.8423L6.98671 11.501C6.92725 11.5368 6.85 11.5176 6.81437 11.458C6.77866 11.3986 6.79793 11.3214 6.8574 11.2857L7.95554 10.6269L8.31218 10.413C8.36299 10.3824 8.39894 10.3341 8.41326 10.2769C8.42757 10.2195 8.41868 10.1599 8.38816 10.1092C8.32532 10.0045 8.189 9.97044 8.08447 10.0332L6.62968 10.9059C6.57006 10.9417 6.49305 10.9224 6.45734 10.8629C6.42163 10.8034 6.44098 10.7263 6.50037 10.6906L8.28583 9.61947C8.33665 9.58895 8.37251 9.54066 8.38683 9.48332C8.40114 9.42605 8.39226 9.36651 8.36182 9.3157C8.33138 9.26496 8.283 9.22909 8.22566 9.21478C8.168 9.20046 8.10869 9.20935 8.05804 9.23971L7.72752 9.43801C7.72744 9.43801 7.72744 9.43809 7.72736 9.43809H7.72728L6.27258 10.3108C6.21296 10.3467 6.13587 10.3273 6.10024 10.2678C6.06453 10.2083 6.08388 10.1312 6.14327 10.0954L7.59805 9.22272C7.64886 9.19221 7.68481 9.14383 7.69912 9.08665C7.71485 9.02388 7.7029 8.95969 7.66561 8.90589C7.60096 8.81236 7.46268 8.78751 7.35783 8.85051L5.13355 10.1849C5.08486 10.214 5.02248 10.2069 4.98166 10.1675C4.94076 10.128 4.93155 10.0659 4.95908 10.0163L5.4216 9.18301C5.46801 9.09971 5.4662 8.99682 5.41672 8.91438L5.41675 8.91435Z" fill="#4CAF4F"/>
<path d="M5.40581 9.72863L5.63482 10.1104L4.21012 10.965L5.01663 9.51254L5.40581 9.72863ZM7.22863 8.63512L7.45782 9.01674L7.45763 9.01685L7.22863 8.63512ZM7.87213 8.76286L7.50634 9.01655L7.5061 9.01621L7.87213 8.76286ZM7.95394 9.01151L8.15993 9.40614L7.54163 9.72888L7.50926 9.03217L7.95394 9.01151ZM8.28658 8.97108L8.39413 8.53911L8.39448 8.5392L8.28658 8.97108ZM8.57715 9.18644L8.95892 8.9575L8.95896 8.95757L8.57715 9.18644ZM8.63048 9.54418L8.19856 9.43643L8.19863 9.43616L8.63048 9.54418ZM8.43769 9.818L8.21151 10.2014L7.60806 9.84545L8.18667 9.45037L8.43769 9.818ZM8.60342 9.97996L8.22161 10.2088L8.22147 10.2086L8.60342 9.97996ZM8.65683 10.3378L9.08877 10.4454L9.08868 10.4458L8.65683 10.3378ZM8.44131 10.6284L8.20534 10.2508L8.21221 10.2467L8.44131 10.6284ZM8.44068 10.6287L8.21185 11.0106L7.588 10.6367L8.20475 10.2513L8.44068 10.6287ZM8.60374 10.789L8.98533 10.5598L8.98543 10.56L8.60374 10.789ZM8.65715 11.1469L9.08903 11.2548L9.08895 11.2552L8.65715 11.1469ZM8.44171 11.4375L8.67085 11.8192L8.67071 11.8192L8.44171 11.4375ZM6.21602 12.7727L6.44503 13.1545L6.44496 13.1545L6.21602 12.7727ZM4.86403 13.0146L4.77495 13.4508L4.77493 13.4508L4.86403 13.0146ZM3.79035 12.2693L4.17207 12.0403L4.17209 12.0403L3.79035 12.2693ZM3.93359 10.3837L3.59028 10.1003L3.59074 10.0998L3.93359 10.3837ZM3.99361 10.3063L3.62912 10.0508L3.62945 10.0503L3.99361 10.3063ZM4.04426 10.2339L4.4327 10.4513L4.42218 10.4701L4.40991 10.4878L4.04426 10.2339ZM4.86011 8.7647L5.24948 8.98048L4.46196 8.56562L4.86011 8.7647ZM5.23334 8.54539V8.99054H5.23311L5.23334 8.54539ZM5.43991 8.59896L5.65581 8.20966L5.65701 8.21033L5.43991 8.59896ZM5.63199 8.78522L5.25027 9.01425L5.25007 9.01391L5.63199 8.78522ZM5.64096 9.30514L5.25177 9.08905L5.2522 9.08828L5.64096 9.30514ZM5.41675 8.91435L5.79853 8.68543L5.95293 8.94293L5.77203 9.18256L5.41675 8.91435ZM5.31787 8.81831L5.53342 8.42881L5.53551 8.42998L5.31787 8.81831ZM5.07986 8.88635L5.46949 9.10165L5.46907 9.10239L5.07986 8.88635ZM4.26983 10.3354L4.16672 10.7684L3.57438 10.6274L3.88847 10.1058L4.26983 10.3354ZM4.27148 10.3358L4.37459 9.90274L4.83371 10.0121L4.69777 10.464L4.27148 10.3358ZM4.19919 10.4505L4.56389 10.7058L4.56341 10.7065L4.19919 10.4505ZM4.1273 10.5436L4.47095 10.8266L4.47062 10.827L4.1273 10.5436ZM4.00561 12.1401L3.62386 12.3691L3.62386 12.3691L4.00561 12.1401ZM4.91419 12.7685L4.82549 13.2048L4.82515 13.2047L4.91419 12.7685ZM6.08668 12.5573L5.85765 12.1756L5.85768 12.1756L6.08668 12.5573ZM8.31257 11.222L8.08357 10.8403L8.0838 10.8402L8.31257 11.222ZM8.41357 11.0859L7.98167 10.9781L7.9817 10.9779L8.41357 11.0859ZM8.38848 10.9183L8.00687 11.1475L8.00676 11.1473L8.38848 10.9183ZM8.08478 10.8423L8.31444 11.2236L8.31379 11.224L8.08478 10.8423ZM6.98671 11.501L6.75754 11.1194L6.7577 11.1193L6.98671 11.501ZM6.81437 11.458L7.196 11.2288L7.19636 11.2294L6.81437 11.458ZM6.8574 11.2857L6.62822 10.9041L6.6284 10.9039L6.8574 11.2857ZM7.95554 10.6269L8.18455 11.0086L8.18454 11.0087L7.95554 10.6269ZM8.31218 10.413L8.54139 10.7946L8.54119 10.7947L8.31218 10.413ZM8.41326 10.2769L8.84516 10.3847L8.84509 10.385L8.41326 10.2769ZM8.38816 10.1092L8.00671 10.3387L8.0065 10.3383L8.38816 10.1092ZM8.08447 10.0332L8.31362 10.4148L8.31347 10.4149L8.08447 10.0332ZM6.62968 10.9059L6.40058 10.5242L6.40068 10.5242L6.62968 10.9059ZM6.45734 10.8629L6.83897 10.6337L6.83897 10.6337L6.45734 10.8629ZM6.50037 10.6906L6.27097 10.3091L6.27137 10.3088L6.50037 10.6906ZM8.28583 9.61947L8.51504 10.0011L8.51483 10.0012L8.28583 9.61947ZM8.38683 9.48332L7.95493 9.37549L7.95496 9.37535L8.38683 9.48332ZM8.36182 9.3157L8.74353 9.08667L8.74369 9.08692L8.36182 9.3157ZM8.22566 9.21478L8.33293 8.78274L8.33348 8.78288L8.22566 9.21478ZM8.05804 9.23971L7.82902 8.85799L7.82918 8.85789L8.05804 9.23971ZM7.72752 9.43801L7.95654 9.81974L7.85081 9.88317H7.72752V9.43801ZM7.72728 9.43809L7.49827 9.05636L7.60399 8.99293H7.72728V9.43809ZM6.27258 10.3108L6.04311 9.92935L6.04357 9.92908L6.27258 10.3108ZM6.10024 10.2678L6.48187 10.0386L6.48223 10.0392L6.10024 10.2678ZM6.14327 10.0954L5.91387 9.71394L5.91426 9.71371L6.14327 10.0954ZM7.59805 9.22272L7.82725 9.60434L7.82705 9.60446L7.59805 9.22272ZM7.69912 9.08665L7.26729 8.97854L7.26732 8.97843L7.69912 9.08665ZM7.66561 8.90589L7.29973 9.15944L7.29944 9.15903L7.66561 8.90589ZM7.35783 8.85051L7.58711 9.23208L7.58683 9.23225L7.35783 8.85051ZM5.13355 10.1849L5.36255 10.5666L5.36194 10.567L5.13355 10.1849ZM4.98166 10.1675L4.67249 10.4878L4.67248 10.4878L4.98166 10.1675ZM4.95908 10.0163L4.56981 9.80039L4.56986 9.80028L4.95908 10.0163ZM5.4216 9.18301L5.03238 8.96697L5.03272 8.96635L5.4216 9.18301ZM5.41672 8.91438L5.03503 9.14346L4.88046 8.88591L5.06144 8.64618L5.41672 8.91438ZM5.17681 9.3469L6.99963 8.25339L7.45763 9.01685L5.63482 10.1104L5.17681 9.3469ZM6.99944 8.2535C7.40891 8.00758 7.95613 8.10205 8.23816 8.50951L7.5061 9.01621C7.50557 9.01544 7.50304 9.0117 7.49328 9.00977C7.48326 9.00778 7.47058 9.00908 7.45782 9.01674L6.99944 8.2535ZM8.23793 8.50917C8.34197 8.6592 8.39106 8.82839 8.39861 8.99085L7.50926 9.03217C7.50863 9.01858 7.50518 9.01488 7.50634 9.01655L8.23793 8.50917ZM7.74795 8.61688C7.87484 8.55064 8.01903 8.5116 8.17111 8.5116V9.40192C8.17264 9.40192 8.16896 9.40142 8.15993 9.40614L7.74795 8.61688ZM8.17111 8.5116C8.24671 8.5116 8.32151 8.52103 8.39413 8.53911L8.17903 9.40305C8.1752 9.40209 8.1726 9.40192 8.17111 9.40192V8.5116ZM8.39448 8.5392C8.63166 8.59845 8.83333 8.74806 8.95892 8.9575L8.19537 9.41537C8.19281 9.41109 8.19033 9.40872 8.18836 9.40726C8.1864 9.4058 8.18345 9.40415 8.17868 9.40296L8.39448 8.5392ZM8.95896 8.95757C9.08442 9.16686 9.12166 9.41502 9.06233 9.6522L8.19863 9.43616C8.19979 9.4315 8.19973 9.42817 8.19937 9.42574C8.199 9.42329 8.19805 9.41983 8.19534 9.41531L8.95896 8.95757ZM9.0624 9.65193C9.00645 9.8762 8.87002 10.0618 8.68871 10.1856L8.18667 9.45037C8.19229 9.44653 8.19502 9.44328 8.19622 9.44159C8.19731 9.44005 8.19802 9.43859 8.19856 9.43643L9.0624 9.65193ZM8.66386 9.43458C8.78717 9.50732 8.9018 9.61171 8.98537 9.75131L8.22147 10.2086C8.22193 10.2094 8.22206 10.2093 8.221 10.2083C8.21983 10.2071 8.21694 10.2046 8.21151 10.2014L8.66386 9.43458ZM8.98524 9.75109C9.11072 9.96042 9.14785 10.2084 9.08877 10.4454L8.22489 10.2301C8.22611 10.2252 8.22603 10.2218 8.22566 10.2193C8.22529 10.2168 8.22433 10.2134 8.22161 10.2088L8.98524 9.75109ZM9.08868 10.4458C9.02936 10.6829 8.8797 10.8844 8.67041 11.01L8.21221 10.2467C8.21673 10.244 8.21921 10.2414 8.2207 10.2393C8.22219 10.2373 8.22382 10.2344 8.22498 10.2298L9.08868 10.4458ZM8.67724 11.0058L8.67661 11.0062L8.20475 10.2513L8.20538 10.2509L8.67724 11.0058ZM8.66951 10.2469C8.7906 10.3195 8.90294 10.4227 8.98533 10.5598L8.22215 11.0183C8.22249 11.0189 8.2225 11.0186 8.22136 11.0175C8.22012 11.0163 8.21721 11.0138 8.21185 11.0106L8.66951 10.2469ZM8.98543 10.56C9.11114 10.7694 9.14829 11.0177 9.08903 11.2548L8.22527 11.039C8.22647 11.0342 8.22639 11.0308 8.22603 11.0284C8.22567 11.026 8.22474 11.0226 8.22205 11.0181L8.98543 10.56ZM9.08895 11.2552C9.02957 11.4921 8.88007 11.6935 8.67085 11.8192L8.21256 11.0559C8.21695 11.0532 8.21941 11.0507 8.22093 11.0486C8.22245 11.0466 8.22414 11.0435 8.22535 11.0387L9.08895 11.2552ZM8.67071 11.8192L6.44503 13.1545L5.98701 12.391L8.2127 11.0558L8.67071 11.8192ZM6.44496 13.1545C5.93834 13.4583 5.34517 13.5672 4.77495 13.4508L4.95311 12.5785C5.29565 12.6484 5.6629 12.5854 5.98707 12.391L6.44496 13.1545ZM4.77493 13.4508C4.19812 13.3329 3.70773 12.997 3.40861 12.4983L4.17209 12.0403C4.33672 12.3148 4.60902 12.5082 4.95314 12.5785L4.77493 13.4508ZM3.40864 12.4984C2.94428 11.7244 3.01554 10.7967 3.59028 10.1004L4.2769 10.6671C3.94126 11.0737 3.90253 11.5911 4.17207 12.0403L3.40864 12.4984ZM3.59074 10.0998C3.60917 10.0775 3.62076 10.0627 3.62912 10.0508L4.3581 10.5619C4.32917 10.6031 4.29971 10.6396 4.27644 10.6677L3.59074 10.0998ZM3.62945 10.0503C3.64869 10.0229 3.67124 9.99059 3.67862 9.97997L4.40991 10.4878C4.40155 10.4998 4.37801 10.5336 4.35776 10.5624L3.62945 10.0503ZM3.65583 10.0164C3.67888 9.97526 3.88221 9.6091 4.08069 9.25159C4.17972 9.0732 4.27729 8.89745 4.35008 8.7663C4.38648 8.70073 4.41669 8.64631 4.4378 8.60828C4.44835 8.58927 4.45663 8.57436 4.46227 8.5642C4.46509 8.55912 4.46725 8.55522 4.46871 8.5526C4.46944 8.55128 4.46999 8.55028 4.47037 8.5496C4.47056 8.54926 4.47071 8.54899 4.47082 8.54879C4.47087 8.5487 4.47094 8.54859 4.47099 8.54848C4.47103 8.54842 4.47111 8.54827 4.47116 8.54818C4.47132 8.5479 5.06824 8.37119 5.25827 8.96378L4.46196 8.56562C4.65199 9.1582 5.24891 8.9815 5.24905 8.98124C5.24909 8.98117 5.24915 8.98106 5.24917 8.98103C5.24918 8.98101 5.24917 8.98102 5.24913 8.9811C5.24906 8.98123 5.24893 8.98146 5.24875 8.98178C5.24839 8.98243 5.24785 8.98341 5.24712 8.98472C5.24567 8.98733 5.24351 8.99121 5.2407 8.99629C5.23506 9.00645 5.22678 9.02136 5.21623 9.04037C5.19512 9.07839 5.16491 9.13282 5.12851 9.1984C5.05571 9.32956 4.95813 9.50533 4.85909 9.68374C4.6614 10.0398 4.45676 10.4083 4.4327 10.4513L3.65583 10.0164ZM4.47075 8.54892C4.63012 8.26135 4.92839 8.10007 5.23358 8.10023L5.23311 8.99054C5.23628 8.99055 5.23902 8.98979 5.24164 8.98828C5.24489 8.98641 5.24788 8.98335 5.24948 8.98048L4.47075 8.54892ZM5.23334 8.10023C5.37675 8.10023 5.52237 8.13566 5.65581 8.20966L5.224 8.98825C5.22639 8.98957 5.22996 8.99054 5.23334 8.99054V8.10023ZM5.65701 8.21033C5.8039 8.29239 5.92729 8.41187 6.01391 8.55653L5.25007 9.01391C5.24371 9.0033 5.23417 8.99393 5.2228 8.98758L5.65701 8.21033ZM6.01371 8.55619C6.19078 8.85132 6.1978 9.22069 6.02972 9.52201L5.2522 9.08828C5.26409 9.06697 5.26434 9.03769 5.25027 9.01425L6.01371 8.55619ZM6.03014 9.52124L5.795 9.94473L5.01663 9.51254L5.25177 9.08905L6.03014 9.52124ZM5.03496 9.14327C5.05061 9.16936 5.07378 9.19181 5.10024 9.20664L5.53551 8.42998C5.64393 8.49075 5.73412 8.57801 5.79853 8.68543L5.03496 9.14327ZM5.10233 9.20781C5.23153 9.2793 5.39645 9.23382 5.46949 9.10165L4.69023 8.67105C4.85654 8.37009 5.23478 8.26356 5.53341 8.42882L5.10233 9.20781ZM5.46907 9.10239C4.92265 10.0868 4.7289 10.4359 4.65119 10.565L3.88847 10.1058C3.95549 9.99445 4.13681 9.66809 4.69064 8.67031L5.46907 9.10239ZM4.37293 9.90234L4.37459 9.90274L4.16837 10.7688L4.16672 10.7684L4.37293 9.90234ZM4.69777 10.464C4.69714 10.4661 4.68898 10.4949 4.67475 10.5274C4.66041 10.5602 4.645 10.5859 4.63456 10.6025C4.6181 10.6286 4.5927 10.6646 4.56389 10.7058L3.83449 10.1953C3.85139 10.1711 3.86286 10.1548 3.8713 10.1425C3.87542 10.1366 3.87816 10.1325 3.88001 10.1298C3.88192 10.127 3.88208 10.1267 3.88124 10.128C3.87983 10.1302 3.8697 10.1463 3.85914 10.1704C3.85379 10.1826 3.84993 10.1932 3.84734 10.2009C3.84618 10.2044 3.84538 10.207 3.84508 10.208C3.84485 10.2087 3.84471 10.2092 3.84519 10.2076L4.69777 10.464ZM4.56341 10.7065C4.53128 10.7522 4.4985 10.7931 4.47095 10.8266L3.78365 10.2606C3.80596 10.2335 3.82212 10.2129 3.83498 10.1946L4.56341 10.7065ZM4.47062 10.827C4.19868 11.1565 4.1696 11.5481 4.38737 11.9112L3.62386 12.3691C3.21127 11.6812 3.2731 10.8792 3.78398 10.2602L4.47062 10.827ZM4.38736 11.9111C4.51481 12.1236 4.72786 12.2761 5.00324 12.3324L4.82515 13.2047C4.31915 13.1014 3.88688 12.8076 3.62386 12.3691L4.38736 11.9111ZM5.0029 12.3323C5.2838 12.3894 5.58725 12.3379 5.85765 12.1756L6.31572 12.9391C5.86354 13.2104 5.33446 13.3083 4.82549 13.2048L5.0029 12.3323ZM5.85768 12.1756L8.08357 10.8403L8.54157 11.6038L6.31568 12.9391L5.85768 12.1756ZM8.0838 10.8402C8.03337 10.8704 7.99604 10.9205 7.98167 10.9781L8.84547 11.1937C8.80247 11.3659 8.6934 11.5128 8.54134 11.6039L8.0838 10.8402ZM7.9817 10.9779C7.96729 11.0356 7.97673 11.0973 8.00687 11.1475L8.77009 10.6891C8.86126 10.8408 8.88848 11.0216 8.84543 11.1938L7.9817 10.9779ZM8.00676 11.1473C8.06994 11.2526 8.20706 11.2883 8.31444 11.2236L7.85512 10.4609C8.17172 10.2703 8.58147 10.3747 8.77019 10.6892L8.00676 11.1473ZM8.31379 11.224L7.21573 11.8828L6.7577 11.1193L7.85577 10.4606L8.31379 11.224ZM7.21589 11.8827C6.94619 12.0446 6.59486 11.9581 6.43239 11.6866L7.19636 11.2294C7.10515 11.077 6.9083 11.0289 6.75754 11.1194L7.21589 11.8827ZM6.43274 11.6872C6.27043 11.4169 6.35805 11.0663 6.62822 10.9041L7.08658 11.6673C7.23782 11.5765 7.2869 11.3802 7.196 11.2288L6.43274 11.6872ZM6.6284 10.9039L7.72654 10.2452L8.18454 11.0087L7.0864 11.6674L6.6284 10.9039ZM7.72654 10.2452L8.08318 10.0312L8.54119 10.7947L8.18455 11.0086L7.72654 10.2452ZM8.08298 10.0314C8.0334 10.0611 7.99596 10.1107 7.98143 10.1688L8.84509 10.385C8.80193 10.5574 8.69259 10.7038 8.54139 10.7946L8.08298 10.0314ZM7.98136 10.1691C7.96706 10.2263 7.97628 10.2881 8.00671 10.3387L8.76962 9.87972C8.86109 10.0318 8.88809 10.2127 8.84516 10.3847L7.98136 10.1691ZM8.0065 10.3383C8.07004 10.4442 8.20711 10.4788 8.31362 10.4148L7.85531 9.65156C8.1709 9.46207 8.58059 9.56483 8.76983 9.88007L8.0065 10.3383ZM8.31347 10.4149L6.85868 11.2877L6.40068 10.5242L7.85546 9.65147L8.31347 10.4149ZM6.85879 11.2876C6.58809 11.4501 6.23779 11.362 6.07571 11.0921L6.83897 10.6337C6.74831 10.4828 6.55203 10.4333 6.40058 10.5242L6.85879 11.2876ZM6.07571 11.0921C5.9132 10.8214 6.00146 10.4711 6.27097 10.3091L6.72977 11.0721C6.88051 10.9814 6.93007 10.7854 6.83897 10.6337L6.07571 11.0921ZM6.27137 10.3088L8.05683 9.23774L8.51483 10.0012L6.72937 11.0723L6.27137 10.3088ZM8.05663 9.23786C8.00684 9.26776 7.96937 9.31764 7.95493 9.37549L8.81873 9.59114C8.77565 9.76368 8.66645 9.91015 8.51504 10.0011L8.05663 9.23786ZM7.95496 9.37535C7.94055 9.433 7.95002 9.49451 7.97994 9.54447L8.74369 9.08692C8.8345 9.23851 8.86174 9.41911 8.81869 9.59128L7.95496 9.37535ZM7.9801 9.54473C8.0103 9.59507 8.06035 9.63233 8.11784 9.64668L8.33348 8.78288C8.50565 8.82586 8.65245 8.93486 8.74353 9.08667L7.9801 9.54473ZM8.11839 9.64682C8.17479 9.66082 8.23637 9.65182 8.2869 9.62153L7.82918 8.85789C7.98102 8.76688 8.16121 8.7401 8.33293 8.78274L8.11839 9.64682ZM8.28706 9.62144L7.95654 9.81974L7.4985 9.05629L7.82902 8.85799L8.28706 9.62144ZM7.72752 9.88317C7.74612 9.88317 7.76572 9.882 7.78608 9.8793C7.8065 9.87659 7.82704 9.87242 7.84752 9.86668C7.86802 9.86094 7.88759 9.85388 7.90615 9.84575C7.92467 9.83763 7.94145 9.82877 7.9565 9.81974C7.98634 9.80184 8.00838 9.78383 8.02197 9.77184C8.02876 9.76585 8.03406 9.7608 8.03725 9.7577C8.04016 9.75488 8.04261 9.75242 8.0422 9.75283C8.0422 9.75283 8.0422 9.75284 8.0422 9.75284C8.04219 9.75284 8.04219 9.75285 8.04218 9.75285C8.04217 9.75287 8.04215 9.75289 8.04212 9.75291C8.04207 9.75296 8.04199 9.75304 8.04189 9.75314C8.0417 9.75334 8.04137 9.75366 8.04097 9.75406C8.04018 9.75485 8.03887 9.75614 8.03724 9.75772C8.03404 9.76082 8.02873 9.76587 8.02194 9.77187C8.00834 9.78387 7.98629 9.80189 7.95644 9.8198C7.94138 9.82883 7.92459 9.83769 7.90607 9.84581C7.8875 9.85394 7.86792 9.86101 7.84742 9.86675C7.82692 9.87249 7.80637 9.87666 7.78595 9.87937C7.76558 9.88208 7.74598 9.88325 7.72736 9.88325V8.99293C7.70875 8.99293 7.68916 8.9941 7.66879 8.99681C7.64838 8.99951 7.62784 9.00368 7.60736 9.00942C7.58686 9.01516 7.56729 9.02222 7.54873 9.03036C7.53021 9.03847 7.51343 9.04733 7.49838 9.05636C7.46854 9.07426 7.4465 9.09227 7.43291 9.10426C7.42612 9.11025 7.42082 9.1153 7.41762 9.1184C7.41471 9.12122 7.41226 9.12368 7.41268 9.12327C7.41268 9.12327 7.41268 9.12327 7.41268 9.12326C7.41268 9.12326 7.41269 9.12325 7.4127 9.12325C7.41271 9.12324 7.41273 9.12322 7.41275 9.12319C7.4128 9.12314 7.41289 9.12306 7.41299 9.12296C7.41318 9.12276 7.41351 9.12244 7.41391 9.12204C7.4147 9.12125 7.41601 9.11996 7.41764 9.11838C7.42084 9.11528 7.42615 9.11023 7.43294 9.10423C7.44654 9.09224 7.46859 9.07422 7.49844 9.0563C7.5135 9.04727 7.53028 9.03841 7.54881 9.03029C7.56738 9.02216 7.58696 9.01509 7.60746 9.00935C7.62795 9.00361 7.6485 8.99944 7.66892 8.99673C7.68929 8.99402 7.7089 8.99286 7.72752 8.99286V9.88317ZM7.72736 9.88325H7.72728V8.99293H7.72736V9.88325ZM7.95629 9.81982L6.50159 10.6925L6.04357 9.92908L7.49827 9.05636L7.95629 9.81982ZM6.50205 10.6923C6.23137 10.8551 5.88031 10.7672 5.71825 10.4964L6.48223 10.0392C6.39143 9.88747 6.19455 9.83825 6.04311 9.92935L6.50205 10.6923ZM5.71861 10.497C5.55609 10.2263 5.64435 9.87601 5.91387 9.71394L6.37267 10.4769C6.52341 10.3863 6.57297 10.1903 6.48187 10.0386L5.71861 10.497ZM5.91426 9.71371L7.36905 8.84099L7.82705 9.60446L6.37227 10.4772L5.91426 9.71371ZM7.36884 8.84111C7.31927 8.87089 7.28182 8.9205 7.26729 8.97854L8.13095 9.19475C8.08779 9.36716 7.97845 9.51352 7.82725 9.60434L7.36884 8.84111ZM7.26732 8.97843C7.25134 9.04219 7.26516 9.10957 7.29973 9.15944L8.0315 8.65233C8.14063 8.80982 8.17837 9.00556 8.13092 9.19487L7.26732 8.97843ZM7.29944 9.15903C7.3426 9.22145 7.40201 9.24936 7.44799 9.25763C7.49406 9.26591 7.54338 9.25835 7.58711 9.23208L7.12854 8.46895C7.41021 8.29969 7.81794 8.34342 8.03178 8.65274L7.29944 9.15903ZM7.58683 9.23225L5.36255 10.5666L4.90454 9.80315L7.12882 8.46878L7.58683 9.23225ZM5.36194 10.567C5.1412 10.6989 4.85842 10.6673 4.67249 10.4878L5.29083 9.84722C5.18654 9.74655 5.02852 9.72904 4.90516 9.80278L5.36194 10.567ZM4.67248 10.4878C4.48638 10.3081 4.44463 10.026 4.56981 9.80039L5.34836 10.2322C5.41847 10.1058 5.39513 9.94791 5.29084 9.84723L4.67248 10.4878ZM4.56986 9.80028L5.03238 8.96697L5.81082 9.39904L5.34831 10.2323L4.56986 9.80028ZM5.03272 8.96635C5.00098 9.02334 5.0032 9.09042 5.03503 9.14346L5.79841 8.68531C5.9292 8.90323 5.93504 9.17608 5.81047 9.39966L5.03272 8.96635ZM5.06144 8.64618L5.06146 8.64615L5.77203 9.18256L5.77201 9.18259L5.06144 8.64618Z" fill="#4CAF4F" mask="url(#path-3-inside-2_212_1413)"/>
<path d="M9.73091 8.98534C9.69617 8.98563 9.66124 8.99002 9.62679 8.99864L9.73091 8.98534ZM9.73091 8.98534C9.73156 8.97577 9.7324 8.96619 9.73343 8.95661L9.73091 8.98534ZM9.32728 9.99445C9.32727 9.99447 9.32725 9.9945 9.32724 9.99452C9.32724 9.99452 9.32724 9.99452 9.32724 9.99452L9.32728 9.99445ZM9.32728 9.99445L9.30278 9.97972L9.3273 9.99442M9.32728 9.99445L9.3273 9.99442M9.3273 9.99442C9.32784 9.99353 9.32837 9.99264 9.32892 9.99175L9.3273 9.99442ZM11.0338 11.3101L11.0339 11.3102L11.0338 11.3101Z" fill="#4CAF4F" stroke="#4CAF4F" stroke-width="0.445155"/>
</svg>
