<svg width="17" height="17" viewBox="0 0 17 17" fill="none" xmlns="http://www.w3.org/2000/svg">
<path d="M2.72517 5.89371V6.06065H2.8921H14.9113H15.0782V5.89371V5.14252C15.0782 4.76619 14.9287 4.40528 14.6626 4.13918C14.3965 3.87308 14.0356 3.72358 13.6593 3.72358H4.1441C3.76778 3.72358 3.40687 3.87308 3.14077 4.13918C2.87466 4.40528 2.72517 4.76619 2.72517 5.14252V5.89371ZM15.0782 6.89531V6.72838H14.9113H2.8921H2.72517V6.89531V11.6529C2.72517 12.0292 2.87466 12.3901 3.14077 12.6563C3.40687 12.9224 3.76778 13.0718 4.1441 13.0718H13.6593C14.0356 13.0718 14.3965 12.9224 14.6626 12.6563C14.9287 12.3901 15.0782 12.0292 15.0782 11.6529V6.89531ZM2.05744 5.14252C2.05744 4.5891 2.27728 4.05835 2.66861 3.66702C3.05993 3.27569 3.59068 3.05585 4.1441 3.05585H13.6593C14.2127 3.05585 14.7435 3.27569 15.1348 3.66702C15.5261 4.05835 15.746 4.5891 15.746 5.14252V11.6529C15.746 12.2063 15.5261 12.7371 15.1348 13.1284C14.7435 13.5197 14.2127 13.7396 13.6593 13.7396H4.1441C3.59068 13.7396 3.05993 13.5197 2.66861 13.1284C2.27728 12.7371 2.05744 12.2063 2.05744 11.6529V5.14252ZM11.4057 10.067H12.9081C12.9966 10.067 13.0816 10.1022 13.1442 10.1648C13.2068 10.2274 13.242 10.3124 13.242 10.4009C13.242 10.4895 13.2068 10.5744 13.1442 10.637C13.0816 10.6996 12.9966 10.7348 12.9081 10.7348H11.4057C11.3172 10.7348 11.2322 10.6996 11.1696 10.637C11.107 10.5744 11.0718 10.4895 11.0718 10.4009C11.0718 10.3124 11.107 10.2274 11.1696 10.1648C11.2322 10.1022 11.3172 10.067 11.4057 10.067Z" fill="#4CAF4F" stroke="#4CAF4F" stroke-width="0.333867"/>
</svg>
