<svg width="22" height="20" viewBox="0 0 22 20" fill="none" xmlns="http://www.w3.org/2000/svg">
<path d="M21.8405 13.184C21.8405 16.503 19.1499 19.1936 15.8309 19.1936L6.81652 19.1936C5.89457 19.1936 5.14719 18.4462 5.14719 17.5243L5.14719 6.17281C5.14719 4.32891 6.64196 2.83414 8.48585 2.83414L20.1712 2.83414C21.0931 2.83414 21.8405 3.58153 21.8405 4.50348L21.8405 13.184Z" fill="#E8F5E9"/>
<path d="M8.14861 3.83569C6.9563 3.83569 5.98564 4.81522 5.98564 6.01262C5.98564 6.7701 6.37461 7.43893 6.96198 7.82879C6.25256 8.066 5.63871 8.50933 5.18848 9.08931C4.93956 8.89784 4.66142 8.74387 4.36158 8.63352C4.81627 8.29597 5.11339 7.75373 5.11339 7.1443C5.11339 6.12877 4.29205 5.29742 3.28267 5.29742C2.27329 5.29742 1.45195 6.12877 1.45195 7.1443C1.45195 7.75408 1.74932 8.29657 2.20439 8.63412C0.999603 9.07871 0.13916 10.2427 0.13916 11.6125V12.5748C0.139283 12.6482 0.168626 12.7184 0.220653 12.7701C0.27268 12.8219 0.343079 12.8507 0.416435 12.8505H4.63817C4.6484 12.8516 4.65863 12.8522 4.66886 12.8521H11.6286C11.6388 12.8522 11.6492 12.8516 11.6593 12.8505H15.8813C16.0331 12.8499 16.156 12.7267 16.1564 12.5748V11.6125C16.1564 10.2427 15.2974 9.07871 14.0933 8.634C14.5483 8.29657 14.8457 7.75396 14.8457 7.14418C14.8457 6.12864 14.0244 5.2973 13.015 5.2973C12.0057 5.2973 11.1843 6.12864 11.1843 7.14418C11.1843 7.75361 11.4815 8.29594 11.9362 8.6334C11.6358 8.74399 11.3575 8.89847 11.1082 9.09042C10.6582 8.51009 10.0452 8.06613 9.33582 7.82879C9.92303 7.43893 10.3122 6.7701 10.3122 6.01262C10.3122 4.81522 9.341 3.83569 8.14868 3.83569H8.14861ZM8.14861 4.38803C9.04036 4.38803 9.75925 5.11174 9.75925 6.01262C9.75925 6.90645 9.05157 7.62313 8.16969 7.63462C8.16267 7.63462 8.15576 7.63363 8.14861 7.63363C8.14146 7.63363 8.13468 7.63462 8.12753 7.63462C7.24566 7.62328 6.53845 6.90648 6.53845 6.01262C6.53845 5.11162 7.25674 4.38803 8.14849 4.38803H8.14861ZM3.2827 5.84973C3.99026 5.84973 4.56109 6.424 4.56109 7.14427C4.56109 7.85972 3.99764 8.43153 3.29675 8.43929C3.29206 8.43929 3.2875 8.4388 3.28269 8.4388C3.27801 8.4388 3.27345 8.43929 3.26864 8.43929C2.56774 8.43153 2.0043 7.85959 2.0043 7.14427C2.0043 6.42403 2.57513 5.84973 3.28268 5.84973H3.2827ZM13.0148 5.84973C13.7224 5.84973 14.2932 6.424 14.2932 7.14427C14.2932 7.85972 13.7298 8.43153 13.0289 8.43929C13.0242 8.43929 13.0196 8.4388 13.0148 8.4388C13.0101 8.4388 13.0056 8.43929 13.0008 8.43929C12.2999 8.43153 11.7364 7.85959 11.7364 7.14427C11.7364 6.42403 12.3073 5.84973 13.0148 5.84973H13.0148ZM8.12746 8.18692C8.13449 8.18705 8.1414 8.18791 8.14855 8.18791C8.15558 8.18791 8.16248 8.18692 8.16963 8.18692C9.93821 8.19827 11.3536 9.62583 11.3536 11.4129L11.3535 12.2996H4.94387V11.4129C4.94387 9.62568 6.35886 8.19829 8.12721 8.18692H8.12746ZM3.26156 8.99226C3.26858 8.99238 3.27549 8.99324 3.28264 8.99324C3.28979 8.99324 3.29657 8.99226 3.30372 8.99226C3.90191 8.99707 4.44784 9.20333 4.88254 9.54841C4.57149 10.0988 4.3916 10.7341 4.3916 11.413V12.2976H0.691272V11.6125C0.691272 10.1601 1.83318 9.00359 3.26149 8.99213L3.26156 8.99226ZM12.9937 8.99226C13.0008 8.99238 13.0076 8.99324 13.0148 8.99324C13.0219 8.99324 13.0287 8.99226 13.0359 8.99226C14.4642 9.0036 15.6061 10.1603 15.6061 11.6126V12.2976H11.9039L11.9037 11.413C11.9037 10.7344 11.7243 10.0996 11.4139 9.54939C11.8487 9.20382 12.395 8.99706 12.9937 8.99226H12.9937Z" fill="#103E13"/>
</svg>
