<svg width="17" height="17" viewBox="0 0 17 17" fill="none" xmlns="http://www.w3.org/2000/svg">
<g clip-path="url(#clip0_212_1407)">
<path d="M11.3477 4.1202C11.1036 4.11975 10.8605 4.15352 10.6257 4.2205L10.6257 4.22049L10.6238 4.22106C10.5496 4.24321 10.4716 4.25037 10.3946 4.24212C10.3175 4.23386 10.2429 4.21036 10.175 4.17298L10.0945 4.31922L10.175 4.17298C10.1071 4.13561 10.0473 4.0851 9.99917 4.0244C9.951 3.9637 9.91538 3.89403 9.89439 3.81943C9.8734 3.74483 9.86745 3.66681 9.87691 3.58989C9.88636 3.51298 9.91102 3.43871 9.94945 3.37142C9.98789 3.30413 10.0393 3.24515 10.1008 3.19793C10.1622 3.1507 10.2324 3.11617 10.3073 3.09635L10.3073 3.09638L10.3103 3.09552C10.6476 2.9995 10.9967 2.95108 11.3473 2.95167L11.3481 2.95166C12.1361 2.94937 12.9056 3.18999 13.552 3.64076C14.1983 4.09153 14.69 4.73054 14.9602 5.47078C15.2303 6.21103 15.2657 7.01655 15.0616 7.77766C14.8575 8.53876 14.4238 9.21848 13.8196 9.72426L13.6158 9.89481L13.8579 10.0044C14.8506 10.4536 15.7048 11.1605 16.3318 12.0517L16.3325 12.0527C16.377 12.115 16.4088 12.1856 16.4258 12.2603C16.4429 12.335 16.4449 12.4123 16.4318 12.4878C16.4187 12.5632 16.3907 12.6354 16.3495 12.6999C16.3082 12.7645 16.2546 12.8202 16.1916 12.8639L16.1916 12.8638L16.1897 12.8652C16.0922 12.9349 15.9753 12.9722 15.8556 12.9718C15.7619 12.9713 15.6697 12.9484 15.5866 12.9052C15.5035 12.8619 15.4319 12.7995 15.3777 12.7232C14.9224 12.0774 14.3189 11.5503 13.6177 11.1861C12.9164 10.822 12.138 10.6315 11.3478 10.6306H11.3476C11.1927 10.6306 11.044 10.569 10.9345 10.4595C10.8249 10.3499 10.7633 10.2013 10.7633 10.0463C10.7633 9.89137 10.8249 9.74276 10.9345 9.63319C11.044 9.52362 11.1927 9.46206 11.3476 9.46206C12.056 9.46206 12.7354 9.18066 13.2362 8.67976C13.7371 8.17887 14.0185 7.4995 14.0185 6.79113C14.0185 6.08275 13.7371 5.40339 13.2362 4.90249C12.7354 4.40163 12.0561 4.12023 11.3477 4.1202ZM11.3477 4.1202C11.3478 4.1202 11.3479 4.1202 11.3479 4.1202L11.3476 4.28713V4.1202C11.3477 4.1202 11.3477 4.1202 11.3477 4.1202ZM8.71737 9.72452L8.5146 9.89511L8.75601 10.0044C9.74869 10.4536 10.6029 11.1605 11.2299 12.0517L11.2297 12.0518L11.2348 12.0583C11.2835 12.1207 11.319 12.1924 11.3392 12.2689L11.5006 12.2264L11.3392 12.2689C11.3594 12.3455 11.3638 12.4253 11.3522 12.5036C11.3406 12.5819 11.3132 12.657 11.2716 12.7244C11.2301 12.7918 11.1753 12.85 11.1106 12.8956C11.0459 12.9411 10.9726 12.9731 10.8951 12.9895C10.8177 13.0058 10.7377 13.0063 10.6601 12.9909C10.5825 12.9754 10.5088 12.9443 10.4436 12.8995C10.3783 12.8547 10.3228 12.7971 10.2805 12.7302L10.2807 12.7301L10.2761 12.7236C9.82176 12.0765 9.21834 11.5484 8.51683 11.1838C7.81532 10.8191 7.03633 10.6288 6.24572 10.6288C5.4551 10.6288 4.67611 10.8191 3.9746 11.1838C3.27309 11.5484 2.66968 12.0765 2.21537 12.7236L2.215 12.7241C2.1616 12.8008 2.09039 12.8634 2.00749 12.9066C1.92458 12.9497 1.83245 12.9721 1.739 12.9718L1.73797 12.9718C1.61811 12.9722 1.50116 12.9349 1.40365 12.8652L1.40285 12.8647C1.27645 12.7754 1.19061 12.6397 1.16414 12.4873C1.13767 12.3349 1.17274 12.1782 1.26165 12.0516C1.88859 11.1605 2.74278 10.4536 3.73542 10.0044L3.97683 9.89511L3.77406 9.72452C3.17142 9.21756 2.73925 8.53754 2.53614 7.77666C2.33303 7.01578 2.36881 6.21085 2.63862 5.47099C2.90844 4.73113 3.39924 4.09213 4.04448 3.64063C4.68972 3.18913 5.45819 2.94696 6.24572 2.94696C7.03324 2.94696 7.80171 3.18913 8.44695 3.64063C9.0922 4.09213 9.58299 4.73113 9.85281 5.47099C10.1226 6.21085 10.1584 7.01578 9.95529 7.77666C9.75218 8.53754 9.32001 9.21756 8.71737 9.72452ZM1.30658 13.001C1.43256 13.0911 1.58366 13.1393 1.73852 13.1388C1.85897 13.1391 1.9777 13.1102 2.08455 13.0546C2.1914 12.999 2.28317 12.9184 2.352 12.8195C2.7909 12.1944 3.37386 11.6841 4.05159 11.3319C4.72932 10.9796 5.4819 10.7957 6.24572 10.7957C7.00953 10.7957 7.76211 10.9796 8.43984 11.3319C9.11758 11.6841 9.70053 12.1944 10.1394 12.8195L1.30658 13.001ZM4.02492 5.30724C3.73143 5.74647 3.57478 6.26287 3.57478 6.79113C3.57478 7.4995 3.85618 8.17887 4.35708 8.67976C4.85798 9.18066 5.53734 9.46206 6.24572 9.46206C6.77398 9.46206 7.29037 9.30541 7.72961 9.01193C8.16884 8.71844 8.51118 8.3013 8.71334 7.81325C8.91549 7.3252 8.96839 6.78817 8.86533 6.27006C8.76227 5.75195 8.50789 5.27603 8.13435 4.90249C7.76081 4.52896 7.2849 4.27458 6.76679 4.17152C6.24868 4.06846 5.71164 4.12135 5.22359 4.32351C4.73555 4.52567 4.3184 4.86801 4.02492 5.30724Z" fill="#4CAF4F" stroke="#4CAF4F" stroke-width="0.333867"/>
</g>
<defs>
<clipPath id="clip0_212_1407">
<rect width="16.0256" height="16.0256" fill="white" transform="translate(0.736938 0.0302734)"/>
</clipPath>
</defs>
</svg>
