<svg width="64" height="10" viewBox="0 0 64 10" fill="none" xmlns="http://www.w3.org/2000/svg">
<path d="M7.84237 5.52006L5.61717 9.33109L3.39199 5.52006H7.84237ZM8.43849 5.17944H2.79346L5.61717 10.0052L8.43849 5.17944Z" fill="white"/>
<path d="M11.7111 0.779855L13.9363 4.59088H9.48592L11.7111 0.779855ZM11.7111 0.0986328L8.88739 4.92435H14.5348L11.7111 0.0986328Z" fill="white"/>
<path d="M0.0879517 0.0986328L2.45554 4.36699L5.04274 0.205812L0.0879517 0.0986328Z" fill="#4CAF4F"/>
<path d="M5.61722 0.472656L8.10066 4.7172H3.12897L5.61722 0.472656Z" fill="#4CAF4F"/>
<path d="M8.74021 5.6438L11.2261 10.0051H6.13611L8.66297 5.6438H8.74021Z" fill="#4CAF4F"/>
<path d="M9.27838 5.37939L11.7111 9.67395L14.1777 5.37939H9.27838Z" fill="#4CAF4F"/>
<path d="M24.8675 0.787598V9.19303H23.3325L19.6757 3.9027H19.6141V9.19303H17.837V0.787598H19.3966L23.0247 6.07383H23.0986V0.787598H24.8675Z" fill="white"/>
<path d="M29.1759 9.31616C28.5274 9.31616 27.9693 9.18482 27.5014 8.92215C27.0362 8.65675 26.6778 8.28189 26.4261 7.7976C26.1743 7.31056 26.0485 6.73461 26.0485 6.06972C26.0485 5.42126 26.1743 4.85214 26.4261 4.36237C26.6778 3.8726 27.0321 3.49091 27.4891 3.21729C27.9487 2.94368 28.4878 2.80687 29.1061 2.80687C29.522 2.80687 29.9092 2.87391 30.2676 3.00798C30.6288 3.13931 30.9434 3.33768 31.2116 3.60309C31.4825 3.8685 31.6931 4.2023 31.8436 4.60452C31.9941 5.00399 32.0694 5.47187 32.0694 6.00816V6.48835H26.7462V5.40484H30.4236C30.4236 5.15311 30.3689 4.93012 30.2594 4.73585C30.15 4.54159 29.9981 4.38973 29.8038 4.28028C29.6123 4.1681 29.3893 4.11201 29.1349 4.11201C28.8694 4.11201 28.6341 4.17357 28.4289 4.2967C28.2265 4.41709 28.0678 4.57989 27.9528 4.7851C27.8379 4.98758 27.7791 5.21331 27.7764 5.4623V6.49246C27.7764 6.80438 27.8338 7.07389 27.9487 7.30099C28.0664 7.52809 28.2319 7.7032 28.4453 7.82633C28.6588 7.94945 28.9119 8.01102 29.2046 8.01102C29.3989 8.01102 29.5767 7.98365 29.7382 7.92893C29.8996 7.87421 30.0378 7.79212 30.1527 7.68268C30.2676 7.57323 30.3552 7.43916 30.4154 7.28047L32.0324 7.38718C31.9503 7.77571 31.7821 8.11499 31.5276 8.40502C31.2759 8.69232 30.9503 8.91668 30.5508 9.07811C30.1541 9.23681 29.6958 9.31616 29.1759 9.31616Z" fill="white"/>
<path d="M34.5586 2.88896L35.716 5.09292L36.9021 2.88896H38.6956L36.8692 6.04099L38.7449 9.19303H36.9595L35.716 7.01369L34.4929 9.19303H32.6871L34.5586 6.04099L32.7527 2.88896H34.5586Z" fill="white"/>
<path d="M42.3566 9.31616C41.7109 9.31616 41.1554 9.17935 40.6903 8.90573C40.2279 8.62938 39.8722 8.24632 39.6232 7.75655C39.3769 7.26678 39.2538 6.70314 39.2538 6.06562C39.2538 5.41989 39.3783 4.85351 39.6273 4.36647C39.879 3.8767 40.2361 3.49501 40.6985 3.2214C41.1609 2.94505 41.7109 2.80687 42.3484 2.80687C42.8983 2.80687 43.3799 2.90674 43.7931 3.10648C44.2062 3.30622 44.5332 3.58667 44.774 3.94784C45.0147 4.30901 45.1474 4.73312 45.1721 5.22015H43.5222C43.4757 4.90549 43.3525 4.6524 43.1528 4.46087C42.9558 4.2666 42.6972 4.16947 42.3771 4.16947C42.1062 4.16947 41.8695 4.24335 41.6671 4.3911C41.4673 4.53611 41.3114 4.74817 41.1992 5.02725C41.087 5.30634 41.0309 5.64425 41.0309 6.04099C41.0309 6.44321 41.0856 6.78522 41.1951 7.06705C41.3073 7.34887 41.4646 7.56366 41.6671 7.71141C41.8695 7.85916 42.1062 7.93304 42.3771 7.93304C42.5768 7.93304 42.7561 7.89199 42.9148 7.80991C43.0762 7.72782 43.2089 7.6088 43.3129 7.45284C43.4196 7.29415 43.4893 7.10398 43.5222 6.88236H45.1721C45.1447 7.36392 45.0134 7.78802 44.7781 8.15466C44.5455 8.51857 44.224 8.80313 43.8136 9.00834C43.4032 9.21355 42.9175 9.31616 42.3566 9.31616Z" fill="white"/>
<path d="M49.1644 9.31616C48.516 9.31616 47.9578 9.18482 47.4899 8.92215C47.0248 8.65675 46.6663 8.28189 46.4146 7.7976C46.1629 7.31056 46.037 6.73461 46.037 6.06972C46.037 5.42126 46.1629 4.85214 46.4146 4.36237C46.6663 3.8726 47.0207 3.49091 47.4776 3.21729C47.9373 2.94368 48.4763 2.80687 49.0947 2.80687C49.5106 2.80687 49.8977 2.87391 50.2562 3.00798C50.6173 3.13931 50.932 3.33768 51.2001 3.60309C51.471 3.8685 51.6817 4.2023 51.8322 4.60452C51.9827 5.00399 52.0579 5.47187 52.0579 6.00816V6.48835H46.7348V5.40484H50.4121C50.4121 5.15311 50.3574 4.93012 50.248 4.73585C50.1385 4.54159 49.9867 4.38973 49.7924 4.28028C49.6009 4.1681 49.3779 4.11201 49.1234 4.11201C48.858 4.11201 48.6227 4.17357 48.4175 4.2967C48.215 4.41709 48.0563 4.57989 47.9414 4.7851C47.8265 4.98758 47.7676 5.21331 47.7649 5.4623V6.49246C47.7649 6.80438 47.8224 7.07389 47.9373 7.30099C48.0549 7.52809 48.2205 7.7032 48.4339 7.82633C48.6473 7.94945 48.9004 8.01102 49.1932 8.01102C49.3874 8.01102 49.5653 7.98365 49.7267 7.92893C49.8882 7.87421 50.0263 7.79212 50.1412 7.68268C50.2562 7.57323 50.3437 7.43916 50.4039 7.28047L52.021 7.38718C51.9389 7.77571 51.7706 8.11499 51.5162 8.40502C51.2644 8.69232 50.9388 8.91668 50.5394 9.07811C50.1426 9.23681 49.6843 9.31616 49.1644 9.31616Z" fill="white"/>
<path d="M54.9473 5.54849V9.19303H53.1989V2.88896H54.8652V4.0012H54.9391C55.0786 3.63455 55.3126 3.34452 55.6409 3.1311C55.9692 2.91495 56.3673 2.80687 56.8352 2.80687C57.273 2.80687 57.6547 2.90264 57.9803 3.09417C58.3059 3.2857 58.559 3.55931 58.7396 3.91501C58.9202 4.26797 59.0105 4.68934 59.0105 5.17911V9.19303H57.2621V5.49103C57.2648 5.10523 57.1663 4.80426 56.9666 4.5881C56.7668 4.36921 56.4918 4.25976 56.1416 4.25976C55.9063 4.25976 55.6984 4.31038 55.5178 4.41162C55.3399 4.51286 55.2004 4.66061 55.0991 4.85487C55.0006 5.04641 54.95 5.27761 54.9473 5.54849Z" fill="white"/>
<path d="M63.7416 2.88896V4.2023H59.9452V2.88896H63.7416ZM60.8071 1.3786H62.5555V7.25584C62.5555 7.41727 62.5801 7.54314 62.6293 7.63343C62.6786 7.72098 62.747 7.78255 62.8346 7.81812C62.9249 7.85369 63.0288 7.87147 63.1465 7.87147C63.2286 7.87147 63.3106 7.86463 63.3927 7.85095C63.4748 7.83454 63.5377 7.82222 63.5815 7.81401L63.8565 9.11505C63.769 9.14241 63.6458 9.17388 63.4871 9.20945C63.3284 9.24775 63.1355 9.27101 62.9084 9.27922C62.4871 9.29564 62.1177 9.23954 61.8003 9.11095C61.4856 8.98235 61.2408 8.78261 61.0656 8.51173C60.8905 8.24085 60.8043 7.89883 60.8071 7.48568V1.3786Z" fill="white"/>
</svg>
