<svg width="167" height="17" viewBox="0 0 167 17" fill="none" xmlns="http://www.w3.org/2000/svg">
<rect x="0.292664" y="0.894043" width="16.0256" height="16.0256" rx="2.67093" fill="#E8F5E9"/>
<g clip-path="url(#clip0_212_1585)">
<path fill-rule="evenodd" clip-rule="evenodd" d="M3.74925 0.958984C5.59313 0.958984 7.08791 2.45375 7.08791 4.29765V0.958984H10.4266C12.2705 0.958984 13.7652 2.45375 13.7652 4.29765C13.7652 6.14153 12.2705 7.63632 10.4266 7.63632C12.2705 7.63632 13.7652 9.1311 13.7652 10.975C13.7652 11.8905 13.3967 12.72 12.7999 13.3232L12.7874 13.3358L12.7763 13.3468C12.173 13.9445 11.3429 14.3136 10.4266 14.3136C9.51649 14.3136 8.69144 13.9495 8.08918 13.359C8.08137 13.3513 8.07355 13.3435 8.06578 13.3358C8.05846 13.3285 8.05119 13.3211 8.04394 13.3137C7.45263 12.7114 7.08791 11.8858 7.08791 10.975C7.08791 12.8189 5.59313 14.3136 3.74925 14.3136C1.90535 14.3136 0.410583 12.8189 0.410583 10.975V7.63632H3.74925C1.90535 7.63632 0.410583 6.14153 0.410583 4.29765C0.410583 2.45375 1.90535 0.958984 3.74925 0.958984ZM6.42018 4.29765C6.42018 5.77277 5.22437 6.96858 3.74925 6.96858V1.62672C5.22437 1.62672 6.42018 2.82253 6.42018 4.29765ZM13.0975 10.975C13.0975 9.49986 11.9017 8.30405 10.4266 8.30405C8.95146 8.30405 7.75565 9.49986 7.75565 10.975H13.0975ZM1.07832 8.30405V10.975C1.07832 12.4501 2.27413 13.6459 3.74925 13.6459C5.22437 13.6459 6.42018 12.4501 6.42018 10.975V8.30405H1.07832ZM7.75565 6.96858V1.62672H10.4266C11.9017 1.62672 13.0975 2.82253 13.0975 4.29765C13.0975 5.77277 11.9017 6.96858 10.4266 6.96858H7.75565Z" fill="#5417D7"/>
</g>
<rect x="30.0068" y="0.894043" width="16.0256" height="16.0256" rx="2.67093" fill="#F5F7FA"/>
<g clip-path="url(#clip1_212_1585)">
<path fill-rule="evenodd" clip-rule="evenodd" d="M33.3782 5.55537L30.0443 8.85577C30.7111 9.51593 31.4729 10.0723 32.3034 10.5075C32.533 11.1104 32.8928 11.6757 33.3829 12.1609C35.2268 13.9862 38.2164 13.9862 40.0602 12.1609C40.5504 11.6757 40.9102 11.1104 41.1398 10.5075C41.9703 10.0723 42.7321 9.51593 43.3989 8.85577L40.0677 5.55806C40.0652 5.55559 40.0628 5.55312 40.0602 5.55066C38.2164 3.7253 35.2268 3.7253 33.3829 5.55066C33.3813 5.55223 33.3798 5.5538 33.3782 5.55537ZM39.7412 11.103C38.7697 11.4276 37.7498 11.5938 36.7216 11.5938C35.6934 11.5938 34.6735 11.4276 33.702 11.103C33.8072 11.2412 33.9234 11.3739 34.0506 11.4999C35.5258 12.9602 37.9174 12.9602 39.3925 11.4999C39.5197 11.3739 39.636 11.2412 39.7412 11.103ZM34.1191 6.14558C34.3696 6.30941 34.636 6.4496 34.9147 6.5639C35.4875 6.79879 36.1015 6.91969 36.7216 6.91969C37.3416 6.91969 37.9556 6.79879 38.5285 6.5639C38.8072 6.4496 39.0735 6.3094 39.3241 6.14557C37.8673 4.77343 35.5758 4.77343 34.1191 6.14558Z" fill="#3B4158"/>
</g>
<rect x="59.7209" y="0.894043" width="16.0256" height="16.0256" rx="2.67093" fill="#F5F7FA"/>
<g clip-path="url(#clip2_212_1585)">
<path d="M78.0821 7.4099C78.084 7.39597 78.084 7.3819 78.0821 7.36798C78.0839 7.35664 78.0839 7.34507 78.0821 7.3337L77.9461 6.35458C77.9265 6.23745 77.874 6.12796 77.7945 6.03837L77.7712 6.0117L77.7285 5.9698L75.3735 3.98109L75.4396 4.04587C75.3855 3.98247 75.3177 3.93176 75.241 3.89748C75.1644 3.86319 75.0808 3.8462 74.9966 3.84776H74.2815C74.1653 3.8455 74.0516 3.88174 73.959 3.95062C73.8617 3.88215 73.7446 3.8461 73.6248 3.84776H72.9097C72.816 3.84626 72.7235 3.86908 72.6416 3.9139C72.5597 3.95873 72.4913 4.02397 72.4434 4.10301C72.3696 4.21591 72.3418 4.35193 72.3657 4.48399L72.4551 5.10117C72.3959 5.06826 72.3288 5.05119 72.2608 5.05165H68.7983C68.6741 5.05241 68.5527 5.08811 68.4485 5.15451C68.3478 5.21631 68.267 5.30481 68.2154 5.40976L67.9472 5.18498C67.8417 5.08925 67.7024 5.03737 67.5586 5.04022H62.1259C62.0012 5.04244 61.8793 5.07659 61.7723 5.13927C61.6258 5.22331 61.5185 5.35995 61.473 5.52024L59.7476 11.1778C59.7154 11.271 59.7122 11.3715 59.7385 11.4665C59.7648 11.5615 59.8194 11.6467 59.8953 11.7111C59.9151 11.7276 59.9358 11.7428 59.9575 11.7568C59.9575 11.7568 59.9225 11.734 59.9031 11.7149L62.258 13.7075C62.3577 13.7974 62.4879 13.8476 62.6233 13.8484H68.0988C68.2238 13.8452 68.3458 13.8097 68.4524 13.7455C68.5127 13.7132 68.5667 13.6707 68.6118 13.6198L68.6312 13.5931L68.6623 13.5551L68.6856 13.5131L68.9421 13.7303C69.0403 13.8167 69.1677 13.8642 69.2996 13.8637H74.7867C74.9116 13.8596 75.0334 13.8242 75.1403 13.7608C75.1993 13.7265 75.2529 13.6842 75.2997 13.6351L75.3191 13.6084L75.3502 13.5703C75.3667 13.5462 75.381 13.5207 75.3929 13.4941C75.4056 13.471 75.416 13.4468 75.424 13.4217L76.9979 8.25567V8.20995C76.9998 8.19222 76.9998 8.17434 76.9979 8.15661V8.12233C76.9998 8.11096 76.9998 8.0994 76.9979 8.08803C76.9996 8.06394 76.9996 8.03975 76.9979 8.01564H77.5031C77.547 8.01959 77.5912 8.01959 77.6352 8.01564H77.6702C77.6986 8.00732 77.726 7.99581 77.7518 7.98136H77.7907L77.8606 7.92802L77.8917 7.90516L77.9461 7.83658V7.81374L77.985 7.74896C77.9828 7.73637 77.9828 7.72347 77.985 7.71088C77.9829 7.70469 77.9829 7.69801 77.985 7.69182C77.9932 7.66948 77.9997 7.64655 78.0044 7.62324C78.0026 7.61572 78.0026 7.60789 78.0044 7.60037C78.0025 7.58903 78.0025 7.57744 78.0044 7.56609C78.0044 7.56609 78.0821 7.41751 78.0821 7.4099Z" fill="black"/>
<path d="M67.718 5.47465C67.7386 5.49294 67.753 5.51699 67.7593 5.54355C67.7655 5.57012 67.7633 5.59793 67.753 5.62323L66.0314 11.2769C66.0098 11.3387 65.9654 11.3903 65.9071 11.4217C65.8596 11.4528 65.8047 11.4712 65.7477 11.475H60.2762C60.2294 11.4728 60.1852 11.4539 60.1518 11.4217C60.132 11.4037 60.118 11.3803 60.1118 11.3546C60.1056 11.3288 60.1073 11.3017 60.1168 11.2769L61.8423 5.62323C61.8621 5.56072 61.9051 5.50774 61.9627 5.47465C62.011 5.44576 62.0656 5.42876 62.1221 5.42512H67.5936C67.64 5.42556 67.6844 5.44327 67.718 5.47465ZM64.8617 10.1378L65.8915 6.76235H63.0081L61.9822 10.1378H64.8617ZM72.9409 5.53179C72.9595 5.55306 72.9829 5.56993 73.0091 5.58114C73.0353 5.59235 73.0638 5.59762 73.0924 5.59656H73.8036C73.8307 5.59682 73.8573 5.59031 73.8812 5.57764C73.9049 5.56498 73.925 5.54657 73.9396 5.52417C73.9522 5.50667 73.9611 5.48687 73.9658 5.46592C73.9705 5.44498 73.9708 5.42333 73.9668 5.40226L73.8269 4.39648C73.8136 4.34993 73.7896 4.30695 73.7569 4.27076C73.7383 4.24949 73.7149 4.23262 73.6887 4.22141C73.6625 4.2102 73.634 4.20493 73.6054 4.20599H72.8942C72.8672 4.20573 72.8404 4.21224 72.8167 4.22491C72.7929 4.23758 72.7727 4.25598 72.7582 4.27838C72.731 4.33172 72.7194 4.366 72.731 4.39648L72.8748 5.40226C72.8822 5.45124 72.9053 5.49662 72.9409 5.53179ZM75.1987 4.38886C75.1853 4.34231 75.1614 4.29933 75.1287 4.26314C75.1108 4.24195 75.0882 4.22509 75.0626 4.21385C75.037 4.20262 75.0091 4.19732 74.9811 4.19837H74.266C74.2394 4.19763 74.213 4.20396 74.1898 4.21671C74.1665 4.22945 74.1472 4.24813 74.1339 4.27076C74.108 4.30456 74.0968 4.34701 74.1028 4.38886L74.2466 5.39464C74.2556 5.4431 74.2785 5.48803 74.3126 5.52417C74.3316 5.54503 74.355 5.56161 74.3812 5.57279C74.4074 5.58397 74.4357 5.58947 74.4642 5.58894H75.1792C75.2058 5.58928 75.232 5.58278 75.2552 5.57007C75.2784 5.55737 75.2978 5.53892 75.3114 5.51656C75.3249 5.49951 75.3343 5.47971 75.339 5.45862C75.3438 5.43752 75.3436 5.41566 75.3386 5.39464L75.1987 4.38886ZM72.3152 5.91277L72.2452 5.4175H68.7983C68.7442 5.42042 68.6918 5.43753 68.6467 5.46703C68.6181 5.48233 68.5932 5.50354 68.5738 5.52919C68.5543 5.55484 68.5408 5.58432 68.5341 5.61561L68.2465 6.56043C68.235 6.58404 68.2311 6.61053 68.2352 6.63637C68.2394 6.66221 68.2515 6.6862 68.2698 6.70521C68.3026 6.7354 68.3453 6.75301 68.3903 6.75474H72.5795L71.5497 10.1302H67.3721C67.3183 10.1314 67.2658 10.1472 67.2206 10.1759C67.1656 10.2101 67.1255 10.263 67.1079 10.3245L66.8164 11.2693C66.8069 11.2936 66.8044 11.3199 66.8092 11.3454C66.814 11.371 66.8259 11.3947 66.8436 11.4141C66.8754 11.4463 66.9185 11.4654 66.9641 11.4674H72.4512C72.508 11.4626 72.5627 11.4443 72.6105 11.4141C72.6679 11.3825 72.711 11.3308 72.731 11.2693L74.3087 6.10326H72.5328C72.5046 6.1038 72.4767 6.09868 72.4506 6.08819C72.4245 6.07771 72.4009 6.06208 72.3813 6.0423C72.3491 6.00775 72.3264 5.96583 72.3152 5.92039V5.91277Z" fill="white"/>
</g>
<rect x="89.435" y="0.894043" width="16.0256" height="16.0256" rx="2.67093" fill="#F5F7FA"/>
<g clip-path="url(#clip3_212_1585)">
<path d="M104.124 5.37174C104.124 5.38303 104.124 5.39714 104.121 5.40561C104.106 5.51568 104.106 5.62575 104.115 5.73864C104.121 5.76687 104.127 5.79509 104.15 5.81767C104.189 5.86 104.247 5.85154 104.271 5.80074C104.283 5.77534 104.283 5.74993 104.277 5.72453C104.247 5.61728 104.242 5.50439 104.239 5.39432C104.239 5.38868 104.239 5.38021 104.239 5.37174C104.271 5.36892 104.3 5.3661 104.327 5.3661C104.347 5.36328 104.365 5.36045 104.38 5.35198C104.424 5.32941 104.424 5.28143 104.377 5.25885C104.359 5.25038 104.336 5.24756 104.315 5.24756C104.242 5.25038 104.168 5.25038 104.095 5.25038C104.068 5.25038 104.042 5.2532 104.015 5.25603C104 5.25885 103.983 5.25885 103.971 5.26732C103.95 5.27578 103.939 5.28989 103.939 5.30965C103.942 5.32941 103.95 5.3407 103.971 5.34916C103.983 5.35763 103.998 5.36045 104.012 5.36045C104.048 5.36328 104.086 5.36892 104.124 5.37174ZM104.933 5.50157C104.933 5.50439 104.936 5.50721 104.936 5.50721C104.947 5.58342 104.959 5.6568 104.968 5.73018C104.971 5.75558 104.974 5.77816 104.991 5.79791C105.03 5.84589 105.088 5.84025 105.115 5.78945C105.127 5.76405 105.13 5.73864 105.124 5.71042C105.106 5.62575 105.097 5.54108 105.08 5.45923C105.068 5.40843 105.053 5.36045 105.039 5.3153C105.03 5.28707 105.009 5.26731 104.974 5.26449C104.939 5.25885 104.912 5.27578 104.897 5.30118C104.88 5.32376 104.865 5.34634 104.853 5.37174C104.833 5.4169 104.815 5.46206 104.791 5.50439C104.789 5.51568 104.786 5.52415 104.78 5.53261C104.777 5.52697 104.774 5.52415 104.774 5.52415C104.736 5.45359 104.7 5.38303 104.662 5.3153C104.656 5.30965 104.653 5.30401 104.65 5.29836C104.633 5.27296 104.612 5.25885 104.58 5.25885C104.55 5.26167 104.527 5.27861 104.512 5.30401C104.506 5.3153 104.506 5.32376 104.503 5.33505C104.492 5.42537 104.477 5.51568 104.465 5.606C104.459 5.6568 104.456 5.7076 104.456 5.7584C104.453 5.76969 104.456 5.7838 104.462 5.79509C104.468 5.81767 104.486 5.83178 104.509 5.8346C104.539 5.83743 104.559 5.82896 104.568 5.80638C104.577 5.78945 104.58 5.77534 104.583 5.76122C104.594 5.71042 104.603 5.66244 104.612 5.61446C104.618 5.58624 104.621 5.56366 104.63 5.53261C104.636 5.5439 104.642 5.55237 104.647 5.56084C104.674 5.59471 104.7 5.62857 104.733 5.6568C104.765 5.67937 104.791 5.67655 104.818 5.65115C104.824 5.64551 104.827 5.64269 104.833 5.63704C104.859 5.59753 104.891 5.55802 104.918 5.5185C104.924 5.51286 104.927 5.50721 104.933 5.50157Z" fill="#3A3B7B"/>
<path d="M98.1571 5.42715C98.1367 5.48079 98.1328 5.51943 98.1422 5.55155C98.1526 5.59523 98.1797 5.60952 98.2164 5.59842C98.5618 5.51644 99.3192 5.74912 99.5996 5.81397C99.6657 5.82759 99.7195 5.74565 99.6744 5.67219C99.6086 5.60105 98.8515 5.29647 98.5626 5.27986C98.4494 5.27372 98.247 5.24585 98.1571 5.42715Z" fill="#3A3B7B"/>
<path d="M101.117 4.4413C101.154 4.46169 101.174 4.48115 101.185 4.50288C101.2 4.53139 101.192 4.55111 101.166 4.56118C100.938 4.66813 100.634 5.12856 100.512 5.28736C100.482 5.32389 100.413 5.30266 100.403 5.24259C100.405 5.17466 100.674 4.67499 100.825 4.5389C100.884 4.48576 100.981 4.3815 101.117 4.4413Z" fill="#3A3B7B"/>
<path d="M99.2989 4.2146C99.3431 4.18261 99.3891 4.1714 99.4125 4.19219C99.757 4.47494 99.9397 4.9227 100.053 5.33262C100.057 5.34217 100.057 5.35587 100.054 5.37017C100.053 5.38239 100.043 5.3953 100.028 5.40529C100.013 5.41631 99.9991 5.41967 99.9927 5.41017C99.8417 5.21308 98.9794 4.44623 99.2989 4.2146Z" fill="#3A3B7B"/>
<path d="M92.0042 9.11691C92.0867 9.05792 92.1765 9.0088 92.2715 8.97069C92.3709 8.94343 92.4768 8.94794 92.5732 8.98359C92.6697 9.01923 92.7514 9.08404 92.8061 9.16823C92.855 9.2522 92.8741 9.34915 92.8606 9.44448C92.8471 9.53978 92.8017 9.62831 92.7312 9.69672C92.6766 9.75217 92.6146 9.80047 92.5468 9.84039C92.2448 10.0277 91.94 10.2047 91.6353 10.392C91.573 10.4388 91.5068 10.4809 91.4375 10.5177C91.3321 10.5681 91.2116 10.5816 91.0969 10.5559C90.9822 10.5301 90.8805 10.4667 90.8094 10.3766C90.7562 10.3128 90.7113 10.243 90.6757 10.1688C90.387 9.58641 90.0876 9.0066 89.8097 8.41397C89.6813 8.15744 89.5771 7.8624 89.4755 7.57763C89.4316 7.49489 89.423 7.39897 89.4516 7.31025C89.4802 7.22153 89.5438 7.14702 89.6287 7.10257C89.7137 7.05812 89.8134 7.04725 89.9065 7.07225C89.9997 7.09724 90.0791 7.15615 90.1277 7.23642C90.2772 7.42712 90.4096 7.62967 90.5233 7.84189C90.812 8.35497 91.0873 8.86806 91.3653 9.36577C91.3815 9.39327 91.3994 9.41981 91.4188 9.44529C91.628 9.36086 91.8248 9.25046 92.0042 9.11691Z" fill="#3A3B7B"/>
<path d="M94.989 8.93793C94.3287 9.67933 93.2221 9.49205 92.6661 8.5377C92.2705 7.86041 92.201 6.74186 93.0617 6.03636C93.2455 5.88866 93.4653 5.78804 93.7006 5.74389C93.989 5.7042 94.2832 5.75305 94.541 5.88344C94.7988 6.01384 95.007 6.21911 95.136 6.46993C95.6064 7.29088 95.5396 8.33759 94.989 8.93793ZM94.7217 7.20878C94.6515 7.00704 94.5108 6.83481 94.3234 6.72133C94.2173 6.64878 94.0885 6.61351 93.9585 6.62145C93.8285 6.6294 93.7053 6.68007 93.6097 6.76495C93.2275 7.09077 93.1473 7.86299 93.4253 8.32221C93.4607 8.39709 93.5127 8.46363 93.5778 8.51719C93.6428 8.57075 93.7192 8.61003 93.8017 8.63226C93.8842 8.6545 93.9708 8.65917 94.0553 8.64594C94.1399 8.6327 94.2204 8.60189 94.2913 8.55566C94.4985 8.40147 94.6505 8.18917 94.7262 7.94826C94.8019 7.70733 94.7975 7.44976 94.7137 7.21136L94.7217 7.20878Z" fill="#3A3B7B"/>
<path d="M97.6834 7.53198C97.6158 7.54593 97.546 7.54677 97.478 7.53442C97.4101 7.52208 97.3454 7.49684 97.2878 7.46016C97.2374 7.43247 97.194 7.39443 97.1607 7.34872C97.1275 7.30302 97.1052 7.25082 97.0955 7.19586C97.0858 7.14091 97.0889 7.08458 97.1045 7.03091C97.1202 6.97724 97.1481 6.92757 97.1862 6.88548C97.2526 6.80089 97.3468 6.74033 97.4535 6.7136C97.7322 6.63596 98.0191 6.58863 98.3089 6.5725C98.3725 6.56539 98.437 6.57057 98.4986 6.58771C98.5601 6.60487 98.6175 6.63363 98.6673 6.67236C98.7171 6.71107 98.7583 6.75895 98.7886 6.81317C98.8188 6.86739 98.8375 6.92687 98.8435 6.98811C98.927 7.28891 98.9361 7.60431 98.8702 7.90912C98.6296 8.89426 97.801 9.23289 96.8708 8.91734C96.6097 8.83297 96.3807 8.67577 96.2132 8.46582C95.9898 8.21299 95.8314 7.91335 95.7508 7.591C95.6855 7.30394 95.6926 7.00609 95.7717 6.72225C95.8507 6.43841 95.9994 6.17682 96.2052 5.95935C96.4006 5.72298 96.6541 5.53696 96.943 5.41803C97.1255 5.32146 97.3391 5.29401 97.5417 5.34107C97.5877 5.35328 97.6294 5.37706 97.6626 5.40996C97.6957 5.44286 97.7191 5.48368 97.7303 5.52817C97.7415 5.57267 97.74 5.61922 97.7262 5.66301C97.7123 5.7068 97.6864 5.74623 97.6513 5.7772C97.5846 5.83519 97.5121 5.88675 97.4348 5.93113C97.1972 6.07637 96.9904 6.26354 96.8254 6.4827C96.7172 6.62452 96.6427 6.78738 96.6072 6.95979C96.5716 7.1322 96.5758 7.30999 96.6196 7.48069C96.6802 7.71341 96.8147 7.9223 97.0044 8.07843C97.5925 8.59153 98.357 8.09638 98.2233 7.39601C98.0282 7.4422 97.8571 7.49094 97.6834 7.53198Z" fill="#3A3B7B"/>
<path d="M101.276 8.97879C100.407 9.4919 99.4182 8.97879 99.2017 7.9013C99.044 7.13166 99.3433 6.05415 100.391 5.64367C100.614 5.55822 100.856 5.52822 101.094 5.55645C101.38 5.60674 101.643 5.74199 101.845 5.94313C102.047 6.14426 102.178 6.40114 102.219 6.67757C102.396 7.59343 101.995 8.57088 101.276 8.97879ZM101.578 7.25222C101.578 7.03911 101.499 6.83288 101.356 6.66986C101.28 6.56904 101.169 6.4968 101.043 6.46544C100.918 6.4341 100.784 6.44559 100.666 6.49798C100.196 6.69295 99.8646 7.40102 99.9849 7.92183C99.994 8.00356 100.022 8.08238 100.066 8.15277C100.11 8.22316 100.17 8.28343 100.241 8.32938C100.312 8.37531 100.393 8.4058 100.477 8.41872C100.562 8.43162 100.648 8.42664 100.731 8.40413C100.979 8.32075 101.195 8.16494 101.346 7.95842C101.498 7.75191 101.579 7.50501 101.578 7.25222Z" fill="#3A3B7B"/>
<path d="M103.098 9.19449C103.085 9.28838 103.033 9.37343 102.955 9.43093C102.877 9.48841 102.778 9.51365 102.68 9.50106C102.582 9.48847 102.493 9.4391 102.433 9.3638C102.373 9.28852 102.347 9.19346 102.36 9.09956C102.373 9.00567 102.425 8.92062 102.503 8.86312C102.582 8.80562 102.681 8.7804 102.779 8.79299C102.876 8.80558 102.965 8.85493 103.025 8.93023C103.085 9.00553 103.111 9.1006 103.098 9.19449ZM102.865 5.73365C102.916 5.65913 102.991 5.60238 103.078 5.57187C103.165 5.54135 103.26 5.53871 103.349 5.56433C103.44 5.58603 103.519 5.63686 103.575 5.70832C103.631 5.77978 103.66 5.86752 103.657 5.95685C103.645 6.10014 103.623 6.24245 103.59 6.38271C103.502 6.85733 103.416 7.33193 103.323 7.80143C103.28 7.98871 103.224 8.16829 103.162 8.35813C103.141 8.41748 103.105 8.4711 103.058 8.51463C103.029 8.54737 102.991 8.57248 102.949 8.58764C102.907 8.60282 102.862 8.60755 102.817 8.60142C102.773 8.59528 102.73 8.57846 102.695 8.55254C102.659 8.5266 102.63 8.49238 102.612 8.45306C102.58 8.38251 102.563 8.3067 102.561 8.22986C102.561 7.91174 102.561 7.59106 102.582 7.27036C102.618 6.81271 102.69 6.35824 102.796 5.91067C102.808 5.8507 102.832 5.79336 102.865 5.74135V5.73365Z" fill="#3A3B7B"/>
<path fill-rule="evenodd" clip-rule="evenodd" d="M90.8748 11.256C90.8433 11.3236 90.8346 11.399 90.85 11.4716C90.8603 11.5672 90.8828 11.6613 90.9171 11.7516C90.96 11.8623 91.0079 11.9717 91.0669 12.1065C91.0805 12.1376 91.0947 12.1699 91.1096 12.204C91.1893 12.3867 91.2892 12.6202 91.4226 12.9581C91.4603 13.0541 91.4938 13.1508 91.5276 13.2483C91.5412 13.2876 91.5549 13.3271 91.5689 13.3667C91.6191 13.5075 91.7055 13.6339 91.82 13.7341C91.8686 13.7892 91.9331 13.8293 92.0054 13.8494C92.0792 13.8699 92.1576 13.8686 92.2305 13.8457C92.3035 13.8228 92.3675 13.7793 92.4144 13.721C92.4604 13.6638 92.4877 13.5949 92.493 13.5229C92.5228 13.3826 92.5126 13.2372 92.4635 13.102C92.3855 12.8775 92.2967 12.6526 92.1942 12.4327L92.1938 12.4317C92.0252 12.0877 91.8539 11.746 91.6745 11.4042L91.6732 11.4018C91.6206 11.3127 91.5524 11.2331 91.4715 11.1665C91.4189 11.1071 91.3465 11.067 91.2664 11.0532C91.1847 11.0391 91.1004 11.0533 91.0286 11.0933C90.9607 11.1305 90.9068 11.1875 90.8748 11.256Z" fill="#3A3B7B"/>
<path fill-rule="evenodd" clip-rule="evenodd" d="M93.4489 10.4086C93.1847 10.3429 92.9087 10.3333 92.6402 10.3806C92.4323 10.4002 92.2278 10.4463 92.0858 10.5374C92.0135 10.5839 91.9551 10.6434 91.9227 10.7192C91.89 10.7953 91.8858 10.8824 91.9126 10.9795C91.9615 11.1572 92.0249 11.3301 92.0882 11.5023L92.0984 11.5302L92.0987 11.5309C92.2891 12.0313 92.4813 12.5301 92.6753 13.0272C92.6979 13.1055 92.7299 13.1811 92.7706 13.2524L92.7713 13.2537C92.8251 13.3422 92.8941 13.4214 92.9753 13.4879C93.016 13.5245 93.0662 13.5498 93.1207 13.5611C93.1758 13.5725 93.233 13.5692 93.2862 13.5515C93.3394 13.5339 93.3865 13.5025 93.4224 13.4609C93.4578 13.4199 93.4809 13.3706 93.4894 13.3181C93.5245 13.1754 93.5132 13.0259 93.4572 12.8896C93.4397 12.8437 93.426 12.7968 93.4115 12.7475C93.4067 12.731 93.4018 12.7143 93.3967 12.6972C93.8407 12.5306 94.3131 12.3066 94.4792 11.7856C94.5443 11.6055 94.5497 11.4105 94.4948 11.2273C94.4397 11.044 94.3269 10.8814 94.1717 10.7621C93.9605 10.5951 93.7138 10.4744 93.4489 10.4086ZM92.7164 11.0477C92.7252 11.0453 92.734 11.0431 92.7428 11.041C93.0319 10.9974 93.3276 11.0555 93.5756 11.2046C93.6849 11.2775 93.7296 11.3586 93.7373 11.4366C93.7453 11.5169 93.7149 11.6039 93.6537 11.6875C93.5383 11.8455 93.3276 11.972 93.1372 11.9955C92.9985 11.6888 92.8575 11.3697 92.7164 11.0477Z" fill="#3A3B7B"/>
<path d="M95.2106 9.84742C95.5253 9.70793 95.9151 9.68383 96.2201 9.78191C96.2969 9.80338 96.3636 9.84984 96.4087 9.91332C96.4535 9.97641 96.4741 10.0524 96.4672 10.1284C96.4668 10.1778 96.4542 10.2263 96.4304 10.2701C96.4063 10.3147 96.3713 10.353 96.3284 10.3819C96.2855 10.4107 96.2361 10.4293 96.1842 10.4359C96.1323 10.4426 96.0795 10.4371 96.0302 10.42L96.0265 10.4187L96.0229 10.4169C95.9978 10.4043 95.971 10.3947 95.9433 10.3885L95.9416 10.3882C95.727 10.3335 95.5246 10.4241 95.4507 10.5355C95.4154 10.5886 95.411 10.6422 95.4404 10.6909C95.4718 10.7431 95.549 10.8017 95.7051 10.8435C95.748 10.8548 95.792 10.8657 95.8366 10.8768C95.96 10.9075 96.0883 10.9394 96.2123 10.9835L96.2128 10.9837C96.785 11.1927 96.9981 11.6254 96.9252 12.0325C96.853 12.435 96.5027 12.8013 95.976 12.8878C95.7843 12.9285 95.5849 12.9206 95.3974 12.8647C95.2094 12.8087 95.0399 12.7064 94.9059 12.568L94.9024 12.5644C94.86 12.5123 94.8316 12.4511 94.8189 12.3861C94.8073 12.3274 94.8135 12.2668 94.8365 12.2114C94.8595 12.1563 94.8983 12.1086 94.9484 12.0739C95.0014 12.0345 95.0651 12.0109 95.1319 12.0059C95.1985 12.001 95.2651 12.0149 95.3235 12.0459C95.3819 12.0729 95.4362 12.1074 95.4849 12.1485L95.4858 12.1493C95.5721 12.2249 95.6764 12.2446 95.7764 12.2264C95.8779 12.2079 95.9733 12.1502 96.0347 12.0738C96.0956 11.9978 96.1201 11.9075 96.0911 11.8199C96.0618 11.7316 95.9739 11.6327 95.7808 11.5501C95.7303 11.5295 95.678 11.5129 95.6236 11.4967C95.6089 11.4924 95.5939 11.4881 95.5788 11.4837C95.5386 11.4719 95.4971 11.4598 95.4565 11.4465C95.4285 11.4374 95.4008 11.4287 95.3733 11.4201C95.2982 11.3966 95.225 11.3737 95.1545 11.343C95.0011 11.2929 94.8686 11.1967 94.7766 11.0685C94.6843 10.9399 94.6379 10.7861 94.6442 10.63C94.6447 10.2497 94.8942 9.98767 95.2106 9.84742Z" fill="#3A3B7B"/>
<path d="M99.2002 9.80669C99.1391 9.77809 99.0717 9.76451 99.0038 9.76717C98.936 9.76986 98.8699 9.78869 98.8115 9.82203C98.7536 9.85513 98.705 9.90147 98.6702 9.95694C98.6383 10.0037 98.6162 10.0559 98.6052 10.1108C98.5942 10.1656 98.5945 10.2219 98.606 10.2766C98.6173 10.3469 98.6299 10.4152 98.6424 10.4826C98.663 10.5942 98.683 10.7032 98.6963 10.8144L98.6967 10.8172C98.7269 10.9915 98.7426 11.1678 98.744 11.3445L98.7442 11.3471C98.7544 11.5379 98.6867 11.725 98.5555 11.8687L98.5534 11.8712C98.5107 11.9238 98.4536 11.9639 98.3885 11.987C98.3234 12.0102 98.2528 12.0155 98.1847 12.0024C98.1167 11.9893 98.0537 11.9583 98.003 11.9128C97.9522 11.8673 97.9156 11.809 97.8974 11.7447C97.8584 11.6092 97.8358 11.4699 97.83 11.3294L97.8967 10.3114C97.8977 10.2981 97.8988 10.2845 97.8999 10.2707C97.9025 10.2398 97.9051 10.2083 97.9061 10.1789C97.9077 10.1357 97.9064 10.0913 97.8959 10.0492C97.8851 10.0062 97.8647 9.96528 97.8285 9.93045C97.7926 9.89597 97.7442 9.87053 97.6833 9.85321C97.5731 9.8226 97.4799 9.82357 97.4023 9.85519C97.3246 9.88681 97.2714 9.94552 97.2337 10.0133C97.1964 10.0806 97.1724 10.1602 97.1542 10.2399C97.1407 10.2991 97.1299 10.3612 97.1196 10.4204C97.1161 10.4407 97.1126 10.4607 97.1091 10.4802L97.109 10.4807C97.0539 10.805 97.0375 11.1342 97.0601 11.4621C97.0643 11.6392 97.1028 11.8141 97.1737 11.9778C97.2536 12.1889 97.3983 12.3719 97.5888 12.5025C97.7797 12.6333 98.0075 12.7054 98.242 12.7092C98.4765 12.713 98.7067 12.6484 98.9021 12.5238C99.0972 12.3994 99.2483 12.2211 99.3356 12.0125C99.4577 11.7468 99.5151 11.4579 99.5032 11.1677C99.4961 10.9558 99.484 10.7423 99.4721 10.5299C99.4662 10.4257 99.4604 10.3217 99.4551 10.2184C99.4525 10.1148 99.4169 10.0144 99.3531 9.93078C99.3136 9.8779 99.2611 9.83526 99.2002 9.80669Z" fill="#3A3B7B"/>
<path d="M101.36 11.4031C101.354 11.4106 101.347 11.4184 101.34 11.4265C101.291 11.1517 101.245 10.877 101.199 10.6019C101.182 10.5032 101.166 10.4041 101.149 10.3052L101.147 10.2942L101.141 10.2847C101.129 10.2667 101.128 10.2492 101.128 10.2117V10.2073L101.127 10.203C101.115 10.1256 101.079 10.0535 101.023 9.99627C100.967 9.93917 100.895 9.89943 100.816 9.88218C100.736 9.86341 100.653 9.86754 100.576 9.89408C100.499 9.92055 100.433 9.96813 100.384 10.0308C100.344 10.079 100.31 10.1323 100.286 10.1894C100.229 10.3123 100.172 10.4354 100.115 10.559L100.114 10.5611C99.9719 10.8694 99.8286 11.1799 99.6894 11.4927L99.689 11.4937C99.6035 11.6966 99.533 11.9104 99.4627 12.1235C99.4487 12.166 99.4347 12.2085 99.4205 12.2509C99.3952 12.3182 99.3841 12.3896 99.3879 12.461C99.3832 12.5249 99.3992 12.5887 99.4336 12.6437C99.4686 12.6998 99.5212 12.7439 99.5837 12.7699C99.65 12.7978 99.7242 12.8037 99.7944 12.7867C99.8645 12.7698 99.9267 12.731 99.9713 12.6764C100.028 12.6092 100.077 12.5358 100.117 12.4582C100.235 12.2267 100.348 11.9925 100.46 11.7592C100.503 11.669 100.545 11.5882 100.593 11.5002C100.597 11.511 100.6 11.5216 100.604 11.5322C100.654 11.7447 100.739 11.9482 100.855 12.1353C100.877 12.1749 100.908 12.2095 100.945 12.2368C100.983 12.2644 101.026 12.2838 101.072 12.2936C101.119 12.3034 101.166 12.3035 101.213 12.2937C101.259 12.284 101.303 12.2646 101.34 12.2372L101.415 12.1836L101.994 11.7156L101.959 11.925C101.912 12.2128 101.866 12.4982 101.816 12.7836C101.784 12.9102 101.784 13.0423 101.816 13.1688C101.83 13.24 101.866 13.3055 101.919 13.3571C101.973 13.409 102.041 13.4443 102.116 13.4584C102.191 13.4725 102.268 13.4647 102.338 13.436C102.407 13.4078 102.466 13.3605 102.507 13.3004C102.602 13.1867 102.662 13.0491 102.678 12.9039C102.703 12.6989 102.73 12.4912 102.758 12.2834C102.79 12.044 102.822 11.8046 102.849 11.5699L102.849 11.5691C102.875 11.3121 102.888 11.0541 102.887 10.7959C102.893 10.7143 102.872 10.633 102.826 10.5635C102.781 10.4938 102.714 10.4396 102.635 10.4086C102.553 10.3727 102.46 10.363 102.372 10.3812C102.284 10.3993 102.204 10.4438 102.145 10.5082C102.038 10.603 101.938 10.7044 101.845 10.8118L101.844 10.8125C101.743 10.9339 101.642 11.0575 101.542 11.1804C101.481 11.2551 101.42 11.3297 101.36 11.4031Z" fill="#3A3B7B"/>
</g>
<rect x="119.149" y="0.894043" width="16.0256" height="16.0256" rx="2.67093" fill="#F5F7FA"/>
<g clip-path="url(#clip4_212_1585)">
<path d="M131.982 4.79708C131.982 4.95266 132.11 5.07878 132.267 5.07878H132.553C132.71 5.07878 132.838 4.95266 132.838 4.79708C132.838 4.6415 132.71 4.51538 132.553 4.51538H132.267C132.11 4.51538 131.982 4.6415 131.982 4.79708Z" fill="#212326"/>
<path d="M123.712 13.5298H125.097L124.694 13.1314C124.587 13.0257 124.442 12.9664 124.291 12.9664H123.712C121.507 12.9664 119.719 11.2007 119.719 9.02258C119.719 6.84448 121.507 5.07878 123.712 5.07878H128.275C130.48 5.07878 132.267 6.84448 132.267 9.02258C132.267 11.2007 130.48 12.9664 128.275 12.9664H126.568C126.341 12.9664 126.123 12.8773 125.963 12.7189L125.49 12.2521C125.223 11.988 124.86 11.8396 124.482 11.8396H123.712C122.137 11.8396 120.86 10.5784 120.86 9.02258C120.86 7.46678 122.137 6.20558 123.712 6.20558H128.275C129.85 6.20558 131.127 7.46678 131.127 9.02258C131.127 10.5784 129.85 11.8396 128.275 11.8396H127.179C126.952 11.8396 126.734 11.7505 126.574 11.5921L126.101 11.1253C125.834 10.8612 125.471 10.7128 125.093 10.7128H123.712C122.767 10.7128 122.001 9.95604 122.001 9.02258C122.001 8.08912 122.767 7.33238 123.712 7.33238H128.275C129.22 7.33238 129.986 8.08912 129.986 9.02258C129.986 9.94466 129.238 10.6943 128.309 10.7124L128.309 10.7128H127.892C127.665 10.7128 127.447 10.6237 127.287 10.4653L126.814 9.99852C126.595 9.78177 126.311 9.64297 126.008 9.60013L125.993 9.58598H123.712C123.397 9.58598 123.142 9.33373 123.142 9.02258C123.142 8.71142 123.397 8.45918 123.712 8.45918H128.275C128.59 8.45918 128.845 8.71142 128.845 9.02258C128.845 9.33373 128.59 9.58598 128.275 9.58598H127.134L127.537 9.98437C127.644 10.09 127.789 10.1494 127.941 10.1494H128.275C128.905 10.1494 129.416 9.64489 129.416 9.02258C129.416 8.40027 128.905 7.89578 128.275 7.89578H123.712C123.082 7.89578 122.571 8.40027 122.571 9.02258C122.571 9.64489 123.082 10.1494 123.712 10.1494H125.806C126.033 10.1494 126.251 10.2384 126.411 10.3969L126.884 10.8636C127.151 11.1278 127.514 11.2762 127.892 11.2762H128.417V11.2719C129.611 11.1992 130.556 10.2199 130.556 9.02258C130.556 7.77796 129.535 6.76898 128.275 6.76898H123.712C122.452 6.76898 121.431 7.77796 121.431 9.02258C121.431 10.2672 122.452 11.2762 123.712 11.2762H125.093C125.32 11.2762 125.538 11.3652 125.698 11.5237L126.171 11.9904C126.438 12.2546 126.801 12.403 127.179 12.403H128.275C130.165 12.403 131.697 10.8895 131.697 9.02258C131.697 7.15563 130.165 5.64218 128.275 5.64218H123.712C121.822 5.64218 120.29 7.15563 120.29 9.02258C120.29 10.8895 121.822 12.403 123.712 12.403H124.482C124.709 12.403 124.927 12.492 125.087 12.6505L125.56 13.1172C125.827 13.3814 126.19 13.5298 126.568 13.5298H128.275C130.795 13.5298 132.838 11.5118 132.838 9.02258C132.838 6.53332 130.795 4.51538 128.275 4.51538L123.712 4.51538C121.192 4.51538 119.149 6.53332 119.149 9.02258C119.149 11.5118 121.192 13.5298 123.712 13.5298Z" fill="#212326"/>
</g>
<rect x="148.863" y="0.894043" width="16.0256" height="16.0256" rx="2.67093" fill="#F5F7FA"/>
<g clip-path="url(#clip5_212_1585)">
<path d="M152.984 5.51709C152.306 5.51709 151.656 5.78642 151.177 6.26583L149.612 7.83043C149.133 8.30984 148.863 8.96006 148.863 9.63805C148.863 11.0499 150.008 12.1944 151.42 12.1944C152.098 12.1944 152.748 11.9251 153.227 11.4457L154.31 10.3634C154.31 10.3634 154.31 10.3635 154.31 10.3634L157.463 7.21015C157.692 6.98119 158.002 6.85256 158.326 6.85256C158.868 6.85256 159.328 7.20588 159.487 7.69481L160.482 6.69964C160.028 5.98859 159.232 5.51709 158.326 5.51709C157.648 5.51709 156.998 5.78642 156.518 6.26583L152.283 10.5014C152.054 10.7303 151.743 10.859 151.42 10.859C150.745 10.859 150.199 10.3123 150.199 9.63805C150.199 9.31424 150.327 9.0037 150.556 8.77474L152.121 7.21015C152.35 6.98119 152.66 6.85256 152.984 6.85256C153.526 6.85256 153.986 7.20589 154.145 7.69484L155.14 6.69966C154.686 5.9886 153.89 5.51709 152.984 5.51709Z" fill="#394149"/>
<path d="M157.625 10.5014C157.396 10.7303 157.085 10.859 156.762 10.859C156.22 10.859 155.76 10.5057 155.601 10.0169L154.605 11.012C155.059 11.723 155.855 12.1944 156.762 12.1944C157.44 12.1944 158.09 11.9251 158.569 11.4457L162.805 7.21015C163.034 6.98119 163.344 6.85256 163.668 6.85256C164.342 6.85256 164.889 7.39917 164.889 8.07346C164.889 8.39727 164.76 8.70781 164.531 8.93677L162.967 10.5014C162.738 10.7303 162.427 10.859 162.103 10.859C161.561 10.859 161.102 10.5057 160.942 10.0168L159.947 11.0119C160.401 11.723 161.197 12.1944 162.103 12.1944C162.781 12.1944 163.432 11.9251 163.911 11.4457L165.476 9.88108C165.955 9.40167 166.224 8.75146 166.224 8.07346C166.224 6.66162 165.08 5.51709 163.668 5.51709C162.99 5.51709 162.34 5.78642 161.86 6.26583L157.625 10.5014Z" fill="#394149"/>
</g>
<defs>
<clipPath id="clip0_212_1585">
<rect width="13.3547" height="13.3547" fill="white" transform="translate(0.410583 0.958984)"/>
</clipPath>
<clipPath id="clip1_212_1585">
<rect width="13.3547" height="9.34826" fill="white" transform="translate(30.0443 4.18164)"/>
</clipPath>
<clipPath id="clip2_212_1585">
<rect width="18.3627" height="10.016" fill="white" transform="translate(59.7209 3.84766)"/>
</clipPath>
<clipPath id="clip3_212_1585">
<rect width="15.6917" height="9.68213" fill="white" transform="translate(89.435 4.18164)"/>
</clipPath>
<clipPath id="clip4_212_1585">
<rect width="13.6885" height="9.0144" fill="white" transform="translate(119.149 4.51538)"/>
</clipPath>
<clipPath id="clip5_212_1585">
<rect width="17.3611" height="6.67733" fill="white" transform="translate(148.863 5.51709)"/>
</clipPath>
</defs>
</svg>
