<svg width="148" height="146" viewBox="0 0 148 146" fill="none" xmlns="http://www.w3.org/2000/svg">
<path d="M126.068 145.398C126.068 145.447 102.107 145.488 72.5592 145.488C43.0117 145.488 19.0404 145.447 19.0404 145.398C19.0404 145.35 42.9979 145.309 72.5592 145.309C102.12 145.309 126.068 145.353 126.068 145.398Z" fill="#263238"/>
<path d="M102.721 103.156C97.3897 99.4327 96.182 92.5212 96.3925 86.3066C96.427 85.2715 96.3131 84.1742 96.8066 83.2667C97.3 82.3592 98.4525 81.7346 99.3807 82.1694C100.15 82.5317 100.485 83.4288 100.916 84.1707C101.492 85.1588 102.335 85.9639 103.349 86.493C104.008 86.838 104.826 87.0451 105.478 86.6862C106.375 86.1928 106.479 84.9609 106.472 83.9257C106.472 82.0003 106.46 80.0772 106.437 78.1563C106.375 77.1249 106.48 76.0902 106.748 75.0922C107.069 74.1122 107.783 73.2047 108.759 72.9287C109.736 72.6526 110.954 73.222 111.175 74.2295C111.213 74.6563 111.223 75.0851 111.206 75.5132C111.234 75.9445 111.434 76.4172 111.837 76.5483C112.241 76.6795 112.662 76.3793 112.973 76.0756C114.035 75.0404 114.76 73.6912 115.433 72.3593C116.106 71.0274 116.765 69.6575 117.731 68.5222C118.697 67.387 120.033 66.4864 121.527 66.4001C123.021 66.3139 124.577 67.2317 124.95 68.681C125.322 70.1302 124.477 71.6105 123.569 72.7872C122.2 74.5338 120.586 76.0737 118.777 77.3592C118.423 77.5521 118.142 77.8533 117.973 78.2184C117.748 78.9086 118.4 79.5987 119.08 79.8161C119.85 80.0714 120.685 79.992 121.496 80.0886C122.306 80.1853 123.169 80.5372 123.476 81.2964C123.897 82.3522 123.014 83.4564 122.148 84.1811C120.409 85.6303 118.434 86.7706 116.309 87.5523C115.55 87.8283 114.753 88.0733 114.139 88.6047C113.525 89.1361 113.159 90.0643 113.528 90.7924C113.897 91.5205 114.846 91.7517 115.643 91.6033C116.44 91.4549 117.148 91.0271 117.907 90.7407C119.325 90.2058 121.154 90.3024 122.048 91.5274C122.325 91.9494 122.5 92.4298 122.56 92.9309C122.62 93.432 122.562 93.9402 122.393 94.4155C122.047 95.3615 121.516 96.2286 120.83 96.9655C118.57 99.6657 115.633 101.717 112.32 102.911C109.032 104.05 105.985 104.36 102.717 103.163" fill="#4CAF4F"/>
<path d="M123.431 67.2524C123.431 67.2524 123.4 67.2869 123.331 67.3491L123.024 67.6217C122.755 67.8632 122.358 68.2152 121.858 68.681C120.439 69.9981 119.122 71.4204 117.917 72.9356C117.148 73.8914 116.351 74.9749 115.502 76.1515C114.653 77.3282 113.777 78.598 112.907 79.9472C111.98 81.3699 111.131 82.8421 110.364 84.3571C109.964 85.1473 109.612 85.9719 109.249 86.8139L108.18 89.3846C106.77 92.6226 105.542 95.9369 104.501 99.312C103.663 102.073 103.086 104.907 102.776 107.776C102.575 109.713 102.543 111.663 102.679 113.604C102.735 114.294 102.786 114.822 102.835 115.181C102.855 115.354 102.869 115.492 102.883 115.592V115.733C102.868 115.688 102.858 115.642 102.852 115.595C102.835 115.495 102.814 115.361 102.786 115.188C102.724 114.843 102.659 114.298 102.597 113.608C102.43 111.662 102.442 109.706 102.631 107.762C102.922 104.881 103.487 102.034 104.318 99.2602C105.35 95.8757 106.575 92.5531 107.986 89.3087L109.084 86.7483C109.446 85.9098 109.801 85.0782 110.205 84.2846C110.978 82.765 111.833 81.2894 112.769 79.8644C113.652 78.4841 114.543 77.235 115.381 76.0687C116.22 74.9024 117.03 73.812 117.796 72.8597C119.013 71.3485 120.348 69.9362 121.789 68.6361C122.299 68.1772 122.707 67.8321 122.983 67.601L123.304 67.3422C123.343 67.3079 123.386 67.2778 123.431 67.2524Z" fill="#263238"/>
<path d="M110.25 84.2777C110.201 84.1356 110.168 83.9887 110.15 83.8395C110.095 83.5531 110.033 83.1494 109.96 82.6249C109.812 81.5897 109.66 80.1715 109.498 78.6015C109.336 77.0315 109.153 75.6098 109.001 74.585C108.922 74.0743 108.853 73.6637 108.804 73.3773C108.766 73.2307 108.747 73.0801 108.746 72.9287C108.805 73.0669 108.848 73.2117 108.873 73.36C108.949 73.643 109.035 74.0502 109.132 74.5643C109.329 75.5995 109.522 77.0073 109.684 78.5808C109.846 80.1543 109.984 81.5345 110.091 82.6076C110.143 83.0907 110.188 83.5013 110.222 83.8292C110.249 83.9771 110.258 84.1276 110.25 84.2777Z" fill="#263238"/>
<path d="M123.528 81.8002C123.36 81.8368 123.189 81.8576 123.017 81.8623C122.672 81.8934 122.182 81.9348 121.575 82.0038C120.36 82.1349 118.69 82.3765 116.858 82.7215C115.026 83.0666 113.38 83.4565 112.196 83.7567C111.606 83.9085 111.13 84.0466 110.816 84.1397C110.648 84.1993 110.475 84.2409 110.298 84.2639C110.458 84.1838 110.624 84.1179 110.795 84.0673C111.12 83.9534 111.589 83.7947 112.175 83.6256C113.352 83.2805 114.998 82.8699 116.837 82.5179C118.395 82.22 119.967 82.0012 121.547 81.8623C122.158 81.8106 122.651 81.7899 122.997 81.783C123.174 81.7709 123.352 81.7767 123.528 81.8002Z" fill="#263238"/>
<path d="M104.488 99.0186C104.451 98.9687 104.421 98.9141 104.398 98.8564L104.17 98.3768C103.973 97.9593 103.708 97.3416 103.39 96.5859C102.748 95.0677 101.931 92.9421 101.061 90.5819C100.192 88.2217 99.391 86.0961 98.7837 84.5606C98.4869 83.8153 98.2419 83.2045 98.0591 82.749L97.8658 82.2556C97.839 82.1987 97.8204 82.1383 97.8106 82.0762C97.8474 82.1261 97.8775 82.1806 97.9003 82.2384L98.1281 82.718C98.3213 83.1355 98.5904 83.7532 98.9079 84.5089C99.5497 86.0271 100.367 88.1527 101.237 90.5129C102.107 92.8731 102.907 94.9987 103.514 96.5342C103.811 97.2795 104.056 97.8903 104.236 98.3457C104.315 98.5424 104.381 98.6908 104.432 98.8392C104.459 98.8961 104.478 98.9565 104.488 99.0186Z" fill="#263238"/>
<path d="M122.113 93.3354C122.058 93.3672 121.999 93.3915 121.937 93.4079L121.427 93.5804L119.539 94.1912C117.945 94.7088 115.743 95.4472 113.328 96.2616C110.913 97.0759 108.701 97.8005 107.096 98.2836C106.296 98.5286 105.643 98.7149 105.191 98.8392L104.67 98.9737C104.61 98.993 104.547 99.0057 104.484 99.0117C104.539 98.98 104.598 98.9556 104.66 98.9392L105.171 98.7667L107.058 98.1559C108.652 97.6383 110.854 96.8999 113.269 96.0856C115.685 95.2712 117.893 94.5466 119.498 94.0635C120.302 93.8185 120.95 93.6322 121.406 93.508L121.927 93.3734C121.987 93.3542 122.05 93.3414 122.113 93.3354Z" fill="#263238"/>
<path d="M114.922 9.63449L113.145 10.2694L112.383 7.94715C110.982 3.66496 106.517 1.39101 102.414 2.83681C98.311 4.28261 96.1268 8.97888 97.5277 13.2611L98.2903 15.5833L96.5064 16.2217C95.8261 16.4855 95.2737 17.0014 94.964 17.662C94.6542 18.3226 94.611 19.0772 94.8432 19.7689L99.7879 34.8791C99.8905 35.2215 100.061 35.5398 100.289 35.815C100.517 36.0903 100.798 36.3169 101.116 36.4813C101.433 36.6458 101.78 36.7448 102.137 36.7725C102.493 36.8001 102.851 36.7559 103.19 36.6423L121.606 30.0551C122.295 29.7917 122.856 29.2713 123.169 28.6033C123.482 27.9353 123.524 27.1718 123.286 26.4734L118.338 11.3632C118.233 11.0218 118.06 10.705 117.83 10.4319C117.599 10.1588 117.316 9.93488 116.997 9.77354C116.679 9.61219 116.33 9.51673 115.974 9.49284C115.617 9.46895 115.26 9.51713 114.922 9.63449ZM100.885 12.0499C100.507 10.9365 100.575 9.72006 101.074 8.65551C101.574 7.59096 102.465 6.76087 103.563 6.33917C104.105 6.15375 104.679 6.07939 105.25 6.12054C105.821 6.16168 106.378 6.31749 106.888 6.57867C107.398 6.83984 107.85 7.20103 108.217 7.64068C108.584 8.08032 108.859 8.58943 109.025 9.13761L109.784 11.4599L101.644 14.3722L100.885 12.0499ZM111.237 25.4589L112.5 29.3167C112.523 29.3941 112.516 29.4774 112.479 29.5493C112.442 29.6213 112.379 29.6764 112.303 29.7032L110.533 30.3346C110.463 30.3542 110.387 30.3457 110.323 30.3109C110.259 30.2762 110.21 30.2179 110.188 30.1483L108.915 26.3078C108.213 26.2695 107.539 26.0177 106.984 25.586C106.429 25.1544 106.019 24.5634 105.809 23.8924C105.509 23.0052 105.564 22.0363 105.962 21.1886C106.36 20.3409 107.071 19.6801 107.945 19.3445C108.377 19.197 108.834 19.1379 109.289 19.1708C109.744 19.2036 110.188 19.3278 110.594 19.5358C111 19.7438 111.36 20.0314 111.652 20.3815C111.945 20.7316 112.164 21.137 112.296 21.5736C112.518 22.2552 112.537 22.9869 112.349 23.6788C112.162 24.3708 111.776 24.993 111.24 25.4693L111.237 25.4589Z" fill="#4CAF4F"/>
<path d="M113.066 10.228C113.066 10.2763 109.77 11.5151 105.671 12.9885C101.572 14.4619 98.2282 15.6455 98.2109 15.611C98.1937 15.5765 101.506 14.3273 105.609 12.8505C109.712 11.3736 113.049 10.1832 113.066 10.228Z" fill="#263238"/>
<path d="M116.979 10.8628C116.994 10.8927 117.007 10.9239 117.017 10.956C117.044 11.025 117.075 11.1147 117.117 11.2251C117.206 11.477 117.331 11.8255 117.486 12.2603L118.811 16.1181C119.363 17.7536 120.022 19.6929 120.754 21.8461C121.099 22.9261 121.506 24.051 121.885 25.2345C122.089 25.8444 122.176 26.4869 122.144 27.1289C122.115 27.4628 122.02 27.7877 121.865 28.0847C121.699 28.3808 121.478 28.6421 121.213 28.8542C120.68 29.2434 120.088 29.545 119.46 29.7479L117.683 30.3863L114.318 31.5905L108.621 33.6195L104.774 34.9721L103.739 35.3172L103.463 35.4069C103.433 35.42 103.402 35.4282 103.37 35.4311C103.37 35.4311 103.397 35.4311 103.456 35.3897L103.725 35.2827L104.76 34.8928L108.587 33.4849L114.273 31.4146L117.631 30.2L119.408 29.5581C120.018 29.3635 120.593 29.071 121.109 28.692C121.356 28.4952 121.562 28.2527 121.716 27.9778C121.863 27.703 121.951 27.4012 121.975 27.091C122.007 26.4723 121.923 25.8532 121.727 25.2656C121.354 24.0924 120.961 22.9571 120.605 21.8771C119.888 19.7205 119.225 17.7743 118.701 16.1388C118.176 14.5032 117.734 13.1885 117.431 12.2637C117.286 11.8117 117.175 11.4597 117.086 11.2044L117.003 10.9284C116.992 10.9074 116.984 10.8855 116.979 10.8628Z" fill="#263238"/>
<path d="M107.262 6.10447C107.262 6.10447 107.079 6.01475 106.741 5.87673C106.259 5.69152 105.749 5.58887 105.233 5.57307C104.468 5.54684 103.707 5.69062 103.004 5.99405C102.149 6.37188 101.419 6.98301 100.896 7.7573C100.369 8.52938 100.087 9.4418 100.085 10.3763C100.092 11.1422 100.208 11.9033 100.43 12.6365C100.609 13.2645 100.795 13.7648 100.92 14.1133C100.993 14.2903 101.053 14.4726 101.099 14.6585C101.001 14.493 100.919 14.3185 100.854 14.1375C100.713 13.7924 100.509 13.3024 100.309 12.671C100.063 11.9301 99.9295 11.1567 99.9121 10.3763C99.9029 9.40649 100.192 8.45728 100.74 7.65724C101.282 6.85466 102.042 6.22463 102.931 5.84222C103.656 5.53713 104.441 5.40255 105.226 5.44885C105.753 5.47573 106.271 5.5985 106.755 5.81117C106.884 5.87078 107.008 5.93998 107.127 6.0182C107.176 6.03977 107.222 6.06887 107.262 6.10447Z" fill="#263238"/>
<path d="M107.421 19.6068C107.476 19.5734 107.533 19.5446 107.593 19.5205C107.766 19.4426 107.945 19.3791 108.128 19.3308C108.419 19.2449 108.719 19.1939 109.022 19.1789C109.434 19.1568 109.846 19.219 110.233 19.3618C111.116 19.6724 111.927 20.573 112.327 21.7772C112.519 22.4235 112.519 23.1116 112.327 23.7579C112.115 24.4593 111.733 25.0979 111.216 25.6177L111.237 25.5246C111.696 26.784 112.196 28.1505 112.714 29.5756L112.745 29.6618L112.659 29.6929L111.868 29.9551L110.143 30.5314L110.057 30.559L110.029 30.4727C109.557 29.0442 109.039 27.7123 108.649 26.4045L108.725 26.4631C108.05 26.4071 107.407 26.1539 106.875 25.7351C106.394 25.3645 106 24.8935 105.719 24.3548C105.467 23.8771 105.341 23.3424 105.354 22.8021C105.37 22.2498 105.508 21.7078 105.758 21.2151C106.007 20.7224 106.363 20.291 106.8 19.9519C106.979 19.8061 107.181 19.6896 107.396 19.6068C107.202 19.7224 107.013 19.848 106.831 19.9829C106.351 20.3883 105.984 20.9099 105.764 21.4977C105.576 21.941 105.487 22.4206 105.506 22.902C105.524 23.3835 105.649 23.8549 105.871 24.2824C106.147 24.8006 106.532 25.2527 107 25.6074C107.507 26.0055 108.12 26.2455 108.763 26.2975H108.822L108.839 26.3493C109.218 27.6329 109.739 28.9752 110.219 30.4106L110.105 30.3554L111.83 29.7792L112.617 29.5135L112.562 29.6308C112.048 28.2057 111.551 26.8358 111.096 25.5763V25.5246L111.137 25.4832C111.639 24.9849 112.013 24.3729 112.227 23.6992C112.41 23.081 112.41 22.423 112.227 21.8048C111.851 20.6454 111.075 19.7655 110.233 19.455C109.86 19.3113 109.462 19.2444 109.063 19.2583C108.765 19.2651 108.469 19.3056 108.18 19.3791C107.666 19.5067 107.424 19.6241 107.421 19.6068Z" fill="#263238"/>
<path d="M96.7548 119.239L62.2868 119.081C60.2963 119.07 58.3915 118.269 56.9908 116.855C55.5901 115.44 54.808 113.528 54.8162 111.538L55.182 25.1311C55.1861 24.1449 55.3844 23.1692 55.7658 22.2598C56.1472 21.3503 56.704 20.5249 57.4046 19.8308C58.1051 19.1367 58.9355 18.5875 59.8484 18.2145C60.7614 17.8415 61.7388 17.6521 62.725 17.6571L97.1896 17.8158C99.1801 17.8259 101.085 18.6255 102.487 20.0392C103.888 21.4528 104.671 23.3649 104.664 25.3554L104.298 111.758C104.294 112.745 104.095 113.721 103.714 114.631C103.333 115.541 102.776 116.366 102.076 117.061C101.375 117.756 100.545 118.306 99.6319 118.679C98.7189 119.053 97.7413 119.243 96.7548 119.239Z" fill="#455A64"/>
<path d="M97.1378 20.7868H90.4574C90.2395 20.7909 90.0244 20.8378 89.8246 20.925C89.6248 21.0122 89.4441 21.1378 89.2928 21.2948C89.1416 21.4519 89.0227 21.6371 88.9431 21.8401C88.8635 22.043 88.8246 22.2597 88.8287 22.4776V23.6888C88.8329 23.9066 88.794 24.1231 88.7143 24.3258C88.6346 24.5286 88.5157 24.7136 88.3644 24.8704C88.2132 25.0271 88.0324 25.1524 87.8326 25.2392C87.6328 25.326 87.4179 25.3726 87.2001 25.3761L74.1775 25.3175C73.737 25.3057 73.3191 25.1196 73.0156 24.8C72.7122 24.4804 72.548 24.0534 72.5592 23.6129V22.4017C72.5703 21.9617 72.4066 21.5353 72.1039 21.2158C71.8012 20.8963 71.3842 20.7098 70.9443 20.6971H68.5944L62.7457 20.6695C61.3545 20.6612 60.0168 21.2045 59.0253 22.1805C58.0339 23.1564 57.4696 24.4854 57.4559 25.8765L57.1108 110.216C57.1077 110.906 57.2404 111.59 57.5016 112.229C57.7628 112.868 58.1472 113.449 58.633 113.939C59.1187 114.429 59.6963 114.819 60.3327 115.086C60.9691 115.353 61.6518 115.492 62.3419 115.495L96.7375 115.654C97.4281 115.657 98.1126 115.524 98.7518 115.263C99.391 115.002 99.9725 114.617 100.463 114.131C100.954 113.645 101.344 113.067 101.611 112.43C101.878 111.793 102.017 111.11 102.02 110.42L102.365 26.0801C102.374 24.685 101.828 23.3438 100.847 22.3512C99.8671 21.3587 98.5328 20.796 97.1378 20.7868Z" fill="white"/>
<path d="M92.5106 104.402L66.9347 104.291C66.669 104.291 66.4551 104.001 66.4585 103.649L66.4861 96.9587C66.4861 96.6136 66.7035 96.3169 66.9692 96.3169L92.5451 96.4342C92.6923 96.4597 92.824 96.541 92.9127 96.6612C93.0015 96.7814 93.0403 96.9313 93.0213 97.0795L92.9971 103.763C92.9971 104.119 92.7763 104.405 92.5106 104.402Z" fill="#4CAF4F"/>
<path d="M74.7108 100.321C74.5696 100.321 74.4338 100.299 74.3035 100.253C74.175 100.206 74.0755 100.147 74.0049 100.074L74.0836 99.9194C74.1506 99.9846 74.2402 100.04 74.3524 100.085C74.4664 100.128 74.5859 100.15 74.7108 100.15C74.8302 100.15 74.927 100.136 75.0012 100.107C75.0772 100.076 75.1324 100.035 75.1668 99.9846C75.203 99.9339 75.2211 99.8778 75.2211 99.8163C75.2211 99.7421 75.1994 99.6823 75.156 99.6371C75.1143 99.5919 75.0591 99.5566 74.9904 99.5312C74.9216 99.5041 74.8456 99.4805 74.7623 99.4606C74.6791 99.4407 74.5958 99.4199 74.5126 99.3982C74.4293 99.3747 74.3524 99.3439 74.2818 99.3059C74.213 99.2679 74.1569 99.2181 74.1135 99.1566C74.0719 99.0932 74.0511 99.0109 74.0511 98.9095C74.0511 98.8154 74.0755 98.7295 74.1244 98.6516C74.175 98.572 74.252 98.5087 74.3551 98.4616C74.4583 98.4127 74.5904 98.3883 74.7515 98.3883C74.8583 98.3883 74.9641 98.4037 75.0691 98.4345C75.1741 98.4634 75.2646 98.5041 75.3406 98.5566L75.2727 98.7168C75.1913 98.6625 75.1044 98.6227 75.0121 98.5973C74.9216 98.572 74.8338 98.5593 74.7488 98.5593C74.6347 98.5593 74.5406 98.5747 74.4664 98.6055C74.3922 98.6363 74.337 98.6779 74.3008 98.7304C74.2664 98.781 74.2492 98.839 74.2492 98.9041C74.2492 98.9783 74.2701 99.038 74.3117 99.0833C74.3551 99.1285 74.4112 99.1638 74.48 99.1892C74.5506 99.2145 74.6275 99.2371 74.7108 99.257C74.794 99.2769 74.8764 99.2987 74.9578 99.3222C75.041 99.3457 75.1171 99.3765 75.1858 99.4145C75.2564 99.4507 75.3125 99.4996 75.3542 99.5611C75.3976 99.6226 75.4193 99.7032 75.4193 99.8027C75.4193 99.895 75.394 99.981 75.3433 100.061C75.2926 100.138 75.2148 100.202 75.1098 100.251C75.0067 100.298 74.8736 100.321 74.7108 100.321ZM75.857 100.305V98.4046H76.0579V100.305H75.857ZM76.6762 100.305V98.4046H76.8418L78.1531 100.055H78.0662V98.4046H78.2644V100.305H78.0988L76.7902 98.6544H76.8771V100.305H76.6762ZM79.7181 100.321C79.5733 100.321 79.4393 100.298 79.3163 100.251C79.195 100.202 79.0891 100.134 78.9986 100.047C78.91 99.9602 78.8403 99.8579 78.7896 99.7403C78.7407 99.6226 78.7163 99.4941 78.7163 99.3548C78.7163 99.2154 78.7407 99.0869 78.7896 98.9693C78.8403 98.8516 78.9109 98.7494 79.0014 98.6625C79.0918 98.5756 79.1977 98.5087 79.319 98.4616C79.442 98.4127 79.576 98.3883 79.7208 98.3883C79.8656 98.3883 79.9977 98.4109 80.1171 98.4562C80.2384 98.5014 80.3415 98.5702 80.4266 98.6625L80.3017 98.7901C80.2221 98.7105 80.1343 98.6534 80.0384 98.6191C79.9425 98.5847 79.8393 98.5675 79.7289 98.5675C79.6113 98.5675 79.5027 98.5874 79.4031 98.6272C79.3054 98.6652 79.2194 98.7204 79.1452 98.7928C79.0728 98.8634 79.0158 98.9466 78.9742 99.0426C78.9344 99.1367 78.9145 99.2407 78.9145 99.3548C78.9145 99.467 78.9344 99.571 78.9742 99.667C79.0158 99.7629 79.0728 99.847 79.1452 99.9194C79.2194 99.99 79.3054 100.045 79.4031 100.085C79.5027 100.123 79.6104 100.142 79.7262 100.142C79.8348 100.142 79.937 100.126 80.033 100.093C80.1307 100.061 80.2203 100.005 80.3017 99.9276L80.4157 100.08C80.3253 100.159 80.2194 100.22 80.0981 100.261C79.9769 100.301 79.8502 100.321 79.7181 100.321ZM80.223 100.055V99.3548H80.4157V100.08L80.223 100.055ZM82.4604 100.321C82.2179 100.321 82.0269 100.252 81.8876 100.112C81.7482 99.9728 81.6785 99.7665 81.6785 99.4932V98.4046H81.8794V99.4851C81.8794 99.7095 81.9301 99.8751 82.0315 99.9819C82.1328 100.089 82.2758 100.142 82.4604 100.142C82.6468 100.142 82.7907 100.089 82.892 99.9819C82.9934 99.8751 83.0441 99.7095 83.0441 99.4851V98.4046H83.2395V99.4932C83.2395 99.7665 83.1698 99.9728 83.0305 100.112C82.8929 100.252 82.7029 100.321 82.4604 100.321ZM83.8449 100.305V98.4046H84.5562C84.7172 98.4046 84.8557 98.4308 84.9715 98.4833C85.0874 98.534 85.176 98.6082 85.2376 98.7059C85.3009 98.8019 85.3326 98.9186 85.3326 99.0561C85.3326 99.1901 85.3009 99.3059 85.2376 99.4036C85.176 99.4996 85.0874 99.5738 84.9715 99.6262C84.8557 99.6787 84.7172 99.705 84.5562 99.705H83.9562L84.0458 99.61V100.305H83.8449ZM84.0458 99.6262L83.9562 99.5285H84.5507C84.7408 99.5285 84.8847 99.4878 84.9824 99.4063C85.0819 99.3231 85.1317 99.2064 85.1317 99.0561C85.1317 98.9041 85.0819 98.7865 84.9824 98.7032C84.8847 98.62 84.7408 98.5783 84.5507 98.5783H83.9562L84.0458 98.4833V99.6262Z" fill="#E8E8E3"/>
<path d="M72.0361 45.5793L63.1613 45.5391L63.1539 47.1677L72.0287 47.208L72.0361 45.5793Z" fill="#4CAF4F"/>
<path opacity="0.1" d="M72.0361 45.5793L63.1613 45.5391L63.1539 47.1677L72.0287 47.208L72.0361 45.5793Z" fill="black"/>
<path d="M98.0522 55.579C98.1219 55.572 98.1904 55.5557 98.2558 55.5307C98.3513 55.4934 98.4343 55.4299 98.4954 55.3475C98.5564 55.2651 98.593 55.1671 98.6009 55.0649C98.6009 54.5162 98.6009 53.7157 98.6009 52.6874C98.6009 52.1733 98.6009 51.597 98.6009 50.9621C98.6009 50.8068 98.6009 50.6447 98.6009 50.4825C98.6233 50.3251 98.5891 50.1649 98.5042 50.0305C98.4567 49.966 98.3949 49.9135 98.3237 49.8769C98.2524 49.8404 98.1737 49.8209 98.0936 49.82H97.5553H92.5692L63.7084 49.713C63.6345 49.7118 63.5615 49.7283 63.4954 49.7614C63.4293 49.7944 63.3722 49.8429 63.3288 49.9028C63.2455 50.0378 63.2137 50.1983 63.2391 50.3548C63.2391 50.6999 63.2391 51.0449 63.2391 51.39C63.2391 52.0801 63.2391 52.7702 63.2391 53.4604C63.2391 53.8054 63.2391 54.1505 63.2391 54.4955C63.2248 54.6562 63.2248 54.8179 63.2391 54.9786C63.2573 55.0475 63.2909 55.1113 63.3376 55.1652C63.3843 55.219 63.4426 55.2614 63.5083 55.2892C63.5763 55.3162 63.6491 55.3292 63.7222 55.3271H65.4786L73.1423 55.3685L86.1166 55.4479L94.8639 55.5169L97.2413 55.5445H97.859C98.0005 55.5445 98.0695 55.5445 98.0695 55.5445H97.859H97.2413H94.8639H86.1166L73.1423 55.5031L65.4786 55.4721H63.7222C63.6256 55.476 63.5291 55.4595 63.4393 55.4238C63.3484 55.385 63.2676 55.326 63.203 55.2512C63.1384 55.1765 63.0918 55.088 63.0666 54.9924C63.0466 54.9019 63.0396 54.8089 63.0459 54.7164V54.461C63.0459 54.116 63.0459 53.7709 63.0459 53.4259C63.0459 52.7357 63.0459 52.0456 63.0459 51.3555C63.0459 51.0104 63.0459 50.6654 63.0459 50.3203C63.0393 50.2284 63.0393 50.1362 63.0459 50.0443C63.0588 49.9428 63.0981 49.8464 63.1598 49.7648C63.2193 49.6815 63.2981 49.6138 63.3894 49.5675C63.4807 49.5213 63.5819 49.4978 63.6843 49.4991L92.5451 49.6578L97.5312 49.6923H98.0695C98.1643 49.6924 98.2577 49.7153 98.3418 49.7592C98.4259 49.803 98.4982 49.8665 98.5526 49.9442C98.6498 50.0942 98.6891 50.2746 98.663 50.4514C98.663 50.6136 98.663 50.7758 98.663 50.9311C98.663 51.5591 98.663 52.1353 98.663 52.6564C98.663 53.6915 98.6388 54.4852 98.6319 55.0373C98.6235 55.1434 98.5849 55.245 98.5207 55.3299C98.4565 55.4149 98.3694 55.4798 98.2696 55.5169C98.2043 55.5574 98.129 55.5789 98.0522 55.579Z" fill="#E0E0E0"/>
<path d="M82.0587 51.4453H65.8271V52.967H82.0587V51.4453Z" fill="#4CAF4F"/>
<path opacity="0.2" d="M82.0587 51.4453H65.8271V52.967H82.0587V51.4453Z" fill="white"/>
<path d="M71.9756 60.4372L63.1008 60.397L63.0934 62.0256L71.9682 62.0659L71.9756 60.4372Z" fill="#4CAF4F"/>
<path opacity="0.1" d="M71.9756 60.4372L63.1008 60.397L63.0934 62.0256L71.9682 62.0659L71.9756 60.4372Z" fill="black"/>
<path d="M97.8279 70.4375C97.8976 70.4289 97.9667 70.4163 98.0349 70.3995C98.1313 70.3689 98.22 70.3179 98.295 70.25C98.37 70.1822 98.4296 70.099 98.4697 70.0062C98.524 69.8669 98.5453 69.7169 98.5318 69.568C98.5318 69.4023 98.5318 69.2229 98.5318 69.0228C98.5318 68.6225 98.5318 68.167 98.5318 67.6425V65.4514C98.5483 65.2928 98.5132 65.133 98.4318 64.9959C98.3467 64.8553 98.2128 64.7509 98.0556 64.7026C97.8838 64.6719 97.7088 64.6627 97.5346 64.675H92.5692L63.8085 64.568C63.6538 64.5684 63.5044 64.6249 63.3883 64.7271C63.2722 64.8293 63.1971 64.9702 63.177 65.1236C63.177 65.4514 63.177 65.8137 63.177 66.1588C63.177 66.8489 63.177 67.539 63.177 68.2291C63.177 68.5742 63.177 68.9192 63.177 69.2643C63.1641 69.4256 63.1711 69.5878 63.1977 69.7474C63.2408 69.8873 63.3295 70.0088 63.4496 70.0924C63.577 70.1733 63.7268 70.212 63.8775 70.2029H64.3571H65.3543L72.9905 70.2408L85.9199 70.3202L94.6361 70.3892L97.0067 70.4168H94.6361H85.9199L72.9836 70.403L65.3474 70.3754H63.8464C63.6598 70.3865 63.4746 70.3368 63.3185 70.2339C63.1615 70.1252 63.0469 69.9655 62.9941 69.7819C62.9632 69.6066 62.9539 69.4281 62.9665 69.2505C62.9665 68.9054 62.9665 68.5604 62.9665 68.2153C62.9665 67.5252 62.9665 66.8351 62.9665 66.145C62.9665 65.7999 62.9665 65.4548 62.9665 65.1098C62.9917 64.9125 63.0879 64.7311 63.2372 64.5996C63.3864 64.4682 63.5785 64.3956 63.7774 64.3955L92.5381 64.5542L97.5036 64.5922C97.6884 64.5808 97.874 64.5936 98.0556 64.6301C98.2349 64.6887 98.3861 64.8117 98.4801 64.9752C98.5693 65.1272 98.608 65.3036 98.5905 65.479C98.5905 65.6412 98.5905 65.7999 98.5905 65.9586C98.5905 66.5832 98.5905 67.156 98.5905 67.6839C98.5905 68.2119 98.5905 68.657 98.5905 69.0642C98.5905 69.2609 98.5905 69.4437 98.5905 69.6128C98.603 69.7671 98.5782 69.9222 98.518 70.0648C98.4732 70.1601 98.4084 70.2445 98.328 70.3124C98.2477 70.3803 98.1536 70.43 98.0522 70.4582C97.9768 70.4644 97.9009 70.4574 97.8279 70.4375Z" fill="#E0E0E0"/>
<path d="M71.9087 75.9402L63.0339 75.8999L63.0265 77.5286L71.9013 77.5688L71.9087 75.9402Z" fill="#4CAF4F"/>
<path opacity="0.1" d="M71.9087 75.9402L63.0339 75.8999L63.0265 77.5286L71.9013 77.5688L71.9087 75.9402Z" fill="black"/>
<path d="M97.7589 85.934C97.8287 85.9258 97.8979 85.9131 97.966 85.8961C98.0619 85.8656 98.1503 85.815 98.2253 85.7478C98.3002 85.6806 98.36 85.5982 98.4008 85.5061C98.4549 85.3668 98.4761 85.2168 98.4629 85.0679C98.4629 84.8988 98.4629 84.7229 98.4629 84.5193C98.4629 84.1225 98.4629 83.6635 98.4629 83.139V80.9479C98.4793 80.7893 98.4442 80.6296 98.3628 80.4924C98.2757 80.3544 98.1424 80.2517 97.9867 80.2026C97.815 80.1707 97.6399 80.1603 97.4657 80.1715H92.5002L63.7395 80.0646C63.5848 80.0649 63.4355 80.1215 63.3193 80.2236C63.2032 80.3258 63.1281 80.4667 63.108 80.6201C63.108 80.9652 63.108 81.3102 63.108 81.6553C63.108 82.3454 63.108 83.0355 63.108 83.7256C63.108 84.0707 63.108 84.4158 63.108 84.7608C63.0952 84.9209 63.1021 85.082 63.1287 85.2405C63.1701 85.3812 63.2591 85.5033 63.3806 85.5855C63.5073 85.6682 63.6576 85.707 63.8085 85.6959H65.3095L72.9457 85.7373L85.8751 85.8167L94.5913 85.8857L96.9619 85.9133H94.5913H85.8751L72.9457 85.8754L65.3095 85.8443H63.8085C63.6217 85.8569 63.436 85.8071 63.2806 85.7028C63.1236 85.5941 63.009 85.4344 62.9562 85.2508C62.9253 85.0755 62.916 84.897 62.9286 84.7194C62.9286 84.3744 62.9286 84.0293 62.9286 83.6842C62.9286 82.9941 62.9286 82.304 62.9286 81.6139C62.9286 81.2688 62.9286 80.9238 62.9286 80.5614C62.953 80.3644 63.0485 80.1831 63.1972 80.0516C63.3459 79.92 63.5375 79.8473 63.736 79.8472L92.4968 80.0059L97.4622 80.0439C97.6471 80.0325 97.8327 80.0453 98.0143 80.0818C98.1936 80.1404 98.3448 80.2633 98.4387 80.4269C98.528 80.5788 98.5667 80.7553 98.5491 80.9307C98.5491 81.0928 98.5491 81.255 98.5491 81.4103C98.5491 82.0348 98.5491 82.6076 98.5491 83.1356C98.5491 83.6635 98.5491 84.1087 98.5491 84.5158C98.5491 84.7125 98.5491 84.8954 98.5491 85.0645C98.5624 85.2188 98.5375 85.374 98.4767 85.5165C98.4319 85.6117 98.3671 85.6961 98.2867 85.764C98.2063 85.8319 98.1122 85.8817 98.0108 85.9099C97.9299 85.9376 97.8436 85.9458 97.7589 85.934Z" fill="#E0E0E0"/>
<path d="M81.7122 66.7338L65.4807 66.6602L65.4738 68.1819L81.7053 68.2555L81.7122 66.7338Z" fill="#4CAF4F"/>
<path opacity="0.2" d="M81.7122 66.7338L65.4807 66.6602L65.4738 68.1819L81.7053 68.2555L81.7122 66.7338Z" fill="white"/>
<path d="M66.9485 83.1183C66.9383 83.2571 66.8876 83.3899 66.8027 83.5001C66.7177 83.6104 66.6023 83.6932 66.4707 83.7385C66.3391 83.7837 66.1971 83.7894 66.0623 83.7547C65.9275 83.72 65.8059 83.6465 65.7125 83.5433C65.6191 83.4401 65.5581 83.3117 65.537 83.1742C65.5159 83.0366 65.5356 82.8959 65.5937 82.7694C65.6518 82.643 65.7458 82.5364 65.864 82.4628C65.9821 82.3893 66.1192 82.352 66.2584 82.3557C66.4506 82.3664 66.6309 82.4525 66.7601 82.5953C66.8893 82.738 66.957 82.926 66.9485 83.1183Z" fill="#4CAF4F"/>
<path d="M69.1465 83.1287C69.1533 83.226 69.14 83.3236 69.1075 83.4156C69.0749 83.5075 69.0238 83.5917 68.9573 83.663C68.8908 83.7344 68.8103 83.7912 68.7209 83.8301C68.6314 83.869 68.535 83.889 68.4374 83.889C68.3399 83.889 68.2435 83.869 68.154 83.8301C68.0646 83.7912 67.9841 83.7344 67.9176 83.663C67.8511 83.5917 67.8 83.5075 67.7674 83.4156C67.7349 83.3236 67.7216 83.226 67.7283 83.1287C67.7216 83.0315 67.7349 82.9338 67.7674 82.8419C67.8 82.75 67.8511 82.6657 67.9176 82.5944C67.9841 82.5231 68.0646 82.4662 68.154 82.4274C68.2435 82.3885 68.3399 82.3684 68.4374 82.3684C68.535 82.3684 68.6314 82.3885 68.7209 82.4274C68.8103 82.4662 68.8908 82.5231 68.9573 82.5944C69.0238 82.6657 69.0749 82.75 69.1075 82.8419C69.14 82.9338 69.1533 83.0315 69.1465 83.1287Z" fill="#4CAF4F"/>
<path d="M71.348 83.1391C71.3378 83.2779 71.2871 83.4106 71.2022 83.5209C71.1173 83.6311 71.0018 83.714 70.8702 83.7592C70.7386 83.8045 70.5966 83.8101 70.4618 83.7754C70.3271 83.7407 70.2054 83.6672 70.1121 83.564C70.0187 83.4608 69.9576 83.3325 69.9365 83.1949C69.9154 83.0574 69.9351 82.9166 69.9932 82.7902C70.0514 82.6637 70.1453 82.5571 70.2635 82.4836C70.3816 82.41 70.5188 82.3728 70.6579 82.3765C70.8498 82.3881 71.0296 82.4744 71.1586 82.6169C71.2876 82.7595 71.3556 82.9469 71.348 83.1391Z" fill="#4CAF4F"/>
<path d="M73.5461 83.1493C73.5359 83.2881 73.4852 83.4209 73.4003 83.5311C73.3153 83.6414 73.1999 83.7242 73.0683 83.7695C72.9367 83.8148 72.7947 83.8204 72.6599 83.7857C72.5251 83.751 72.4035 83.6775 72.3101 83.5743C72.2167 83.4711 72.1557 83.3427 72.1346 83.2052C72.1135 83.0676 72.1332 82.9269 72.1913 82.8004C72.2494 82.674 72.3434 82.5674 72.4615 82.4938C72.5797 82.4203 72.7168 82.383 72.856 82.3867C73.0479 82.3983 73.2276 82.4846 73.3566 82.6272C73.4856 82.7698 73.5537 82.9572 73.5461 83.1493Z" fill="#4CAF4F"/>
<path d="M75.7441 83.1564C75.7346 83.2954 75.6844 83.4285 75.5998 83.5392C75.5153 83.65 75.4 83.7334 75.2684 83.7792C75.1368 83.8249 74.9947 83.831 74.8597 83.7967C74.7246 83.7623 74.6027 83.689 74.509 83.586C74.4152 83.4829 74.3539 83.3545 74.3325 83.2168C74.3111 83.0791 74.3307 82.9382 74.3888 82.8116C74.4468 82.6849 74.5409 82.5781 74.6591 82.5044C74.7774 82.4308 74.9147 82.3935 75.054 82.3972C75.2453 82.4088 75.4245 82.4947 75.5534 82.6365C75.6823 82.7783 75.7507 82.9648 75.7441 83.1564Z" fill="#4CAF4F"/>
<path d="M77.9456 83.1666C77.9362 83.3049 77.8865 83.4374 77.8028 83.5478C77.719 83.6583 77.6048 83.7418 77.4742 83.7882C77.3435 83.8345 77.2022 83.8417 77.0676 83.8088C76.9329 83.7759 76.8108 83.7043 76.7164 83.6029C76.6219 83.5015 76.5591 83.3747 76.5357 83.238C76.5124 83.1014 76.5295 82.9609 76.5849 82.8339C76.6404 82.7069 76.7318 82.5988 76.8479 82.5231C76.9639 82.4473 77.0996 82.4071 77.2382 82.4075C77.4326 82.4147 77.6161 82.4986 77.7487 82.6409C77.8813 82.7832 77.9521 82.9722 77.9456 83.1666Z" fill="#4CAF4F"/>
<path d="M80.1436 83.1771C80.1504 83.2743 80.1371 83.372 80.1045 83.4639C80.072 83.5558 80.0209 83.6401 79.9543 83.7114C79.8878 83.7827 79.8074 83.8396 79.7179 83.8784C79.6285 83.9173 79.532 83.9374 79.4345 83.9374C79.337 83.9374 79.2405 83.9173 79.1511 83.8784C79.0617 83.8396 78.9812 83.7827 78.9147 83.7114C78.8482 83.6401 78.797 83.5558 78.7645 83.4639C78.7319 83.372 78.7186 83.2743 78.7254 83.1771C78.7186 83.0798 78.7319 82.9821 78.7645 82.8902C78.797 82.7983 78.8482 82.7141 78.9147 82.6428C78.9812 82.5714 79.0617 82.5146 79.1511 82.4757C79.2405 82.4368 79.337 82.4167 79.4345 82.4167C79.532 82.4167 79.6285 82.4368 79.7179 82.4757C79.8074 82.5146 79.8878 82.5714 79.9543 82.6428C80.0209 82.7141 80.072 82.7983 80.1045 82.8902C80.1371 82.9821 80.1504 83.0798 80.1436 83.1771Z" fill="#4CAF4F"/>
<path d="M82.3416 83.1874C82.3322 83.3256 82.2826 83.4582 82.1988 83.5686C82.115 83.679 82.0008 83.7626 81.8702 83.8089C81.7396 83.8553 81.5983 83.8624 81.4636 83.8295C81.329 83.7966 81.2069 83.725 81.1124 83.6236C81.0179 83.5222 80.9551 83.3954 80.9318 83.2588C80.9084 83.1222 80.9255 82.9817 80.981 82.8547C81.0365 82.7276 81.1278 82.6196 81.2439 82.5438C81.36 82.468 81.4957 82.4279 81.6343 82.4282C81.8286 82.4354 82.0122 82.5194 82.1448 82.6616C82.2774 82.8039 82.3482 82.993 82.3416 83.1874Z" fill="#4CAF4F"/>
<path d="M84.5397 83.1979C84.5302 83.3369 84.48 83.47 84.3954 83.5807C84.3109 83.6915 84.1956 83.7749 84.064 83.8207C83.9324 83.8664 83.7903 83.8725 83.6553 83.8382C83.5202 83.8038 83.3983 83.7305 83.3045 83.6274C83.2108 83.5243 83.1495 83.396 83.1281 83.2583C83.1067 83.1206 83.1263 82.9797 83.1844 82.8531C83.2424 82.7264 83.3364 82.6196 83.4547 82.5459C83.573 82.4723 83.7103 82.435 83.8496 82.4387C84.0409 82.4503 84.2201 82.5362 84.349 82.678C84.4779 82.8198 84.5463 83.0063 84.5397 83.1979Z" fill="#4CAF4F"/>
<g opacity="0.2">
<path d="M66.9485 83.1183C66.9383 83.2571 66.8876 83.3899 66.8027 83.5001C66.7177 83.6104 66.6023 83.6932 66.4707 83.7385C66.3391 83.7837 66.1971 83.7894 66.0623 83.7547C65.9275 83.72 65.8059 83.6465 65.7125 83.5433C65.6191 83.4401 65.5581 83.3117 65.537 83.1742C65.5159 83.0366 65.5356 82.8959 65.5937 82.7694C65.6518 82.643 65.7458 82.5364 65.864 82.4628C65.9821 82.3893 66.1192 82.352 66.2584 82.3557C66.4506 82.3664 66.6309 82.4525 66.7601 82.5953C66.8893 82.738 66.957 82.926 66.9485 83.1183Z" fill="white"/>
<path d="M69.1465 83.1287C69.1533 83.226 69.14 83.3236 69.1074 83.4156C69.0749 83.5075 69.0237 83.5917 68.9572 83.663C68.8907 83.7344 68.8102 83.7912 68.7208 83.8301C68.6314 83.869 68.5349 83.889 68.4374 83.889C68.3399 83.889 68.2434 83.869 68.154 83.8301C68.0645 83.7912 67.9841 83.7344 67.9176 83.663C67.851 83.5917 67.7999 83.5075 67.7674 83.4156C67.7348 83.3236 67.7215 83.226 67.7283 83.1287C67.7215 83.0315 67.7348 82.9338 67.7674 82.8419C67.7999 82.75 67.851 82.6657 67.9176 82.5944C67.9841 82.5231 68.0645 82.4662 68.154 82.4274C68.2434 82.3885 68.3399 82.3684 68.4374 82.3684C68.5349 82.3684 68.6314 82.3885 68.7208 82.4274C68.8102 82.4662 68.8907 82.5231 68.9572 82.5944C69.0237 82.6657 69.0749 82.75 69.1074 82.8419C69.14 82.9338 69.1533 83.0315 69.1465 83.1287Z" fill="white"/>
<path d="M71.348 83.1391C71.3378 83.2779 71.2871 83.4106 71.2021 83.5209C71.1172 83.6311 71.0018 83.714 70.8702 83.7592C70.7386 83.8045 70.5966 83.8101 70.4618 83.7754C70.327 83.7407 70.2054 83.6672 70.112 83.564C70.0186 83.4608 69.9576 83.3325 69.9365 83.1949C69.9153 83.0574 69.9351 82.9166 69.9932 82.7902C70.0513 82.6637 70.1453 82.5571 70.2634 82.4836C70.3816 82.41 70.5187 82.3728 70.6578 82.3765C70.8498 82.3881 71.0295 82.4744 71.1585 82.6169C71.2875 82.7595 71.3555 82.9469 71.348 83.1391Z" fill="white"/>
<path d="M73.546 83.1493C73.5358 83.2881 73.4851 83.4209 73.4002 83.5311C73.3153 83.6414 73.1998 83.7242 73.0682 83.7695C72.9366 83.8148 72.7946 83.8204 72.6598 83.7857C72.5251 83.751 72.4034 83.6775 72.3101 83.5743C72.2167 83.4711 72.1556 83.3427 72.1345 83.2052C72.1134 83.0676 72.1331 82.9269 72.1912 82.8004C72.2494 82.674 72.3433 82.5674 72.4615 82.4938C72.5796 82.4203 72.7168 82.383 72.8559 82.3867C73.0478 82.3983 73.2276 82.4846 73.3566 82.6272C73.4856 82.7698 73.5536 82.9572 73.546 83.1493Z" fill="white"/>
<path d="M75.744 83.1564C75.7345 83.2954 75.6843 83.4285 75.5998 83.5392C75.5152 83.65 75.4 83.7334 75.2684 83.7792C75.1368 83.8249 74.9946 83.831 74.8596 83.7967C74.7246 83.7623 74.6026 83.689 74.5089 83.586C74.4152 83.4829 74.3538 83.3545 74.3324 83.2168C74.3111 83.0791 74.3306 82.9382 74.3887 82.8116C74.4468 82.6849 74.5408 82.5781 74.6591 82.5044C74.7773 82.4308 74.9146 82.3935 75.0539 82.3972C75.2452 82.4088 75.4244 82.4947 75.5533 82.6365C75.6822 82.7783 75.7507 82.9648 75.744 83.1564Z" fill="white"/>
<path d="M77.9455 83.1666C77.9361 83.3049 77.8865 83.4374 77.8027 83.5478C77.7189 83.6583 77.6047 83.7418 77.4741 83.7882C77.3435 83.8345 77.2021 83.8417 77.0675 83.8088C76.9329 83.7759 76.8108 83.7043 76.7163 83.6029C76.6218 83.5015 76.559 83.3747 76.5357 83.238C76.5123 83.1014 76.5294 82.9609 76.5849 82.8339C76.6403 82.7069 76.7317 82.5988 76.8478 82.5231C76.9639 82.4473 77.0995 82.4071 77.2381 82.4075C77.4325 82.4147 77.6161 82.4986 77.7487 82.6409C77.8813 82.7832 77.952 82.9722 77.9455 83.1666Z" fill="white"/>
<path d="M80.1435 83.1771C80.1503 83.2743 80.137 83.372 80.1045 83.4639C80.0719 83.5558 80.0208 83.6401 79.9543 83.7114C79.8878 83.7827 79.8073 83.8396 79.7179 83.8784C79.6284 83.9173 79.532 83.9374 79.4345 83.9374C79.3369 83.9374 79.2405 83.9173 79.151 83.8784C79.0616 83.8396 78.9811 83.7827 78.9146 83.7114C78.8481 83.6401 78.797 83.5558 78.7644 83.4639C78.7319 83.372 78.7186 83.2743 78.7254 83.1771C78.7186 83.0798 78.7319 82.9821 78.7644 82.8902C78.797 82.7983 78.8481 82.7141 78.9146 82.6428C78.9811 82.5714 79.0616 82.5146 79.151 82.4757C79.2405 82.4368 79.3369 82.4167 79.4345 82.4167C79.532 82.4167 79.6284 82.4368 79.7179 82.4757C79.8073 82.5146 79.8878 82.5714 79.9543 82.6428C80.0208 82.7141 80.0719 82.7983 80.1045 82.8902C80.137 82.9821 80.1503 83.0798 80.1435 83.1771Z" fill="white"/>
<path d="M82.3416 83.1874C82.3321 83.3256 82.2825 83.4582 82.1987 83.5686C82.115 83.679 82.0008 83.7626 81.8701 83.8089C81.7395 83.8553 81.5982 83.8624 81.4636 83.8295C81.3289 83.7966 81.2068 83.725 81.1123 83.6236C81.0179 83.5222 80.9551 83.3954 80.9317 83.2588C80.9084 83.1222 80.9255 82.9817 80.9809 82.8547C81.0364 82.7276 81.1278 82.6196 81.2438 82.5438C81.3599 82.468 81.4956 82.4279 81.6342 82.4282C81.8286 82.4354 82.0121 82.5194 82.1447 82.6616C82.2773 82.8039 82.3481 82.993 82.3416 83.1874Z" fill="white"/>
<path d="M84.5396 83.1976C84.5301 83.3366 84.4799 83.4698 84.3954 83.5805C84.3108 83.6912 84.1956 83.7747 84.064 83.8204C83.9324 83.8662 83.7902 83.8723 83.6552 83.8379C83.5202 83.8036 83.3982 83.7303 83.3045 83.6272C83.2108 83.5241 83.1494 83.3957 83.128 83.2581C83.1067 83.1204 83.1262 82.9795 83.1843 82.8528C83.2424 82.7262 83.3364 82.6194 83.4546 82.5457C83.5729 82.472 83.7102 82.4348 83.8495 82.4385C84.0408 82.4501 84.22 82.5359 84.3489 82.6777C84.4778 82.8195 84.5463 83.0061 84.5396 83.1976Z" fill="white"/>
</g>
<path d="M81.4169 33.3848C81.6566 33.2793 81.86 33.1055 82.0017 32.8853C82.1434 32.665 82.2173 32.4079 82.214 32.146C82.2229 31.9758 82.1971 31.8055 82.1381 31.6456C82.0791 31.4856 81.9882 31.3393 81.8708 31.2157C81.7535 31.092 81.6122 30.9935 81.4555 30.9262C81.2989 30.8589 81.1302 30.8242 80.9597 30.8242C80.7892 30.8242 80.6205 30.8589 80.4639 30.9262C80.3072 30.9935 80.1659 31.092 80.0486 31.2157C79.9312 31.3393 79.8403 31.4856 79.7813 31.6456C79.7223 31.8055 79.6965 31.9758 79.7054 32.146C79.7002 32.4106 79.7734 32.6707 79.9159 32.8936C80.0583 33.1166 80.2637 33.2923 80.5059 33.3986C78.5736 33.6885 78.6599 35.7864 78.6599 35.7864L83.2285 35.8071C83.2285 35.8071 83.3354 33.6712 81.4169 33.3848Z" fill="#4CAF4F"/>
<path opacity="0.1" d="M81.4169 33.3848C81.6566 33.2793 81.86 33.1055 82.0017 32.8853C82.1434 32.665 82.2173 32.4079 82.214 32.146C82.2229 31.9758 82.1971 31.8055 82.1381 31.6456C82.0791 31.4856 81.9882 31.3393 81.8708 31.2157C81.7535 31.092 81.6122 30.9935 81.4555 30.9262C81.2989 30.8589 81.1302 30.8242 80.9597 30.8242C80.7892 30.8242 80.6205 30.8589 80.4639 30.9262C80.3072 30.9935 80.1659 31.092 80.0486 31.2157C79.9312 31.3393 79.8403 31.4856 79.7813 31.6456C79.7223 31.8055 79.6965 31.9758 79.7054 32.146C79.7002 32.4106 79.7734 32.6707 79.9159 32.8936C80.0583 33.1166 80.2637 33.2923 80.5059 33.3986C78.5736 33.6885 78.6599 35.7864 78.6599 35.7864L83.2285 35.8071C83.2285 35.8071 83.3354 33.6712 81.4169 33.3848Z" fill="black"/>
<path d="M88.8406 37.1603L72.5574 37.0864L72.5486 39.0325L88.8318 39.1064L88.8406 37.1603Z" fill="#4CAF4F"/>
<path opacity="0.2" d="M88.8406 37.1603L72.5574 37.0864L72.5486 39.0325L88.8318 39.1064L88.8406 37.1603Z" fill="white"/>
<path d="M28.9781 47.2459H28.816L28.3467 47.2804C28.0927 47.2956 27.8402 47.3291 27.591 47.3805C27.4296 47.4031 27.2695 47.4342 27.1114 47.4736L26.5765 47.622C25.6662 47.9013 24.8073 48.3266 24.0334 48.8815C23.011 49.6236 22.1572 50.5738 21.5283 51.6695C21.1586 52.3012 20.8645 52.9741 20.6518 53.6743C20.4284 54.4355 20.2998 55.2212 20.2688 56.0138C20.2483 56.4302 20.2552 56.8475 20.2895 57.263C20.2895 57.4735 20.3482 57.6839 20.3758 57.8979C20.399 58.1135 20.4394 58.327 20.4966 58.5362C20.8069 59.9209 21.4364 61.2138 22.3351 62.312C23.2337 63.4101 24.3766 64.2831 25.6725 64.8612C26.6104 65.2659 27.6157 65.4918 28.6365 65.5272C29.6909 65.5851 30.7464 65.4339 31.7421 65.082L32.0457 64.9681H32.0871L32.1216 64.9889L36.4728 67.1972L36.3452 67.3077C35.8793 65.8653 35.4308 64.4678 34.996 63.1255V63.0738L35.0339 63.0358C36.0895 61.9727 36.8731 60.6706 37.3182 59.2402C37.7215 57.9324 37.8391 56.5532 37.6633 55.1961C37.5069 53.9899 37.1191 52.8253 36.5212 51.7662C36.0057 50.8563 35.3408 50.0398 34.5543 49.3507C33.9054 48.8053 33.1872 48.3482 32.4184 47.9912C31.8367 47.7403 31.2308 47.5495 30.6103 47.4219L29.9202 47.308L29.4198 47.27L29.1162 47.2493H29.0127C29.0471 47.2455 29.0818 47.2455 29.1162 47.2493H29.4233L29.9236 47.27L30.6137 47.3701C31.242 47.4884 31.8561 47.6723 32.446 47.9187C33.228 48.2715 33.9592 48.7276 34.6199 49.2748C35.4208 49.9608 36.0999 50.7775 36.6281 51.6902C37.243 52.7607 37.6428 53.9411 37.8048 55.165C37.9952 56.5432 37.8857 57.9462 37.4839 59.2781C37.0358 60.7384 36.2401 62.0681 35.1651 63.1531L35.1858 63.0634C35.6206 64.4057 36.0726 65.8032 36.5419 67.2421L36.6074 67.4526L36.4107 67.3525L32.0595 65.1476H32.1354L31.8249 65.2615C30.81 65.6186 29.7351 65.7733 28.6607 65.7169C27.6178 65.6772 26.5915 65.4432 25.6345 65.0268C23.809 64.245 22.2903 62.8862 21.3109 61.1587C20.8602 60.3608 20.5311 59.5002 20.3344 58.6053C20.2805 58.3906 20.2402 58.1728 20.2136 57.9531C20.186 57.7357 20.1412 57.5218 20.1308 57.3078C20.0374 56.08 20.1672 54.8455 20.5138 53.664C20.7318 52.9541 21.0341 52.2729 21.4144 51.635C22.0584 50.5293 22.9299 49.5731 23.9713 48.8297C24.7579 48.2735 25.6313 47.8514 26.5558 47.5806L27.0976 47.4426C27.257 47.4056 27.4183 47.3768 27.5807 47.3563C27.8324 47.3097 28.0873 47.282 28.3432 47.2735L28.816 47.2562C28.8697 47.249 28.9239 47.2455 28.9781 47.2459Z" fill="#4CAF4F"/>
<path d="M30.945 55.2926H30.3066L28.9264 53.3534V52.0801C28.9264 52.0801 27.9395 52.018 28.0568 53.6847C28.1741 55.3513 28.0568 54.9269 28.0568 54.9269C28.0568 54.9269 25.9623 54.9269 25.7898 55.1167C25.6172 55.3064 25.6069 57.3285 25.5827 58.4568C25.5695 58.7288 25.6476 58.9975 25.8045 59.22C25.9614 59.4426 26.1882 59.6063 26.4488 59.6853C26.5219 59.7055 26.5973 59.7159 26.6731 59.7163C27.1976 59.7163 29.8649 59.2919 29.8649 59.2919H30.9657L30.945 55.2926Z" fill="#4CAF4F"/>
<path d="M32.7703 54.9512L32.377 59.3127H31.2866V55.0409L32.7703 54.9512Z" fill="#4CAF4F"/>
<path d="M45.7757 143.745V140.795L40.4859 140.757L40.441 145.219L40.7688 145.243C42.2284 145.336 48.1945 145.474 49.1745 145.17C50.2649 144.832 45.7757 143.745 45.7757 143.745Z" fill="#4CAF4F"/>
<path d="M49.2987 144.894C49.2987 144.943 47.318 144.984 44.8785 144.984C42.4389 144.984 40.4583 144.943 40.4583 144.894C40.4583 144.846 42.4389 144.805 44.8785 144.805C47.318 144.805 49.2987 144.846 49.2987 144.894Z" fill="#263238"/>
<path d="M45.8688 144.349C45.8239 144.325 45.8688 144.17 45.9757 144.004C46.0827 143.838 46.2276 143.769 46.2621 143.804C46.2967 143.838 46.2242 143.969 46.1207 144.111C46.0172 144.252 45.9136 144.373 45.8688 144.349Z" fill="#263238"/>
<path d="M46.2069 144.542C46.1586 144.542 46.1828 144.349 46.2863 144.166C46.3898 143.983 46.5279 143.873 46.5658 143.9C46.6038 143.928 46.5417 144.083 46.445 144.246C46.3484 144.408 46.2518 144.56 46.2069 144.542Z" fill="#263238"/>
<path d="M42.0524 144.88C42.0317 144.88 41.9524 144.818 41.8385 144.687C41.6995 144.519 41.5447 144.364 41.3761 144.225C41.2104 144.092 41.0129 144.006 40.8033 143.973C40.6412 143.952 40.5376 143.973 40.5273 143.952C40.5169 143.931 40.617 143.859 40.8068 143.845C41.0572 143.84 41.3016 143.923 41.4969 144.08C41.6799 144.229 41.8343 144.41 41.9524 144.615C42.0317 144.767 42.0731 144.867 42.0524 144.88Z" fill="#263238"/>
<path d="M45.886 143.794C45.9102 143.835 45.8204 143.939 45.6686 143.994C45.5168 144.049 45.3822 144.028 45.3753 143.994C45.3684 143.959 45.4754 143.887 45.6065 143.838C45.7376 143.79 45.8584 143.752 45.886 143.794Z" fill="#263238"/>
<path d="M45.8032 143.507C45.8032 143.559 45.6652 143.6 45.4858 143.604C45.3064 143.607 45.1649 143.566 45.1683 143.517C45.1718 143.469 45.3133 143.424 45.4858 143.421C45.6583 143.417 45.7963 143.459 45.8032 143.507Z" fill="#263238"/>
<path d="M58.8017 143.745V140.795L53.5119 140.757L53.467 145.174L53.7948 145.198C55.2545 145.291 61.224 145.474 62.2005 145.17C63.2909 144.832 58.8017 143.745 58.8017 143.745Z" fill="#4CAF4F"/>
<path d="M62.3247 144.901C62.3247 144.95 60.3475 144.991 57.9045 144.991C55.4615 144.991 53.4877 144.95 53.4877 144.901C53.4877 144.853 55.4649 144.812 57.9045 144.812C60.3441 144.812 62.3247 144.853 62.3247 144.901Z" fill="#263238"/>
<path d="M58.8948 144.349C58.8534 144.325 58.8948 144.17 59.0017 144.004C59.1087 143.838 59.2536 143.769 59.2881 143.804C59.3226 143.838 59.2502 143.969 59.1467 144.111C59.0432 144.252 58.9396 144.373 58.8948 144.349Z" fill="#263238"/>
<path d="M59.2329 144.542C59.1881 144.542 59.2088 144.349 59.3158 144.166C59.4227 143.983 59.5573 143.873 59.5953 143.9C59.6332 143.928 59.5677 144.083 59.471 144.246C59.3744 144.408 59.2813 144.56 59.2329 144.542Z" fill="#263238"/>
<path d="M55.0784 144.88C55.0577 144.88 54.9818 144.818 54.8645 144.687C54.7255 144.519 54.5707 144.364 54.4021 144.225C54.2364 144.092 54.0389 144.006 53.8293 143.973C53.6706 143.952 53.5636 143.973 53.5533 143.952C53.5429 143.931 53.643 143.859 53.8328 143.845C54.0832 143.84 54.3276 143.923 54.5229 144.08C54.7069 144.228 54.8614 144.409 54.9784 144.615C55.0577 144.767 55.0991 144.867 55.0784 144.88Z" fill="#263238"/>
<path d="M58.9121 143.794C58.9362 143.835 58.8465 143.939 58.6947 143.994C58.5428 144.049 58.4083 144.028 58.4014 143.994C58.3945 143.959 58.5014 143.887 58.6326 143.838C58.7637 143.79 58.8845 143.752 58.9121 143.794Z" fill="#263238"/>
<path d="M58.8362 143.507C58.8362 143.559 58.6982 143.6 58.5187 143.604C58.3393 143.607 58.2013 143.566 58.2047 143.517C58.2082 143.469 58.3462 143.424 58.5187 143.421C58.6912 143.417 58.8362 143.459 58.8362 143.507Z" fill="#263238"/>
<path d="M78.2906 56.1346C78.1526 55.9931 77.811 56.0621 77.811 56.0621C77.8452 55.8634 77.8452 55.6604 77.811 55.4617C77.7489 55.2685 77.3141 55.3064 77.3141 55.3064C77.2941 55.1437 77.2941 54.9791 77.3141 54.8164C77.3176 54.7804 77.3098 54.7441 77.2919 54.7126C77.274 54.6811 77.2468 54.6559 77.214 54.6405C77.0083 54.5566 76.7874 54.5166 76.5653 54.5231C76.2996 54.3333 77.3762 52.8254 77.7765 52.3424C78.1768 51.8593 78.1043 51.4832 77.7489 51.4832C77.5039 51.4832 76.2479 52.9324 75.8614 53.4189C75.4749 53.9055 74.4501 55.2581 74.4156 54.1781C74.3811 53.098 73.9463 52.2837 73.6737 52.1457C73.4011 52.0076 73.1113 52.332 73.2597 52.6322C73.39 52.9733 73.4713 53.3311 73.5012 53.695C73.5387 53.9849 73.5258 54.279 73.4632 54.5645C73.3488 55.0958 73.1931 55.6173 72.9974 56.1242H72.9698C72.9698 56.1242 65.4406 63.3463 64.8954 63.8605C64.4089 64.3228 54.623 63.3118 52.6596 63.1048C51.9924 63.0071 51.3187 62.961 50.6444 62.9667C49.7921 63.0047 49.6403 63.1255 48.7915 63.1358C46.6478 63.1596 44.509 63.3477 42.394 63.6983C41.4364 63.8611 40.5418 64.2838 39.808 64.9203C39.0741 65.5568 38.5292 66.3826 38.2326 67.3076C36.2554 73.4842 31.7766 88.1044 30.9864 96.3168C30.3893 97.3996 29.8502 98.5134 29.3715 99.6535C28.8159 101.165 28.9505 101.217 29.1368 101.251C29.6406 101.344 30.2134 98.6321 30.4274 99.2878C30.6413 99.9434 29.3404 102.521 29.8684 102.597C30.5585 102.693 31.1071 99.8364 31.1727 99.6087C31.2383 99.3809 31.5799 99.4534 31.5178 99.6673C31.4177 99.971 30.4481 103.19 31.1244 103.294C31.4971 103.349 31.5385 102.669 31.5385 102.669C31.5385 102.669 32.2286 99.5879 32.5426 99.6501C32.8566 99.7122 32.5219 101.531 32.3632 102.138C32.2044 102.745 32.4253 103.052 32.7496 102.904C32.9705 102.8 33.4984 100.954 33.6433 100.354C33.7883 99.7536 34.1506 98.0904 34.6371 99.0531C35.1236 100.016 35.8621 100.575 36.1657 100.589C36.2341 100.581 36.2986 100.553 36.3509 100.508C36.4032 100.463 36.4408 100.403 36.459 100.337C36.4772 100.271 36.4751 100.2 36.4529 100.135C36.4308 100.07 36.3897 100.013 36.3348 99.971C36.0736 99.7159 35.8495 99.4256 35.6688 99.1083C35.5079 98.8612 35.3911 98.588 35.3238 98.3009C35.1847 97.7285 35.1038 97.1435 35.0822 96.5549L35.027 96.2098C35.8 92.3831 38.0256 81.1514 41.2381 73.9776L42.5562 76.6898L43.129 78.698L39.6163 87.3694L54.5988 87.1727L52.3628 78.5669L55.0784 69.5953C58.0149 69.6609 65.5545 69.7713 66.8105 69.202C68.3909 68.5119 76.5653 58.1877 76.5653 58.1877C77.0982 57.7736 77.6084 57.3313 78.0939 56.8626C78.0939 56.8626 78.5908 56.4451 78.2906 56.1346Z" fill="#FFBE9D"/>
<path d="M38.9573 80.9616C39.392 79.4778 41.6246 72.1418 41.6246 72.1418C41.6246 72.1418 42.7219 78.1217 42.432 78.8429C42.1654 79.4603 41.8504 80.0556 41.49 80.6234C38.9573 84.4777 39.2885 86.4066 39.2885 86.4066L54.5919 85.9408C54.6264 83.8014 53.3601 78.8256 53.0978 78.032C52.8356 77.2384 53.7086 74.6401 53.7086 74.6401C53.7086 74.6401 55.4339 72.8837 55.3718 71.9797C55.339 71.1676 55.2386 70.3596 55.0716 69.5642L64.3882 69.9093L64.0949 63.5947L50.7135 62.2559C50.2476 63.5705 46.0344 62.9253 46.0344 62.9253C41.4866 63.0771 41.2036 63.9122 39.3127 65.3821C37.4217 66.8521 34.2921 79.4675 34.2921 79.4675L38.9573 80.9616Z" fill="#4CAF4F"/>
<path d="M48.0047 79.4676C47.7395 79.515 47.4694 79.5289 47.2007 79.509C46.7004 79.509 46.0137 79.4745 45.258 79.3986C44.5024 79.3227 43.8191 79.2157 43.3326 79.1191C43.0643 79.0845 42.8013 79.0173 42.5493 78.9189C42.8191 78.9191 43.0883 78.9445 43.3533 78.9949C43.8433 79.057 44.5231 79.1432 45.2753 79.2191C46.0275 79.2951 46.7107 79.3468 47.2042 79.3813C47.4731 79.3847 47.7412 79.4136 48.0047 79.4676Z" fill="#263238"/>
<path d="M49.0537 78.1667C48.7884 78.2967 48.5079 78.3929 48.2187 78.4531C46.842 78.8149 45.4217 78.9833 43.9986 78.9535C43.7041 78.9631 43.4096 78.9352 43.1221 78.8707C43.4128 78.834 43.7057 78.819 43.9986 78.8258C44.5403 78.8086 45.2857 78.7706 46.1069 78.674C46.9281 78.5774 47.6597 78.4393 48.1773 78.3289C48.4647 78.2522 48.7578 78.1979 49.0537 78.1667Z" fill="#263238"/>
<path d="M54.202 72.3628C54.195 72.6259 54.1591 72.8874 54.095 73.1426C54.0053 73.6223 53.8672 74.2779 53.6913 74.9956C53.5153 75.7133 53.3462 76.3758 53.1944 76.8244C53.1333 77.0812 53.043 77.3301 52.9252 77.5663C52.9445 77.304 52.9931 77.0448 53.0702 76.7934C53.2013 76.2551 53.3497 75.634 53.5153 74.9542C53.6809 74.2744 53.8396 73.6533 53.9708 73.115C54.0175 72.8559 54.0951 72.6034 54.202 72.3628Z" fill="#263238"/>
<path d="M39.1194 80.0816C38.3211 79.9583 37.5333 79.7749 36.7626 79.533C35.9752 79.3489 35.2024 79.1066 34.4507 78.8083C35.2486 78.9336 36.0363 79.117 36.8075 79.357C37.5952 79.5405 38.3679 79.7827 39.1194 80.0816Z" fill="#263238"/>
<path d="M55.2372 69.4884C55.107 69.5108 54.974 69.5108 54.8438 69.4884C54.4834 69.4514 54.1295 69.3667 53.7914 69.2365C53.2269 69.0244 52.713 68.6965 52.2828 68.274C51.8525 67.8515 51.5154 67.3437 51.2931 66.7831C51.0474 66.1665 50.9425 65.5028 50.986 64.8404C51.0014 64.2941 51.1648 63.7622 51.4588 63.3015C51.6655 62.9911 51.9744 62.7628 52.3318 62.6562C52.4273 62.6298 52.526 62.6171 52.6251 62.6182C52.6941 62.6182 52.7286 62.6182 52.7286 62.6182C52.7286 62.6182 52.5837 62.6182 52.3525 62.7114C52.0246 62.8325 51.7465 63.0596 51.5623 63.3567C51.093 64.0951 50.9619 65.4443 51.4622 66.7038C51.6951 67.2976 52.0597 67.8309 52.5285 68.2634C52.9126 68.6174 53.355 68.9022 53.8362 69.1054C54.2878 69.2838 54.7576 69.4123 55.2372 69.4884Z" fill="#263238"/>
<path d="M63.2805 69.7852C63.1942 68.7271 63.1665 67.665 63.1977 66.6038C63.1707 65.5435 63.2029 64.4825 63.2943 63.4258C63.3807 64.4828 63.4083 65.5437 63.3771 66.6038C63.4061 67.6652 63.3739 68.7275 63.2805 69.7852Z" fill="#263238"/>
<path d="M50.6237 62.6424C50.6617 61.8729 50.741 61.0033 50.741 61.0033C50.741 61.0033 52.6458 60.7929 52.7596 58.826C52.8735 56.8592 52.7596 52.3216 52.7596 52.3216L49.309 50.5549L45.4789 53.5673L46.0689 63.4015L49.5816 63.6258C49.8501 63.6332 50.1106 63.5339 50.306 63.3495C50.5013 63.1652 50.6156 62.9109 50.6237 62.6424Z" fill="#FFBE9D"/>
<path d="M50.9653 57.2697C50.9653 57.2697 50.9653 57.3077 50.9343 57.3525C50.9086 57.3851 50.8754 57.4109 50.8375 57.4277C50.7996 57.4445 50.7582 57.4519 50.7169 57.4492C50.496 57.4492 50.2821 57.1938 50.2062 56.8971C50.1701 56.7532 50.1701 56.6027 50.2062 56.4588C50.2133 56.396 50.2359 56.336 50.2721 56.2842C50.3082 56.2324 50.3567 56.1904 50.4132 56.1621C50.4596 56.1429 50.5118 56.1429 50.5582 56.1621C50.5926 56.1792 50.6204 56.207 50.6375 56.2414C50.6617 56.3001 50.6375 56.3381 50.6375 56.3346C50.6375 56.3312 50.6375 56.3001 50.603 56.2656C50.585 56.2409 50.5585 56.2237 50.5285 56.2173C50.4986 56.211 50.4674 56.2159 50.4408 56.2311C50.3985 56.2567 50.3633 56.2926 50.3386 56.3354C50.3139 56.3782 50.3004 56.4266 50.2994 56.4761C50.2703 56.6044 50.2703 56.7377 50.2994 56.866C50.3684 57.1352 50.5547 57.3525 50.7203 57.3732C50.7527 57.3776 50.7857 57.3753 50.8172 57.3664C50.8486 57.3575 50.8779 57.3422 50.9032 57.3215C50.9446 57.2939 50.9584 57.2663 50.9653 57.2697Z" fill="#EB996E"/>
<path d="M53.9432 51.2589C53.6775 50.3548 52.7148 49.9063 51.8383 49.6578C50.5029 49.2782 49.0606 49.1126 47.7563 49.5922C46.4519 50.0719 44.8854 50.9138 44.8854 52.3527C44.1159 52.2906 43.6742 52.9635 43.3705 53.7985C43.1764 54.3073 43.0601 54.8424 43.0255 55.3858C42.9289 57.2698 42.4009 59.8716 41.1794 61.2518C40.4893 62.0213 39.5335 62.5527 39.1401 63.512C38.7951 64.3436 38.9745 65.3304 38.6536 66.1724C38.3672 66.9143 37.7357 67.4422 37.2733 68.0875C36.8023 68.8195 36.525 69.6592 36.4677 70.5278C36.4104 71.3964 36.5748 72.2653 36.9455 73.0529C37.3189 73.8203 37.8447 74.5036 38.4907 75.0612C39.1367 75.6189 39.8895 76.0391 40.7032 76.2964C42.315 76.7868 44.0338 76.8036 45.6548 76.3447C46.8714 76.0538 48.0063 75.4911 48.9743 74.6988C49.9648 73.89 50.645 72.7636 50.8998 71.5105C51.1447 70.1026 50.7514 68.6706 50.4581 67.2697C49.5402 62.8426 49.8025 62.6114 50.9619 58.5017C50.9895 58.4292 51.0033 58.3533 51.024 58.2809C51.0447 58.2084 51.055 58.1739 51.0688 58.1187C51.1018 57.9562 51.1191 57.791 51.1206 57.6252C50.9512 57.6882 50.7674 57.7015 50.5908 57.6636C50.4141 57.6257 50.252 57.5382 50.1234 57.4113C49.9945 57.276 49.9046 57.1083 49.8633 56.9261C49.822 56.7438 49.8308 56.5538 49.8887 56.3761C49.9701 56.1818 50.0915 56.0068 50.2448 55.8623C50.3982 55.7179 50.5802 55.6073 50.779 55.5376C51.162 55.3789 51.5726 55.2961 51.9487 55.1201C52.7458 54.7405 53.2979 53.9538 53.674 53.1291C53.9833 52.5575 54.0787 51.8945 53.9432 51.2589Z" fill="#263238"/>
<path d="M51.1033 57.363C51.1762 57.4708 51.2365 57.5865 51.2828 57.7081C51.3863 57.9255 51.5243 58.2326 51.6761 58.588L51.7037 58.6536H51.6313L51.2862 58.6846C51.0481 58.6846 50.848 58.7295 50.6133 58.726C50.5929 58.7214 50.574 58.7117 50.5583 58.6979C50.5426 58.684 50.5307 58.6664 50.5236 58.6467C50.5134 58.6153 50.5134 58.5814 50.5236 58.55C50.5316 58.5035 50.542 58.4575 50.5547 58.412L50.6168 58.167C50.648 58.0036 50.6966 57.844 50.7617 57.6908C50.7553 57.8574 50.731 58.0229 50.6893 58.1843L50.641 58.4293C50.6237 58.5121 50.5926 58.6398 50.641 58.6294C50.8135 58.6294 51.0585 58.5915 51.2862 58.5776L51.6313 58.5466L51.5864 58.6225C51.438 58.2774 51.3138 57.9531 51.2414 57.7288C51.1778 57.6142 51.1313 57.491 51.1033 57.363Z" fill="#4CAF4F"/>
<path d="M39.2885 86.4068L54.5919 85.9409L61.2515 111.938L60.0266 141.758H51.9349L52.9252 112.573L47.0075 94.4742L47.9184 142.914L39.7405 143.035L38.8813 97.5039C38.8434 96.2375 38.4293 93.3839 38.5846 92.1278L39.2885 86.4068Z" fill="#263238"/>
<path d="M49.0433 94.8433C48.7928 94.8591 48.5414 94.8441 48.2946 94.7985C47.8322 94.7433 47.2007 94.6467 46.5071 94.5086C45.8136 94.3706 45.1925 94.2119 44.7439 94.0842C44.5041 94.0315 44.2721 93.948 44.0538 93.8358C44.0538 93.784 45.1787 94.0532 46.5589 94.3327C47.9391 94.6122 49.0502 94.7916 49.0433 94.8433Z" fill="#455A64"/>
<path d="M59.9438 140.122C59.9438 140.17 58.1115 140.212 55.8514 140.212C53.5912 140.212 51.7555 140.17 51.7555 140.122C51.7555 140.074 53.5878 140.032 55.8514 140.032C58.115 140.032 59.9438 140.07 59.9438 140.122Z" fill="#455A64"/>
<path d="M47.846 141.654C47.846 141.706 46.0655 141.744 43.8709 141.744C41.6764 141.744 39.8993 141.706 39.8993 141.654C39.8993 141.602 41.6798 141.564 43.8709 141.564C46.0621 141.564 47.846 141.606 47.846 141.654Z" fill="#455A64"/>
<path d="M46.7901 141.53C46.7418 141.53 46.5279 130.947 46.3105 117.894C46.0931 104.84 45.9654 94.25 46.0103 94.25C46.0551 94.25 46.276 104.83 46.4899 117.89C46.7039 130.951 46.8419 141.53 46.7901 141.53Z" fill="#455A64"/>
<path d="M58.8569 140.122C58.8531 140.075 58.8531 140.028 58.8569 139.981V139.567C58.8569 139.194 58.8845 138.659 58.9052 137.979C58.9535 136.599 59.0225 134.594 59.1088 132.138C59.2951 127.196 59.5573 120.385 59.8437 112.866C59.8437 112.793 59.8437 112.724 59.8437 112.662V112.686C58.0322 105.44 56.3931 98.8634 55.2027 94.105L53.8224 88.4771C53.6637 87.818 53.5429 87.3039 53.4567 86.945C53.4153 86.776 53.3877 86.6448 53.3635 86.5448C53.3501 86.4999 53.342 86.4535 53.3394 86.4067C53.3573 86.4502 53.3711 86.4953 53.3808 86.5413C53.4084 86.6379 53.4429 86.7691 53.4912 86.9347C53.5843 87.2797 53.7189 87.8042 53.8914 88.4598C54.2365 89.7918 54.723 91.7103 55.3303 94.074C56.5312 98.8289 58.1874 105.388 60.0232 112.645V112.669C60.0232 112.731 60.0232 112.804 60.0232 112.873C59.7161 120.392 59.4366 127.2 59.233 132.141C59.126 134.601 59.0363 136.592 58.9742 137.979C58.9397 138.67 58.9121 139.194 58.8948 139.567C58.8948 139.743 58.8741 139.881 58.8707 139.981C58.8712 140.028 58.8665 140.076 58.8569 140.122Z" fill="#455A64"/>
<path d="M56.2171 112.055C55.6359 112.246 55.0372 112.379 54.4297 112.452C53.6844 112.579 53.0495 112.669 52.7631 112.683V112.614C52.8562 112.642 52.9046 112.659 52.9046 112.673C52.9046 112.686 52.8459 112.673 52.7493 112.673H52.5422L52.7493 112.61C53.0184 112.531 53.6533 112.4 54.3987 112.265C54.9964 112.136 55.6055 112.065 56.2171 112.055Z" fill="#455A64"/>
<path d="M56.0757 113.045C55.5375 113.07 54.9981 113.046 54.4643 112.973C53.9253 112.962 53.3883 112.903 52.8597 112.797C53.9381 112.709 55.0236 112.793 56.0757 113.045Z" fill="#455A64"/>
<path opacity="0.2" d="M39.223 86.9554C39.4042 87.1881 39.6325 87.38 39.8929 87.5185C40.1533 87.6571 40.44 87.7391 40.7343 87.7594C41.3507 87.8324 41.9741 87.8208 42.5873 87.7249C46.5382 87.2866 50.7238 86.8829 54.5919 85.9409C49.5851 86.2204 44.2953 86.1273 39.2885 86.4068L39.2368 86.8346" fill="black"/>
<g opacity="0.2">
<path d="M44.3816 94.0117L47.2042 104.964L47.0075 94.4741L44.3816 94.0117Z" fill="black"/>
</g>
</svg>
