<svg width="59" height="12" viewBox="0 0 59 12" fill="none" xmlns="http://www.w3.org/2000/svg">
<g clip-path="url(#clip0_1027_553)">
<path opacity="0.1" fill-rule="evenodd" clip-rule="evenodd" d="M0.0879517 5.72712C0.0879517 2.77689 2.47959 0.385254 5.42982 0.385254C8.38005 0.385254 10.7717 2.77689 10.7717 5.72712C10.7717 8.67735 8.38005 11.069 5.42982 11.069C2.47959 11.069 0.0879517 8.67735 0.0879517 5.72712Z" fill="white"/>
<path fill-rule="evenodd" clip-rule="evenodd" d="M5.43013 2.87817C4.65639 2.87817 4.55928 2.88156 4.25539 2.89539C3.95208 2.90928 3.74505 2.95729 3.5639 3.02775C3.37652 3.10052 3.21757 3.19786 3.05921 3.35628C2.90073 3.51463 2.80339 3.67359 2.73039 3.86091C2.65975 4.04212 2.61168 4.24921 2.59803 4.55239C2.58443 4.85629 2.58087 4.95345 2.58087 5.7272C2.58087 6.50095 2.58431 6.59775 2.59808 6.90165C2.61203 7.20495 2.66005 7.41198 2.73045 7.59313C2.80327 7.78051 2.90062 7.93946 3.05903 8.09782C3.21733 8.2563 3.37628 8.35388 3.56355 8.42665C3.74482 8.4971 3.95191 8.54512 4.25515 8.55901C4.55904 8.57284 4.65609 8.57622 5.42978 8.57622C6.20358 8.57622 6.30039 8.57284 6.60429 8.55901C6.90759 8.54512 7.11486 8.4971 7.29613 8.42665C7.48345 8.35388 7.64216 8.2563 7.80046 8.09782C7.95894 7.93946 8.05628 7.78051 8.12929 7.59319C8.19933 7.41198 8.2474 7.20489 8.26165 6.90171C8.2753 6.59781 8.27886 6.50095 8.27886 5.7272C8.27886 4.95345 8.2753 4.85635 8.26165 4.55245C8.2474 4.24915 8.19933 4.04212 8.12929 3.86097C8.05628 3.67359 7.95894 3.51463 7.80046 3.35628C7.64199 3.1978 7.48351 3.10046 7.29595 3.02775C7.11432 2.95729 6.90717 2.90928 6.60387 2.89539C6.29998 2.88156 6.20323 2.87817 5.42924 2.87817H5.43013ZM5.17454 3.39158C5.25039 3.39146 5.33503 3.39158 5.43012 3.39158C6.19081 3.39158 6.28097 3.39431 6.58136 3.40797C6.85914 3.42067 7.0099 3.46708 7.11033 3.50608C7.24329 3.55772 7.33808 3.61945 7.43773 3.71916C7.53745 3.81888 7.59918 3.91385 7.65094 4.0468C7.68993 4.14711 7.73641 4.29787 7.74905 4.57565C7.7627 4.87598 7.76567 4.9662 7.76567 5.72654C7.76567 6.48687 7.7627 6.57709 7.74905 6.87742C7.73635 7.1552 7.68993 7.30596 7.65094 7.40627C7.5993 7.53923 7.53745 7.6339 7.43773 7.73356C7.33802 7.83327 7.24335 7.895 7.11033 7.94664C7.01002 7.98581 6.85914 8.03211 6.58136 8.04481C6.28103 8.05846 6.19081 8.06143 5.43012 8.06143C4.66937 8.06143 4.57921 8.05846 4.27888 8.04481C4.0011 8.03199 3.85034 7.98558 3.74985 7.94658C3.6169 7.89494 3.52193 7.83321 3.42221 7.7335C3.3225 7.63378 3.26077 7.53905 3.20901 7.40604C3.17001 7.30573 3.12354 7.15497 3.1109 6.87719C3.09725 6.57685 3.09451 6.48663 3.09451 5.72582C3.09451 4.96502 3.09725 4.87527 3.1109 4.57494C3.1236 4.29716 3.17001 4.1464 3.20901 4.04597C3.26065 3.91301 3.3225 3.81805 3.42221 3.71833C3.52193 3.61862 3.6169 3.55689 3.74985 3.50513C3.85028 3.46596 4.0011 3.41966 4.27888 3.4069C4.5417 3.39503 4.64355 3.39146 5.17454 3.39087V3.39158ZM6.95091 3.86464C6.76216 3.86464 6.60903 4.0176 6.60903 4.20641C6.60903 4.39515 6.76216 4.54829 6.95091 4.54829C7.13966 4.54829 7.29279 4.39515 7.29279 4.20641C7.29279 4.01766 7.13966 3.86464 6.95091 3.86464ZM5.43014 4.2641C4.62214 4.2641 3.96705 4.91919 3.96705 5.72719C3.96705 6.53519 4.62214 7.18999 5.43014 7.18999C6.23813 7.18999 6.89299 6.53519 6.89299 5.72719C6.89299 4.91919 6.23813 4.2641 5.43014 4.2641ZM5.43013 4.77752C5.95458 4.77752 6.3798 5.20267 6.3798 5.72719C6.3798 6.25165 5.95458 6.67686 5.43013 6.67686C4.90561 6.67686 4.48045 6.25165 4.48045 5.72719C4.48045 5.20267 4.90561 4.77752 5.43013 4.77752Z" fill="white"/>
<path opacity="0.1" fill-rule="evenodd" clip-rule="evenodd" d="M16.1136 5.72712C16.1136 2.77689 18.5052 0.385254 21.4555 0.385254C24.4057 0.385254 26.7973 2.77689 26.7973 5.72712C26.7973 8.67735 24.4057 11.069 21.4555 11.069C18.5052 11.069 16.1136 8.67735 16.1136 5.72712Z" fill="white"/>
<path fill-rule="evenodd" clip-rule="evenodd" d="M24.3044 5.72322C24.3044 5.91589 24.2848 6.10829 24.2463 6.29584C24.2087 6.47894 24.1531 6.65869 24.0802 6.83053C24.009 6.99933 23.9206 7.16199 23.8174 7.31369C23.7157 7.46442 23.5986 7.60584 23.4699 7.73475C23.3409 7.86311 23.199 7.97993 23.0483 8.08205C22.8962 8.18456 22.7333 8.27277 22.5644 8.34432C22.3923 8.41684 22.2121 8.4724 22.0292 8.5099C21.8414 8.54853 21.6483 8.56825 21.4553 8.56825C21.2622 8.56825 21.0691 8.54853 20.8816 8.5099C20.6984 8.4724 20.5182 8.41684 20.3463 8.34432C20.1774 8.27277 20.0143 8.18456 19.8621 8.08205C19.7115 7.97994 19.5696 7.86311 19.4409 7.73475C19.3121 7.60584 19.1949 7.46442 19.0931 7.31369C18.9904 7.16199 18.9019 6.99932 18.8304 6.83053C18.7575 6.65869 18.7017 6.47893 18.664 6.29584C18.6259 6.10829 18.6064 5.91589 18.6064 5.72322C18.6064 5.5304 18.6259 5.33759 18.6641 5.15045C18.7018 4.96735 18.7575 4.78732 18.8304 4.61576C18.9019 4.44684 18.9904 4.28403 19.0931 4.13233C19.1949 3.98147 19.3121 3.84032 19.4409 3.71126C19.5696 3.5829 19.7115 3.46636 19.8621 3.36439C20.0143 3.26145 20.1774 3.17324 20.3463 3.10156C20.5182 3.02889 20.6984 2.97319 20.8816 2.93597C21.0691 2.89763 21.2622 2.87817 21.4553 2.87817C21.6483 2.87817 21.8414 2.89763 22.0292 2.93597C22.2121 2.9732 22.3923 3.0289 22.5644 3.10156C22.7333 3.17323 22.8962 3.26145 23.0484 3.36439C23.199 3.46636 23.3409 3.5829 23.4699 3.71126C23.5986 3.84032 23.7157 3.98147 23.8174 4.13233C23.9206 4.28403 24.009 4.44685 24.0802 4.61576C24.1531 4.78732 24.2087 4.96735 24.2463 5.15045C24.2848 5.33759 24.3044 5.5304 24.3044 5.72322ZM20.4172 3.52567C19.7387 3.8456 19.2323 4.4699 19.0744 5.22228C19.1386 5.22283 20.1525 5.23562 21.3206 4.92568C20.8995 4.17858 20.4496 3.56888 20.4172 3.52567ZM21.5222 5.2998C20.2695 5.67431 19.0673 5.64736 19.0242 5.6457C19.0235 5.67182 19.0223 5.69709 19.0223 5.72322C19.0223 6.34736 19.2581 6.91637 19.6456 7.34661C19.6448 7.34535 20.3106 6.16581 21.6236 5.74183C21.6553 5.73128 21.6876 5.72182 21.7196 5.71266C21.6586 5.57458 21.5919 5.43622 21.5222 5.2998ZM23.0621 3.89978C22.6338 3.52261 22.0713 3.29383 21.4553 3.29383C21.2576 3.29383 21.0658 3.31772 20.882 3.36189C20.9184 3.4108 21.3754 4.0162 21.7915 4.77912C22.7096 4.43545 23.0561 3.90866 23.0621 3.89978ZM21.8855 6.11524C21.88 6.11703 21.8746 6.11858 21.8693 6.12052C20.4338 6.62025 19.965 7.62734 19.9599 7.63834C20.373 7.95909 20.8911 8.15261 21.4553 8.15261C21.7923 8.15261 22.1132 8.08411 22.4052 7.96007C22.3692 7.7478 22.2278 7.00376 21.8855 6.11524ZM22.8149 7.73808C23.3612 7.36995 23.7492 6.78539 23.8574 6.10828C23.8074 6.09217 23.1267 5.87698 22.3413 6.00271C22.6605 6.87846 22.7901 7.59166 22.8149 7.73808ZM21.9788 5.14115C22.0353 5.25701 22.09 5.37493 22.1405 5.49344C22.1584 5.53596 22.176 5.57763 22.1931 5.6193C23.0289 5.51428 23.8523 5.69098 23.8875 5.69819C23.882 5.12225 23.6756 4.59366 23.3343 4.17984C23.3297 4.18635 22.9394 4.74939 21.9788 5.14115Z" fill="white"/>
<path opacity="0.1" fill-rule="evenodd" clip-rule="evenodd" d="M32.1392 5.72712C32.1392 2.77689 34.5308 0.385254 37.481 0.385254C40.4313 0.385254 42.8229 2.77689 42.8229 5.72712C42.8229 8.67735 40.4313 11.069 37.481 11.069C34.5308 11.069 32.1392 8.67735 32.1392 5.72712Z" fill="white"/>
<path fill-rule="evenodd" clip-rule="evenodd" d="M37.3211 4.72715L37.3323 4.91199L37.1454 4.88935C36.4654 4.80259 35.8713 4.50836 35.3669 4.01419L35.1203 3.76899L35.0567 3.95006C34.9222 4.35369 35.0082 4.77996 35.2884 5.06665C35.4379 5.22509 35.4042 5.24772 35.1464 5.15341C35.0567 5.12323 34.9783 5.1006 34.9708 5.11192C34.9446 5.13832 35.0343 5.4816 35.1053 5.6174C35.2025 5.80601 35.4005 5.99085 35.6172 6.10025L35.8003 6.18701L35.5836 6.19078C35.3743 6.19078 35.3669 6.19456 35.3893 6.27377C35.464 6.51897 35.7592 6.77926 36.088 6.89242L36.3197 6.97164L36.1179 7.09235C35.819 7.26588 35.4677 7.36396 35.1165 7.3715C34.9484 7.37527 34.8101 7.39036 34.8101 7.40168C34.8101 7.4394 35.266 7.65065 35.5313 7.73364C36.3271 7.97883 37.2725 7.87321 37.9824 7.45449C38.4869 7.15648 38.9913 6.56424 39.2267 5.99085C39.3537 5.6853 39.4808 5.12701 39.4808 4.85918C39.4808 4.68565 39.492 4.66302 39.7012 4.45555C39.8245 4.33483 39.9404 4.2028 39.9628 4.16508C40.0002 4.09341 39.9964 4.09341 39.8059 4.15754C39.4882 4.2707 39.4434 4.25562 39.6003 4.08586C39.7162 3.96515 39.8544 3.74636 39.8544 3.68223C39.8544 3.67092 39.7984 3.68978 39.7349 3.72373C39.6676 3.76145 39.5181 3.81803 39.406 3.85198L39.2043 3.91611L39.0212 3.79163C38.9203 3.72373 38.7783 3.64828 38.7036 3.62565C38.513 3.57284 38.2216 3.58038 38.0497 3.64074C37.5826 3.81049 37.2874 4.24807 37.3211 4.72715Z" fill="white"/>
<path opacity="0.1" fill-rule="evenodd" clip-rule="evenodd" d="M48.1647 5.72712C48.1647 2.77689 50.5564 0.385254 53.5066 0.385254C56.4568 0.385254 58.8485 2.77689 58.8485 5.72712C58.8485 8.67735 56.4568 11.069 53.5066 11.069C50.5564 11.069 48.1647 8.67735 48.1647 5.72712Z" fill="white"/>
<path fill-rule="evenodd" clip-rule="evenodd" d="M55.7328 3.89082C55.978 3.9581 56.171 4.15633 56.2366 4.40807C56.3556 4.86431 56.3556 5.81627 56.3556 5.81627C56.3556 5.81627 56.3556 6.76819 56.2366 7.22447C56.171 7.47621 55.978 7.67444 55.7328 7.74175C55.2885 7.86398 53.5066 7.86398 53.5066 7.86398C53.5066 7.86398 51.7248 7.86398 51.2805 7.74175C51.0353 7.67444 50.8422 7.47621 50.7767 7.22447C50.6577 6.76819 50.6577 5.81627 50.6577 5.81627C50.6577 5.81627 50.6577 4.86431 50.7767 4.40807C50.8422 4.15633 51.0353 3.9581 51.2805 3.89082C51.7248 3.76855 53.5066 3.76855 53.5066 3.76855C53.5066 3.76855 55.2885 3.76855 55.7328 3.89082ZM52.9725 5.01497V6.79559L54.397 5.90532L52.9725 5.01497Z" fill="white"/>
</g>
<defs>
<clipPath id="clip0_1027_553">
<rect width="58.7605" height="10.6837" fill="white" transform="translate(0.0879517 0.385254)"/>
</clipPath>
</defs>
</svg>
